Hightower-Text_Roman.ufo
<glyph name="exclam" format="1">
  <advance width="267"/>
  <unicode hex="0021"/>
  <outline>
    <contour>
      <point x="184" y="580" type="curve" smooth="yes"/>
      <point x="173" y="511"/>
      <point x="161" y="347"/>
      <point x="161" y="261" type="curve" smooth="yes"/>
      <point x="161" y="213"/>
      <point x="156" y="205"/>
      <point x="133" y="193" type="curve" smooth="yes"/>
      <point x="119" y="186"/>
      <point x="116" y="191"/>
      <point x="116" y="205" type="curve" smooth="yes"/>
      <point x="116" y="333"/>
      <point x="104" y="492"/>
      <point x="90" y="573" type="curve" smooth="yes"/>
      <point x="82" y="619"/>
      <point x="87" y="633"/>
      <point x="143" y="646" type="curve" smooth="yes"/>
      <point x="184" y="656"/>
      <point x="194" y="645"/>
    </contour>
    <contour>
      <point x="189" y="53" type="curve" smooth="yes"/>
      <point x="189" y="16"/>
      <point x="163" y="-13"/>
      <point x="132" y="-13" type="curve" smooth="yes"/>
      <point x="96" y="-13"/>
      <point x="81" y="6"/>
      <point x="81" y="44" type="curve" smooth="yes"/>
      <point x="81" y="80"/>
      <point x="109" y="107"/>
      <point x="141" y="107" type="curve" smooth="yes"/>
      <point x="175" y="107"/>
      <point x="189" y="91"/>
    </contour>
  </outline>
</glyph>
<glyph name="quotedbl" format="1">
  <advance width="381"/>
  <unicode hex="0022"/>
  <outline>
    <contour>
      <point x="335" y="613" type="curve" smooth="yes"/>
      <point x="335" y="567"/>
      <point x="321" y="482"/>
      <point x="303" y="419" type="curve" smooth="yes"/>
      <point x="301" y="410"/>
      <point x="296" y="407"/>
      <point x="282" y="404" type="curve" smooth="yes"/>
      <point x="268" y="401"/>
      <point x="265" y="407"/>
      <point x="266" y="424" type="curve" smooth="yes"/>
      <point x="269" y="470"/>
      <point x="261" y="555"/>
      <point x="247" y="609" type="curve" smooth="yes"/>
      <point x="239" y="639"/>
      <point x="248" y="646"/>
      <point x="290" y="651" type="curve" smooth="yes"/>
      <point x="328" y="656"/>
      <point x="335" y="651"/>
    </contour>
    <contour>
      <point x="157" y="613" type="curve" smooth="yes"/>
      <point x="157" y="567"/>
      <point x="143" y="482"/>
      <point x="125" y="419" type="curve" smooth="yes"/>
      <point x="122" y="410"/>
      <point x="118" y="407"/>
      <point x="104" y="404" type="curve" smooth="yes"/>
      <point x="90" y="401"/>
      <point x="87" y="407"/>
      <point x="88" y="424" type="curve" smooth="yes"/>
      <point x="91" y="470"/>
      <point x="82" y="555"/>
      <point x="68" y="609" type="curve" smooth="yes"/>
      <point x="61" y="639"/>
      <point x="69" y="646"/>
      <point x="112" y="651" type="curve" smooth="yes"/>
      <point x="149" y="656"/>
      <point x="157" y="651"/>
    </contour>
  </outline>
</glyph>
<glyph name="numbersign" format="1">
  <advance width="560"/>
  <unicode hex="0023"/>
  <outline>
    <contour>
      <point x="518" y="398" type="curve" smooth="yes"/>
      <point x="511" y="367"/>
      <point x="502" y="358"/>
      <point x="487" y="360" type="curve" smooth="yes"/>
      <point x="453" y="364"/>
      <point x="423" y="367"/>
      <point x="394" y="370" type="curve"/>
      <point x="388" y="328"/>
      <point x="381" y="285"/>
      <point x="374" y="244" type="curve"/>
      <point x="410" y="240"/>
      <point x="445" y="236"/>
      <point x="481" y="232" type="curve" smooth="yes"/>
      <point x="487" y="231"/>
      <point x="489" y="225"/>
      <point x="484" y="201" type="curve" smooth="yes"/>
      <point x="477" y="170"/>
      <point x="468" y="161"/>
      <point x="453" y="163" type="curve" smooth="yes"/>
      <point x="420" y="167"/>
      <point x="391" y="170"/>
      <point x="363" y="173" type="curve"/>
      <point x="351" y="95"/>
      <point x="340" y="27"/>
      <point x="333" y="-16" type="curve" smooth="yes"/>
      <point x="332" y="-22"/>
      <point x="327" y="-22"/>
      <point x="319" y="-19" type="curve"/>
      <point x="308" y="-13"/>
      <point x="298" y="-3"/>
      <point x="300" y="12" type="curve" smooth="yes"/>
      <point x="307" y="55"/>
      <point x="316" y="113"/>
      <point x="326" y="177" type="curve"/>
      <point x="283" y="182"/>
      <point x="240" y="186"/>
      <point x="191" y="192" type="curve"/>
      <point x="177" y="105"/>
      <point x="166" y="30"/>
      <point x="158" y="-16" type="curve" smooth="yes"/>
      <point x="157" y="-22"/>
      <point x="152" y="-22"/>
      <point x="143" y="-19" type="curve"/>
      <point x="133" y="-13"/>
      <point x="123" y="-3"/>
      <point x="125" y="12" type="curve" smooth="yes"/>
      <point x="132" y="59"/>
      <point x="143" y="124"/>
      <point x="153" y="196" type="curve"/>
      <point x="122" y="199"/>
      <point x="87" y="203"/>
      <point x="47" y="207" type="curve" smooth="yes"/>
      <point x="39" y="208"/>
      <point x="35" y="218"/>
      <point x="41" y="246" type="curve" smooth="yes"/>
      <point x="47" y="277"/>
      <point x="54" y="283"/>
      <point x="71" y="281" type="curve" smooth="yes"/>
      <point x="104" y="277"/>
      <point x="135" y="273"/>
      <point x="165" y="269" type="curve"/>
      <point x="171" y="310"/>
      <point x="178" y="352"/>
      <point x="184" y="393" type="curve"/>
      <point x="153" y="396"/>
      <point x="120" y="400"/>
      <point x="81" y="404" type="curve" smooth="yes"/>
      <point x="73" y="405"/>
      <point x="69" y="415"/>
      <point x="75" y="443" type="curve" smooth="yes"/>
      <point x="81" y="474"/>
      <point x="88" y="480"/>
      <point x="105" y="478" type="curve" smooth="yes"/>
      <point x="137" y="474"/>
      <point x="167" y="470"/>
      <point x="195" y="467" type="curve"/>
      <point x="206" y="535"/>
      <point x="216" y="599"/>
      <point x="223" y="652" type="curve"/>
      <point x="225" y="660"/>
      <point x="236" y="661"/>
      <point x="242" y="659" type="curve"/>
      <point x="259" y="651"/>
      <point x="260" y="641"/>
      <point x="258" y="629" type="curve" smooth="yes"/>
      <point x="251" y="584"/>
      <point x="243" y="525"/>
      <point x="233" y="462" type="curve"/>
      <point x="281" y="456"/>
      <point x="325" y="451"/>
      <point x="367" y="446" type="curve"/>
      <point x="379" y="521"/>
      <point x="390" y="593"/>
      <point x="398" y="652" type="curve"/>
      <point x="400" y="660"/>
      <point x="411" y="661"/>
      <point x="417" y="659" type="curve"/>
      <point x="435" y="651"/>
      <point x="436" y="641"/>
      <point x="434" y="629" type="curve" smooth="yes"/>
      <point x="427" y="579"/>
      <point x="417" y="513"/>
      <point x="405" y="441" type="curve"/>
      <point x="442" y="437"/>
      <point x="478" y="433"/>
      <point x="515" y="429" type="curve" smooth="yes"/>
      <point x="521" y="428"/>
      <point x="523" y="422"/>
    </contour>
    <contour>
      <point x="356" y="374" type="curve"/>
      <point x="313" y="379"/>
      <point x="271" y="384"/>
      <point x="222" y="389" type="curve"/>
      <point x="215" y="348"/>
      <point x="209" y="305"/>
      <point x="202" y="264" type="curve"/>
      <point x="250" y="258"/>
      <point x="295" y="253"/>
      <point x="337" y="248" type="curve"/>
      <point x="343" y="289"/>
      <point x="350" y="331"/>
    </contour>
  </outline>
</glyph>
<glyph name="dollar" format="1">
  <advance width="513"/>
  <unicode hex="0024"/>
  <outline>
    <contour>
      <point x="453" y="169" type="curve" smooth="yes"/>
      <point x="453" y="64"/>
      <point x="373" y="-8"/>
      <point x="258" y="-8" type="curve" smooth="yes"/>
      <point x="256" y="-8"/>
      <point x="253" y="-8"/>
      <point x="251" y="-8" type="curve"/>
      <point x="249" y="-50"/>
      <point x="247" y="-83"/>
      <point x="245" y="-104" type="curve" smooth="yes"/>
      <point x="244" y="-111"/>
      <point x="241" y="-111"/>
      <point x="232" y="-107" type="curve" smooth="yes"/>
      <point x="221" y="-102"/>
      <point x="210" y="-91"/>
      <point x="211" y="-76" type="curve" smooth="yes"/>
      <point x="212" y="-58"/>
      <point x="214" y="-34"/>
      <point x="215" y="-6" type="curve"/>
      <point x="107" y="3"/>
      <point x="55" y="47"/>
      <point x="55" y="108" type="curve" smooth="yes"/>
      <point x="55" y="136"/>
      <point x="69" y="152"/>
      <point x="91" y="152" type="curve" smooth="yes"/>
      <point x="122" y="152"/>
      <point x="132" y="138"/>
      <point x="143" y="103" type="curve" smooth="yes"/>
      <point x="155" y="62"/>
      <point x="174" y="43"/>
      <point x="218" y="37" type="curve"/>
      <point x="223" y="108"/>
      <point x="228" y="197"/>
      <point x="233" y="288" type="curve"/>
      <point x="120" y="347"/>
      <point x="82" y="394"/>
      <point x="82" y="476" type="curve" smooth="yes"/>
      <point x="82" y="578"/>
      <point x="157" y="644"/>
      <point x="254" y="647" type="curve"/>
      <point x="256" y="674"/>
      <point x="258" y="699"/>
      <point x="259" y="720" type="curve" smooth="yes"/>
      <point x="260" y="728"/>
      <point x="269" y="729"/>
      <point x="275" y="727" type="curve" smooth="yes"/>
      <point x="294" y="719"/>
      <point x="296" y="709"/>
      <point x="295" y="697" type="curve" smooth="yes"/>
      <point x="294" y="682"/>
      <point x="293" y="665"/>
      <point x="292" y="646" type="curve"/>
      <point x="382" y="638"/>
      <point x="442" y="595"/>
      <point x="442" y="536" type="curve" smooth="yes"/>
      <point x="442" y="505"/>
      <point x="428" y="493"/>
      <point x="401" y="493" type="curve" smooth="yes"/>
      <point x="376" y="493"/>
      <point x="361" y="509"/>
      <point x="354" y="537" type="curve" smooth="yes"/>
      <point x="343" y="577"/>
      <point x="327" y="595"/>
      <point x="289" y="601" type="curve"/>
      <point x="285" y="536"/>
      <point x="280" y="455"/>
      <point x="275" y="372" type="curve"/>
      <point x="401" y="310"/>
      <point x="453" y="263"/>
    </contour>
    <contour>
      <point x="252" y="603" type="curve"/>
      <point x="183" y="602"/>
      <point x="148" y="562"/>
      <point x="148" y="510" type="curve" smooth="yes"/>
      <point x="148" y="464"/>
      <point x="163" y="431"/>
      <point x="239" y="389" type="curve"/>
      <point x="244" y="465"/>
      <point x="248" y="539"/>
    </contour>
    <contour>
      <point x="387" y="135" type="curve" smooth="yes"/>
      <point x="387" y="193"/>
      <point x="365" y="223"/>
      <point x="268" y="271" type="curve"/>
      <point x="264" y="186"/>
      <point x="258" y="102"/>
      <point x="254" y="34" type="curve"/>
      <point x="257" y="34"/>
      <point x="261" y="34"/>
      <point x="265" y="34" type="curve" smooth="yes"/>
      <point x="336" y="34"/>
      <point x="387" y="72"/>
    </contour>
  </outline>
</glyph>
<glyph name="ampersand" format="1">
  <advance width="792"/>
  <unicode hex="0026"/>
  <outline>
    <contour>
      <point x="754" y="51" type="curve" smooth="yes"/>
      <point x="758" y="42"/>
      <point x="757" y="36"/>
      <point x="741" y="26" type="curve" smooth="yes"/>
      <point x="708" y="5"/>
      <point x="676" y="-6"/>
      <point x="642" y="-6" type="curve" smooth="yes"/>
      <point x="571" y="-6"/>
      <point x="543" y="19"/>
      <point x="512" y="82" type="curve" smooth="yes"/>
      <point x="508" y="90"/>
      <point x="504" y="98"/>
      <point x="500" y="105" type="curve"/>
      <point x="438" y="31"/>
      <point x="365" y="-6"/>
      <point x="279" y="-6" type="curve" smooth="yes"/>
      <point x="143" y="-6"/>
      <point x="53" y="56"/>
      <point x="53" y="165" type="curve" smooth="yes"/>
      <point x="53" y="270"/>
      <point x="135" y="341"/>
      <point x="233" y="383" type="curve"/>
      <point x="192" y="418"/>
      <point x="160" y="461"/>
      <point x="160" y="517" type="curve" smooth="yes"/>
      <point x="160" y="604"/>
      <point x="229" y="656"/>
      <point x="316" y="656" type="curve" smooth="yes"/>
      <point x="395" y="656"/>
      <point x="458" y="612"/>
      <point x="458" y="539" type="curve" smooth="yes"/>
      <point x="458" y="483"/>
      <point x="437" y="429"/>
      <point x="346" y="387" type="curve"/>
      <point x="381" y="362"/>
      <point x="416" y="339"/>
      <point x="440" y="315" type="curve" smooth="yes"/>
      <point x="476" y="279"/>
      <point x="503" y="247"/>
      <point x="527" y="214" type="curve"/>
      <point x="551" y="258"/>
      <point x="573" y="311"/>
      <point x="592" y="370" type="curve" smooth="yes"/>
      <point x="595" y="379"/>
      <point x="597" y="389"/>
      <point x="597" y="398" type="curve" smooth="yes"/>
      <point x="597" y="420"/>
      <point x="583" y="432"/>
      <point x="560" y="441" type="curve" smooth="yes"/>
      <point x="548" y="446"/>
      <point x="543" y="449"/>
      <point x="543" y="459" type="curve" smooth="yes"/>
      <point x="543" y="469"/>
      <point x="551" y="471"/>
      <point x="568" y="467" type="curve" smooth="yes"/>
      <point x="594" y="461"/>
      <point x="679" y="458"/>
      <point x="698" y="460" type="curve" smooth="yes"/>
      <point x="720" y="462"/>
      <point x="725" y="460"/>
      <point x="725" y="448" type="curve" smooth="yes"/>
      <point x="725" y="438"/>
      <point x="717" y="436"/>
      <point x="686" y="431" type="curve" smooth="yes"/>
      <point x="659" y="427"/>
      <point x="651" y="421"/>
      <point x="642" y="391" type="curve" smooth="yes"/>
      <point x="615" y="306"/>
      <point x="585" y="235"/>
      <point x="551" y="178" type="curve"/>
      <point x="559" y="165"/>
      <point x="566" y="152"/>
      <point x="573" y="138" type="curve" smooth="yes"/>
      <point x="609" y="70"/>
      <point x="632" y="40"/>
      <point x="676" y="40" type="curve" smooth="yes"/>
      <point x="693" y="40"/>
      <point x="716" y="48"/>
      <point x="739" y="59" type="curve" smooth="yes"/>
      <point x="746" y="63"/>
      <point x="751" y="59"/>
    </contour>
    <contour>
      <point x="384" y="531" type="curve" smooth="yes"/>
      <point x="384" y="593"/>
      <point x="353" y="620"/>
      <point x="312" y="620" type="curve" smooth="yes"/>
      <point x="268" y="620"/>
      <point x="235" y="594"/>
      <point x="235" y="534" type="curve" smooth="yes"/>
      <point x="235" y="484"/>
      <point x="269" y="446"/>
      <point x="311" y="412" type="curve"/>
      <point x="372" y="441"/>
      <point x="384" y="489"/>
    </contour>
    <contour>
      <point x="480" y="140" type="curve"/>
      <point x="447" y="194"/>
      <point x="411" y="235"/>
      <point x="367" y="280" type="curve" smooth="yes"/>
      <point x="343" y="305"/>
      <point x="305" y="328"/>
      <point x="268" y="355" type="curve"/>
      <point x="191" y="320"/>
      <point x="140" y="263"/>
      <point x="140" y="187" type="curve" smooth="yes"/>
      <point x="140" y="90"/>
      <point x="210" y="39"/>
      <point x="301" y="39" type="curve" smooth="yes"/>
      <point x="369" y="39"/>
      <point x="429" y="75"/>
    </contour>
  </outline>
</glyph>
<glyph name="quotesingle" format="1">
  <advance width="203"/>
  <unicode hex="0027"/>
  <outline>
    <contour>
      <point x="157" y="613" type="curve" smooth="yes"/>
      <point x="157" y="567"/>
      <point x="143" y="482"/>
      <point x="125" y="419" type="curve" smooth="yes"/>
      <point x="122" y="410"/>
      <point x="118" y="407"/>
      <point x="104" y="404" type="curve" smooth="yes"/>
      <point x="90" y="401"/>
      <point x="87" y="407"/>
      <point x="88" y="424" type="curve" smooth="yes"/>
      <point x="91" y="470"/>
      <point x="82" y="555"/>
      <point x="68" y="609" type="curve" smooth="yes"/>
      <point x="61" y="639"/>
      <point x="69" y="646"/>
      <point x="112" y="651" type="curve" smooth="yes"/>
      <point x="149" y="656"/>
      <point x="157" y="651"/>
    </contour>
  </outline>
</glyph>
<glyph name="parenleft" format="1">
  <advance width="387"/>
  <unicode hex="0028"/>
  <outline>
    <contour>
      <point x="359" y="-167" type="curve" smooth="yes"/>
      <point x="352" y="-179"/>
      <point x="343" y="-177"/>
      <point x="329" y="-167" type="curve" smooth="yes"/>
      <point x="180" y="-57"/>
      <point x="68" y="101"/>
      <point x="68" y="280" type="curve" smooth="yes"/>
      <point x="68" y="459"/>
      <point x="180" y="617"/>
      <point x="329" y="727" type="curve" smooth="yes"/>
      <point x="343" y="737"/>
      <point x="352" y="739"/>
      <point x="359" y="727" type="curve" smooth="yes"/>
      <point x="365" y="715"/>
      <point x="365" y="707"/>
      <point x="358" y="701" type="curve" smooth="yes"/>
      <point x="229" y="585"/>
      <point x="152" y="471"/>
      <point x="152" y="280" type="curve" smooth="yes"/>
      <point x="152" y="89"/>
      <point x="229" y="-25"/>
      <point x="358" y="-141" type="curve" smooth="yes"/>
      <point x="365" y="-147"/>
      <point x="365" y="-155"/>
    </contour>
  </outline>
</glyph>
<glyph name="parenright" format="1">
  <advance width="387"/>
  <unicode hex="0029"/>
  <outline>
    <contour>
      <point x="319" y="280" type="curve" smooth="yes"/>
      <point x="319" y="101"/>
      <point x="207" y="-57"/>
      <point x="58" y="-167" type="curve" smooth="yes"/>
      <point x="44" y="-177"/>
      <point x="35" y="-179"/>
      <point x="28" y="-167" type="curve" smooth="yes"/>
      <point x="22" y="-155"/>
      <point x="22" y="-147"/>
      <point x="29" y="-141" type="curve" smooth="yes"/>
      <point x="158" y="-25"/>
      <point x="235" y="89"/>
      <point x="235" y="280" type="curve" smooth="yes"/>
      <point x="235" y="471"/>
      <point x="158" y="585"/>
      <point x="29" y="701" type="curve" smooth="yes"/>
      <point x="22" y="707"/>
      <point x="22" y="715"/>
      <point x="28" y="727" type="curve" smooth="yes"/>
      <point x="35" y="739"/>
      <point x="44" y="737"/>
      <point x="58" y="727" type="curve" smooth="yes"/>
      <point x="207" y="617"/>
      <point x="319" y="459"/>
    </contour>
  </outline>
</glyph>
<glyph name="asterisk" format="1">
  <advance width="510"/>
  <unicode hex="002A"/>
  <outline>
    <contour>
      <point x="454" y="514" type="curve" smooth="yes"/>
      <point x="469" y="467"/>
      <point x="454" y="460"/>
      <point x="440" y="459" type="curve" smooth="yes"/>
      <point x="323" y="449"/>
      <point x="285" y="437"/>
      <point x="281" y="433" type="curve"/>
      <point x="272" y="420"/>
      <point x="303" y="388"/>
      <point x="396" y="335" type="curve" smooth="yes"/>
      <point x="416" y="323"/>
      <point x="418" y="312"/>
      <point x="377" y="283" type="curve" smooth="yes"/>
      <point x="335" y="254"/>
      <point x="325" y="267"/>
      <point x="320" y="279" type="curve" smooth="yes"/>
      <point x="278" y="382"/>
      <point x="252" y="419"/>
      <point x="247" y="420" type="curve" smooth="yes"/>
      <point x="234" y="423"/>
      <point x="210" y="380"/>
      <point x="190" y="282" type="curve" smooth="yes"/>
      <point x="185" y="257"/>
      <point x="174" y="255"/>
      <point x="135" y="284" type="curve" smooth="yes"/>
      <point x="94" y="314"/>
      <point x="104" y="328"/>
      <point x="115" y="336" type="curve"/>
      <point x="190" y="404"/>
      <point x="223" y="443"/>
      <point x="223" y="448" type="curve"/>
      <point x="221" y="462"/>
      <point x="185" y="468"/>
      <point x="74" y="460" type="curve" smooth="yes"/>
      <point x="59" y="459"/>
      <point x="45" y="468"/>
      <point x="59" y="514" type="curve" smooth="yes"/>
      <point x="74" y="561"/>
      <point x="92" y="557"/>
      <point x="103" y="550" type="curve" smooth="yes"/>
      <point x="199" y="491"/>
      <point x="240" y="475"/>
      <point x="244" y="477" type="curve" smooth="yes"/>
      <point x="256" y="483"/>
      <point x="247" y="527"/>
      <point x="209" y="624" type="curve" smooth="yes"/>
      <point x="200" y="647"/>
      <point x="201" y="656"/>
      <point x="255" y="656" type="curve" smooth="yes"/>
      <point x="302" y="656"/>
      <point x="306" y="637"/>
      <point x="303" y="624" type="curve" smooth="yes"/>
      <point x="279" y="522"/>
      <point x="279" y="475"/>
      <point x="282" y="469" type="curve"/>
      <point x="290" y="457"/>
      <point x="343" y="481"/>
      <point x="410" y="549" type="curve" smooth="yes"/>
      <point x="419" y="559"/>
      <point x="438" y="564"/>
    </contour>
  </outline>
</glyph>
<glyph name="plus" format="1">
  <advance width="529"/>
  <unicode hex="002B"/>
  <outline>
    <contour>
      <point x="480" y="319" type="curve" smooth="yes"/>
      <point x="480" y="307"/>
      <point x="467" y="291"/>
      <point x="451" y="291" type="curve" smooth="yes"/>
      <point x="388" y="291"/>
      <point x="297" y="291"/>
      <point x="297" y="291" type="curve"/>
      <point x="297" y="291"/>
      <point x="297" y="186"/>
      <point x="297" y="120" type="curve" smooth="yes"/>
      <point x="297" y="105"/>
      <point x="285" y="96"/>
      <point x="256" y="96" type="curve" smooth="yes"/>
      <point x="245" y="96"/>
      <point x="232" y="98"/>
      <point x="232" y="106" type="curve" smooth="yes"/>
      <point x="232" y="185"/>
      <point x="232" y="291"/>
      <point x="232" y="291" type="curve"/>
      <point x="232" y="291"/>
      <point x="133" y="291"/>
      <point x="59" y="291" type="curve" smooth="yes"/>
      <point x="51" y="291"/>
      <point x="50" y="299"/>
      <point x="50" y="305" type="curve" smooth="yes"/>
      <point x="50" y="322"/>
      <point x="63" y="328"/>
      <point x="78" y="328" type="curve" smooth="yes"/>
      <point x="137" y="328"/>
      <point x="232" y="328"/>
      <point x="232" y="328" type="curve"/>
      <point x="232" y="328"/>
      <point x="232" y="431"/>
      <point x="232" y="501" type="curve" smooth="yes"/>
      <point x="232" y="517"/>
      <point x="258" y="525"/>
      <point x="281" y="525" type="curve" smooth="yes"/>
      <point x="293" y="525"/>
      <point x="297" y="524"/>
      <point x="297" y="518" type="curve" smooth="yes"/>
      <point x="297" y="452"/>
      <point x="297" y="328"/>
      <point x="297" y="328" type="curve"/>
      <point x="297" y="328"/>
      <point x="410" y="328"/>
      <point x="471" y="328" type="curve" smooth="yes"/>
      <point x="478" y="328"/>
      <point x="480" y="326"/>
    </contour>
  </outline>
</glyph>
<glyph name="comma" format="1">
  <advance width="246"/>
  <unicode hex="002C"/>
  <outline>
    <contour>
      <point x="193" y="24" type="curve" smooth="yes"/>
      <point x="193" y="-78"/>
      <point x="146" y="-131"/>
      <point x="86" y="-167" type="curve" smooth="yes"/>
      <point x="71" y="-176"/>
      <point x="66" y="-176"/>
      <point x="59" y="-157" type="curve" smooth="yes"/>
      <point x="54" y="-143"/>
      <point x="58" y="-139"/>
      <point x="85" y="-121" type="curve" smooth="yes"/>
      <point x="109" y="-104"/>
      <point x="133" y="-71"/>
      <point x="133" y="-46" type="curve" smooth="yes"/>
      <point x="133" y="-30"/>
      <point x="126" y="-20"/>
      <point x="105" y="-7" type="curve" smooth="yes"/>
      <point x="75" y="12"/>
      <point x="66" y="26"/>
      <point x="66" y="53" type="curve" smooth="yes"/>
      <point x="66" y="84"/>
      <point x="88" y="109"/>
      <point x="125" y="109" type="curve" smooth="yes"/>
      <point x="169" y="109"/>
      <point x="193" y="73"/>
    </contour>
  </outline>
</glyph>
<glyph name="hyphen" format="1">
  <advance width="337"/>
  <unicode hex="002D"/>
  <unicode hex="2010"/>
  <unicode hex="2011"/>
  <outline>
    <contour>
      <point x="290" y="309" type="curve" smooth="yes"/>
      <point x="290" y="287"/>
      <point x="282" y="259"/>
      <point x="261" y="256" type="curve" smooth="yes"/>
      <point x="206" y="247"/>
      <point x="144" y="234"/>
      <point x="92" y="219" type="curve" smooth="yes"/>
      <point x="54" y="208"/>
      <point x="47" y="210"/>
      <point x="47" y="231" type="curve" smooth="yes"/>
      <point x="47" y="254"/>
      <point x="51" y="286"/>
      <point x="72" y="289" type="curve" smooth="yes"/>
      <point x="134" y="297"/>
      <point x="198" y="311"/>
      <point x="258" y="322" type="curve" smooth="yes"/>
      <point x="285" y="327"/>
      <point x="290" y="325"/>
    </contour>
  </outline>
</glyph>
<glyph name="period" format="1">
  <advance width="246"/>
  <unicode hex="002E"/>
  <outline>
    <contour>
      <point x="182" y="58" type="curve" smooth="yes"/>
      <point x="182" y="18"/>
      <point x="154" y="-14"/>
      <point x="119" y="-14" type="curve" smooth="yes"/>
      <point x="79" y="-14"/>
      <point x="63" y="8"/>
      <point x="63" y="50" type="curve" smooth="yes"/>
      <point x="63" y="89"/>
      <point x="94" y="118"/>
      <point x="128" y="118" type="curve" smooth="yes"/>
      <point x="167" y="118"/>
      <point x="182" y="100"/>
    </contour>
  </outline>
</glyph>
<glyph name="slash" format="1">
  <advance width="492"/>
  <unicode hex="002F"/>
  <outline>
    <contour>
      <point x="475" y="702" type="curve"/>
      <point x="355" y="477"/>
      <point x="138" y="66"/>
      <point x="17" y="-166" type="curve" smooth="yes"/>
      <point x="12" y="-175"/>
      <point x="6" y="-174"/>
      <point x="-10" y="-165" type="curve" smooth="yes"/>
      <point x="-23" y="-157"/>
      <point x="-30" y="-153"/>
      <point x="-25" y="-143" type="curve" smooth="yes"/>
      <point x="95" y="82"/>
      <point x="278" y="433"/>
      <point x="433" y="726" type="curve" smooth="yes"/>
      <point x="437" y="734"/>
      <point x="444" y="733"/>
      <point x="460" y="725" type="curve" smooth="yes"/>
      <point x="475" y="717"/>
      <point x="479" y="712"/>
    </contour>
  </outline>
</glyph>
<glyph name="zero" format="1">
  <advance width="615"/>
  <unicode hex="0030"/>
  <outline>
    <contour>
      <point x="554" y="327" type="curve" smooth="yes"/>
      <point x="554" y="150"/>
      <point x="455" y="-14"/>
      <point x="300" y="-14" type="curve" smooth="yes"/>
      <point x="159" y="-14"/>
      <point x="61" y="112"/>
      <point x="61" y="314" type="curve" smooth="yes"/>
      <point x="61" y="492"/>
      <point x="160" y="656"/>
      <point x="315" y="656" type="curve" smooth="yes"/>
      <point x="456" y="656"/>
      <point x="554" y="530"/>
    </contour>
    <contour>
      <point x="457" y="294" type="curve" smooth="yes"/>
      <point x="457" y="503"/>
      <point x="392" y="611"/>
      <point x="293" y="611" type="curve" smooth="yes"/>
      <point x="209" y="611"/>
      <point x="158" y="504"/>
      <point x="158" y="350" type="curve" smooth="yes"/>
      <point x="158" y="139"/>
      <point x="223" y="31"/>
      <point x="322" y="31" type="curve" smooth="yes"/>
      <point x="406" y="31"/>
      <point x="457" y="137"/>
    </contour>
  </outline>
</glyph>
<glyph name="one" format="1">
  <advance width="377"/>
  <unicode hex="0031"/>
  <outline>
    <contour>
      <point x="341" y="16" type="curve" smooth="yes"/>
      <point x="341" y="-1"/>
      <point x="337" y="-2"/>
      <point x="311" y="-1" type="curve" smooth="yes"/>
      <point x="241" y="2"/>
      <point x="130" y="1"/>
      <point x="72" y="-3" type="curve" smooth="yes"/>
      <point x="54" y="-4"/>
      <point x="50" y="-2"/>
      <point x="50" y="14" type="curve" smooth="yes"/>
      <point x="50" y="22"/>
      <point x="55" y="26"/>
      <point x="72" y="29" type="curve" smooth="yes"/>
      <point x="143" y="42"/>
      <point x="160" y="45"/>
      <point x="160" y="84" type="curve" smooth="yes"/>
      <point x="160" y="543" type="line" smooth="yes"/>
      <point x="160" y="555"/>
      <point x="153" y="564"/>
      <point x="141" y="564" type="curve" smooth="yes"/>
      <point x="122" y="564"/>
      <point x="96" y="562"/>
      <point x="59" y="553" type="curve" smooth="yes"/>
      <point x="42" y="549"/>
      <point x="39" y="556"/>
      <point x="37" y="562" type="curve" smooth="yes"/>
      <point x="32" y="577"/>
      <point x="31" y="583"/>
      <point x="47" y="587" type="curve" smooth="yes"/>
      <point x="106" y="603"/>
      <point x="176" y="631"/>
      <point x="223" y="658" type="curve" smooth="yes"/>
      <point x="229" y="661"/>
      <point x="233" y="663"/>
      <point x="238" y="663" type="curve" smooth="yes"/>
      <point x="244" y="663"/>
      <point x="253" y="657"/>
      <point x="252" y="649" type="curve" smooth="yes"/>
      <point x="248" y="617"/>
      <point x="245" y="586"/>
      <point x="245" y="501" type="curve" smooth="yes"/>
      <point x="245" y="91" type="line" smooth="yes"/>
      <point x="245" y="54"/>
      <point x="265" y="46"/>
      <point x="314" y="35" type="curve" smooth="yes"/>
      <point x="339" y="29"/>
      <point x="341" y="28"/>
    </contour>
  </outline>
</glyph>
<glyph name="two" format="1">
  <advance width="517"/>
  <unicode hex="0032"/>
  <outline>
    <contour>
      <point x="474" y="113" type="curve" smooth="yes"/>
      <point x="459" y="79"/>
      <point x="445" y="37"/>
      <point x="434" y="-7" type="curve" smooth="yes"/>
      <point x="432" y="-15"/>
      <point x="423" y="-18"/>
      <point x="411" y="-15" type="curve" smooth="yes"/>
      <point x="361" y="0"/>
      <point x="263" y="7"/>
      <point x="57" y="7" type="curve" smooth="yes"/>
      <point x="46" y="7"/>
      <point x="43" y="27"/>
      <point x="49" y="33" type="curve" smooth="yes"/>
      <point x="311" y="300"/>
      <point x="349" y="362"/>
      <point x="349" y="464" type="curve" smooth="yes"/>
      <point x="349" y="530"/>
      <point x="310" y="584"/>
      <point x="232" y="584" type="curve" smooth="yes"/>
      <point x="176" y="584"/>
      <point x="141" y="565"/>
      <point x="93" y="527" type="curve" smooth="yes"/>
      <point x="84" y="520"/>
      <point x="80" y="521"/>
      <point x="73" y="533" type="curve" smooth="yes"/>
      <point x="65" y="546"/>
      <point x="68" y="554"/>
      <point x="76" y="563" type="curve" smooth="yes"/>
      <point x="119" y="610"/>
      <point x="182" y="654"/>
      <point x="260" y="654" type="curve" smooth="yes"/>
      <point x="364" y="654"/>
      <point x="441" y="600"/>
      <point x="441" y="487" type="curve" smooth="yes"/>
      <point x="441" y="371"/>
      <point x="380" y="289"/>
      <point x="164" y="90" type="curve" smooth="yes"/>
      <point x="155" y="82"/>
      <point x="157" y="74"/>
      <point x="168" y="73" type="curve" smooth="yes"/>
      <point x="214" y="68"/>
      <point x="240" y="66"/>
      <point x="277" y="66" type="curve" smooth="yes"/>
      <point x="396" y="66"/>
      <point x="413" y="79"/>
      <point x="440" y="116" type="curve" smooth="yes"/>
      <point x="448" y="127"/>
      <point x="455" y="131"/>
      <point x="462" y="129" type="curve"/>
      <point x="475" y="124"/>
      <point x="477" y="119"/>
    </contour>
  </outline>
</glyph>
<glyph name="three" format="1">
  <advance width="453"/>
  <unicode hex="0033"/>
  <outline>
    <contour>
      <point x="403" y="220" type="curve" smooth="yes"/>
      <point x="403" y="66"/>
      <point x="266" y="-13"/>
      <point x="111" y="-13" type="curve" smooth="yes"/>
      <point x="82" y="-13"/>
      <point x="61" y="-11"/>
      <point x="37" y="-7" type="curve" smooth="yes"/>
      <point x="26" y="-5"/>
      <point x="22" y="0"/>
      <point x="24" y="13" type="curve" smooth="yes"/>
      <point x="26" y="29"/>
      <point x="31" y="33"/>
      <point x="45" y="32" type="curve" smooth="yes"/>
      <point x="60" y="30"/>
      <point x="91" y="26"/>
      <point x="115" y="26" type="curve" smooth="yes"/>
      <point x="225" y="26"/>
      <point x="309" y="85"/>
      <point x="309" y="192" type="curve" smooth="yes"/>
      <point x="309" y="280"/>
      <point x="249" y="324"/>
      <point x="167" y="324" type="curve" smooth="yes"/>
      <point x="156" y="324"/>
      <point x="151" y="325"/>
      <point x="141" y="324" type="curve" smooth="yes"/>
      <point x="134" y="323"/>
      <point x="129" y="326"/>
      <point x="125" y="337" type="curve" smooth="yes"/>
      <point x="121" y="346"/>
      <point x="127" y="353"/>
      <point x="135" y="357" type="curve" smooth="yes"/>
      <point x="249" y="412"/>
      <point x="289" y="443"/>
      <point x="289" y="507" type="curve" smooth="yes"/>
      <point x="289" y="562"/>
      <point x="256" y="599"/>
      <point x="188" y="599" type="curve" smooth="yes"/>
      <point x="141" y="599"/>
      <point x="103" y="590"/>
      <point x="69" y="571" type="curve" smooth="yes"/>
      <point x="60" y="566"/>
      <point x="56" y="565"/>
      <point x="45" y="578" type="curve"/>
      <point x="39" y="587"/>
      <point x="41" y="592"/>
      <point x="54" y="602" type="curve" smooth="yes"/>
      <point x="98" y="633"/>
      <point x="159" y="651"/>
      <point x="212" y="651" type="curve" smooth="yes"/>
      <point x="314" y="651"/>
      <point x="384" y="609"/>
      <point x="384" y="529" type="curve" smooth="yes"/>
      <point x="384" y="457"/>
      <point x="334" y="414"/>
      <point x="249" y="372" type="curve"/>
      <point x="340" y="364"/>
      <point x="403" y="313"/>
    </contour>
  </outline>
</glyph>
<glyph name="four" format="1">
  <advance width="551"/>
  <unicode hex="0034"/>
  <outline>
    <contour>
      <point x="526" y="282" type="curve" smooth="yes"/>
      <point x="535" y="280"/>
      <point x="537" y="275"/>
      <point x="520" y="210" type="curve" smooth="yes"/>
      <point x="515" y="192"/>
      <point x="510" y="174"/>
      <point x="493" y="176" type="curve" smooth="yes"/>
      <point x="464" y="179"/>
      <point x="434" y="180"/>
      <point x="410" y="181" type="curve"/>
      <point x="410" y="156"/>
      <point x="410" y="121"/>
      <point x="412" y="21" type="curve" smooth="yes"/>
      <point x="412" y="9"/>
      <point x="400" y="3"/>
      <point x="363" y="-7" type="curve" smooth="yes"/>
      <point x="336" y="-15"/>
      <point x="327" y="-14"/>
      <point x="327" y="-3" type="curve" smooth="yes"/>
      <point x="328" y="60"/>
      <point x="332" y="143"/>
      <point x="332" y="182" type="curve"/>
      <point x="259" y="187"/>
      <point x="125" y="189"/>
      <point x="38" y="192" type="curve" smooth="yes"/>
      <point x="29" y="192"/>
      <point x="24" y="217"/>
      <point x="32" y="227" type="curve" smooth="yes"/>
      <point x="253" y="482"/>
      <point x="340" y="606"/>
      <point x="365" y="654" type="curve" smooth="yes"/>
      <point x="371" y="665"/>
      <point x="403" y="653"/>
      <point x="413" y="649" type="curve"/>
      <point x="424" y="646"/>
      <point x="418" y="636"/>
      <point x="416" y="623" type="curve" smooth="yes"/>
      <point x="412" y="597"/>
      <point x="411" y="550"/>
      <point x="411" y="539" type="curve" smooth="yes"/>
      <point x="411" y="408"/>
      <point x="411" y="236"/>
      <point x="411" y="236" type="curve"/>
      <point x="434" y="236"/>
      <point x="442" y="236"/>
      <point x="457" y="239" type="curve" smooth="yes"/>
      <point x="481" y="243"/>
      <point x="498" y="256"/>
      <point x="507" y="274" type="curve" smooth="yes"/>
      <point x="511" y="282"/>
      <point x="515" y="284"/>
    </contour>
    <contour>
      <point x="330" y="240" type="line"/>
      <point x="330" y="240"/>
      <point x="330" y="471"/>
      <point x="330" y="530" type="curve"/>
      <point x="288" y="468"/>
      <point x="158" y="301"/>
      <point x="114" y="245" type="curve"/>
    </contour>
  </outline>
</glyph>
<glyph name="five" format="1">
  <advance width="460"/>
  <unicode hex="0035"/>
  <outline>
    <contour>
      <point x="424" y="672" type="curve" smooth="yes"/>
      <point x="418" y="658"/>
      <point x="405" y="616"/>
      <point x="399" y="591" type="curve" smooth="yes"/>
      <point x="390" y="556"/>
      <point x="378" y="556"/>
      <point x="350" y="561" type="curve" smooth="yes"/>
      <point x="322" y="566"/>
      <point x="278" y="573"/>
      <point x="169" y="568" type="curve" smooth="yes"/>
      <point x="152" y="567"/>
      <point x="147" y="563"/>
      <point x="144" y="547" type="curve" smooth="yes"/>
      <point x="139" y="526"/>
      <point x="130" y="475"/>
      <point x="124" y="444" type="curve"/>
      <point x="304" y="419"/>
      <point x="407" y="358"/>
      <point x="407" y="223" type="curve" smooth="yes"/>
      <point x="407" y="73"/>
      <point x="275" y="-6"/>
      <point x="116" y="-6" type="curve" smooth="yes"/>
      <point x="83" y="-6"/>
      <point x="55" y="-2"/>
      <point x="34" y="4" type="curve" smooth="yes"/>
      <point x="27" y="6"/>
      <point x="22" y="13"/>
      <point x="26" y="25" type="curve" smooth="yes"/>
      <point x="32" y="43"/>
      <point x="38" y="45"/>
      <point x="46" y="43" type="curve" smooth="yes"/>
      <point x="65" y="39"/>
      <point x="89" y="37"/>
      <point x="128" y="37" type="curve" smooth="yes"/>
      <point x="239" y="37"/>
      <point x="322" y="96"/>
      <point x="322" y="197" type="curve" smooth="yes"/>
      <point x="322" y="297"/>
      <point x="252" y="345"/>
      <point x="80" y="369" type="curve" smooth="yes"/>
      <point x="70" y="370"/>
      <point x="67" y="376"/>
      <point x="68" y="388" type="curve" smooth="yes"/>
      <point x="74" y="436"/>
      <point x="94" y="576"/>
      <point x="99" y="614" type="curve" smooth="yes"/>
      <point x="101" y="631"/>
      <point x="115" y="633"/>
      <point x="130" y="633" type="curve" smooth="yes"/>
      <point x="196" y="635"/>
      <point x="233" y="636"/>
      <point x="295" y="639" type="curve" smooth="yes"/>
      <point x="346" y="641"/>
      <point x="364" y="647"/>
      <point x="381" y="669" type="curve" smooth="yes"/>
      <point x="394" y="686"/>
      <point x="399" y="691"/>
      <point x="416" y="685" type="curve" smooth="yes"/>
      <point x="422" y="683"/>
      <point x="427" y="679"/>
    </contour>
  </outline>
</glyph>
<glyph name="six" format="1">
  <advance width="539"/>
  <unicode hex="0036"/>
  <outline>
    <contour>
      <point x="488" y="199" type="curve" smooth="yes"/>
      <point x="488" y="70"/>
      <point x="384" y="-14"/>
      <point x="274" y="-14" type="curve" smooth="yes"/>
      <point x="162" y="-14"/>
      <point x="57" y="60"/>
      <point x="57" y="224" type="curve" smooth="yes"/>
      <point x="57" y="424"/>
      <point x="212" y="584"/>
      <point x="382" y="661" type="curve" smooth="yes"/>
      <point x="388" y="664"/>
      <point x="393" y="662"/>
      <point x="399" y="650" type="curve" smooth="yes"/>
      <point x="406" y="637"/>
      <point x="404" y="632"/>
      <point x="390" y="624" type="curve" smooth="yes"/>
      <point x="270" y="552"/>
      <point x="183" y="442"/>
      <point x="166" y="346" type="curve"/>
      <point x="198" y="371"/>
      <point x="236" y="387"/>
      <point x="293" y="387" type="curve" smooth="yes"/>
      <point x="400" y="387"/>
      <point x="488" y="320"/>
    </contour>
    <contour>
      <point x="397" y="183" type="curve" smooth="yes"/>
      <point x="397" y="277"/>
      <point x="349" y="342"/>
      <point x="270" y="342" type="curve" smooth="yes"/>
      <point x="201" y="342"/>
      <point x="142" y="286"/>
      <point x="142" y="195" type="curve" smooth="yes"/>
      <point x="142" y="88"/>
      <point x="204" y="31"/>
      <point x="273" y="31" type="curve" smooth="yes"/>
      <point x="339" y="31"/>
      <point x="397" y="85"/>
    </contour>
  </outline>
</glyph>
<glyph name="seven" format="1">
  <advance width="511"/>
  <unicode hex="0037"/>
  <outline>
    <contour>
      <point x="473" y="619" type="curve"/>
      <point x="434" y="570"/>
      <point x="286" y="203"/>
      <point x="215" y="11" type="curve" smooth="yes"/>
      <point x="211" y="1"/>
      <point x="136" y="-9"/>
      <point x="119" y="-11" type="curve" smooth="yes"/>
      <point x="108" y="-12"/>
      <point x="99" y="-6"/>
      <point x="103" y="0" type="curve" smooth="yes"/>
      <point x="173" y="106"/>
      <point x="262" y="274"/>
      <point x="371" y="551" type="curve" smooth="yes"/>
      <point x="377" y="566"/>
      <point x="374" y="574"/>
      <point x="356" y="574" type="curve" smooth="yes"/>
      <point x="319" y="574"/>
      <point x="137" y="563"/>
      <point x="68" y="553" type="curve" smooth="yes"/>
      <point x="58" y="552"/>
      <point x="52" y="553"/>
      <point x="52" y="559" type="curve" smooth="yes"/>
      <point x="52" y="567"/>
      <point x="64" y="593"/>
      <point x="75" y="616" type="curve" smooth="yes"/>
      <point x="80" y="626"/>
      <point x="91" y="647"/>
      <point x="96" y="657" type="curve" smooth="yes"/>
      <point x="99" y="663"/>
      <point x="101" y="667"/>
      <point x="107" y="667" type="curve" smooth="yes"/>
      <point x="117" y="667"/>
      <point x="121" y="665"/>
      <point x="127" y="657" type="curve" smooth="yes"/>
      <point x="136" y="645"/>
      <point x="149" y="638"/>
      <point x="183" y="637" type="curve" smooth="yes"/>
      <point x="282" y="634"/>
      <point x="382" y="634"/>
      <point x="463" y="633" type="curve" smooth="yes"/>
      <point x="474" y="633"/>
      <point x="477" y="626"/>
    </contour>
  </outline>
</glyph>
<glyph name="eight" format="1">
  <advance width="516"/>
  <unicode hex="0038"/>
  <outline>
    <contour>
      <point x="468" y="171" type="curve" smooth="yes"/>
      <point x="468" y="59"/>
      <point x="372" y="-11"/>
      <point x="256" y="-11" type="curve" smooth="yes"/>
      <point x="132" y="-11"/>
      <point x="48" y="55"/>
      <point x="48" y="154" type="curve" smooth="yes"/>
      <point x="48" y="230"/>
      <point x="105" y="289"/>
      <point x="190" y="335" type="curve"/>
      <point x="119" y="373"/>
      <point x="75" y="424"/>
      <point x="75" y="494" type="curve" smooth="yes"/>
      <point x="75" y="592"/>
      <point x="159" y="653"/>
      <point x="263" y="653" type="curve" smooth="yes"/>
      <point x="369" y="653"/>
      <point x="441" y="601"/>
      <point x="441" y="508" type="curve" smooth="yes"/>
      <point x="441" y="435"/>
      <point x="385" y="388"/>
      <point x="326" y="356" type="curve"/>
      <point x="416" y="308"/>
      <point x="468" y="250"/>
    </contour>
    <contour>
      <point x="369" y="504" type="curve" smooth="yes"/>
      <point x="369" y="565"/>
      <point x="332" y="610"/>
      <point x="261" y="610" type="curve" smooth="yes"/>
      <point x="190" y="610"/>
      <point x="151" y="568"/>
      <point x="151" y="509" type="curve" smooth="yes"/>
      <point x="151" y="458"/>
      <point x="188" y="420"/>
      <point x="280" y="378" type="curve"/>
      <point x="336" y="407"/>
      <point x="369" y="448"/>
    </contour>
    <contour>
      <point x="382" y="156" type="curve" smooth="yes"/>
      <point x="382" y="218"/>
      <point x="333" y="267"/>
      <point x="236" y="313" type="curve"/>
      <point x="167" y="276"/>
      <point x="127" y="226"/>
      <point x="127" y="163" type="curve" smooth="yes"/>
      <point x="127" y="89"/>
      <point x="176" y="32"/>
      <point x="261" y="32" type="curve" smooth="yes"/>
      <point x="325" y="32"/>
      <point x="382" y="69"/>
    </contour>
  </outline>
</glyph>
<glyph name="nine" format="1">
  <advance width="539"/>
  <unicode hex="0039"/>
  <outline>
    <contour>
      <point x="482" y="417" type="curve" smooth="yes"/>
      <point x="482" y="217"/>
      <point x="327" y="57"/>
      <point x="157" y="-20" type="curve" smooth="yes"/>
      <point x="151" y="-23"/>
      <point x="146" y="-21"/>
      <point x="140" y="-9" type="curve" smooth="yes"/>
      <point x="133" y="4"/>
      <point x="135" y="9"/>
      <point x="149" y="17" type="curve" smooth="yes"/>
      <point x="246" y="75"/>
      <point x="349" y="184"/>
      <point x="368" y="275" type="curve"/>
      <point x="331" y="243"/>
      <point x="293" y="234"/>
      <point x="246" y="234" type="curve" smooth="yes"/>
      <point x="145" y="234"/>
      <point x="51" y="302"/>
      <point x="51" y="432" type="curve" smooth="yes"/>
      <point x="51" y="564"/>
      <point x="152" y="655"/>
      <point x="265" y="655" type="curve" smooth="yes"/>
      <point x="381" y="655"/>
      <point x="482" y="576"/>
    </contour>
    <contour>
      <point x="397" y="436" type="curve" smooth="yes"/>
      <point x="397" y="535"/>
      <point x="348" y="609"/>
      <point x="263" y="609" type="curve" smooth="yes"/>
      <point x="189" y="609"/>
      <point x="142" y="543"/>
      <point x="142" y="452" type="curve" smooth="yes"/>
      <point x="142" y="354"/>
      <point x="187" y="279"/>
      <point x="269" y="279" type="curve" smooth="yes"/>
      <point x="338" y="279"/>
      <point x="397" y="331"/>
    </contour>
  </outline>
</glyph>
<glyph name="colon" format="1">
  <advance width="246"/>
  <unicode hex="003A"/>
  <outline>
    <contour>
      <point x="187" y="324" type="curve" smooth="yes"/>
      <point x="187" y="284"/>
      <point x="159" y="252"/>
      <point x="125" y="252" type="curve" smooth="yes"/>
      <point x="83" y="252"/>
      <point x="68" y="273"/>
      <point x="68" y="315" type="curve" smooth="yes"/>
      <point x="68" y="354"/>
      <point x="100" y="383"/>
      <point x="132" y="383" type="curve" smooth="yes"/>
      <point x="172" y="383"/>
      <point x="187" y="366"/>
    </contour>
    <contour>
      <point x="182" y="58" type="curve" smooth="yes"/>
      <point x="182" y="18"/>
      <point x="154" y="-14"/>
      <point x="119" y="-14" type="curve" smooth="yes"/>
      <point x="79" y="-14"/>
      <point x="63" y="8"/>
      <point x="63" y="50" type="curve" smooth="yes"/>
      <point x="63" y="89"/>
      <point x="94" y="118"/>
      <point x="128" y="118" type="curve" smooth="yes"/>
      <point x="167" y="118"/>
      <point x="182" y="100"/>
    </contour>
  </outline>
</glyph>
<glyph name="less" format="1">
  <advance width="452"/>
  <unicode hex="003C"/>
  <outline>
    <contour>
      <point x="379" y="50" type="curve" smooth="yes"/>
      <point x="371" y="41"/>
      <point x="364" y="42"/>
      <point x="351" y="53" type="curve" smooth="yes"/>
      <point x="65" y="283" type="line" smooth="yes"/>
      <point x="50" y="295"/>
      <point x="50" y="307"/>
      <point x="65" y="319" type="curve" smooth="yes"/>
      <point x="350" y="548" type="line" smooth="yes"/>
      <point x="365" y="560"/>
      <point x="371" y="562"/>
      <point x="378" y="553" type="curve" smooth="yes"/>
      <point x="386" y="542"/>
      <point x="383" y="536"/>
      <point x="365" y="517" type="curve" smooth="yes"/>
      <point x="160" y="301" type="line"/>
      <point x="368" y="82" type="line" smooth="yes"/>
      <point x="385" y="65"/>
      <point x="386" y="58"/>
    </contour>
  </outline>
</glyph>
<glyph name="equal" format="1">
  <advance width="529"/>
  <unicode hex="003D"/>
  <outline>
    <contour>
      <point x="437" y="409" type="curve" smooth="yes"/>
      <point x="437" y="393"/>
      <point x="424" y="373"/>
      <point x="407" y="373" type="curve" smooth="yes"/>
      <point x="311" y="373"/>
      <point x="176" y="373"/>
      <point x="102" y="373" type="curve" smooth="yes"/>
      <point x="94" y="373"/>
      <point x="93" y="382"/>
      <point x="93" y="390" type="curve" smooth="yes"/>
      <point x="93" y="413"/>
      <point x="106" y="418"/>
      <point x="121" y="418" type="curve" smooth="yes"/>
      <point x="202" y="418"/>
      <point x="336" y="418"/>
      <point x="428" y="418" type="curve" smooth="yes"/>
      <point x="434" y="418"/>
      <point x="437" y="416"/>
    </contour>
    <contour>
      <point x="437" y="236" type="curve" smooth="yes"/>
      <point x="437" y="220"/>
      <point x="424" y="200"/>
      <point x="407" y="200" type="curve" smooth="yes"/>
      <point x="311" y="200"/>
      <point x="176" y="200"/>
      <point x="102" y="200" type="curve" smooth="yes"/>
      <point x="94" y="200"/>
      <point x="93" y="209"/>
      <point x="93" y="218" type="curve" smooth="yes"/>
      <point x="93" y="240"/>
      <point x="106" y="246"/>
      <point x="121" y="246" type="curve" smooth="yes"/>
      <point x="202" y="246"/>
      <point x="336" y="246"/>
      <point x="428" y="246" type="curve" smooth="yes"/>
      <point x="434" y="246"/>
      <point x="437" y="244"/>
    </contour>
  </outline>
</glyph>
<glyph name="greater" format="1">
  <advance width="452"/>
  <unicode hex="003E"/>
  <outline>
    <contour>
      <point x="387" y="284" type="curve" smooth="yes"/>
      <point x="102" y="55" type="line" smooth="yes"/>
      <point x="87" y="43"/>
      <point x="81" y="41"/>
      <point x="74" y="50" type="curve" smooth="yes"/>
      <point x="66" y="61"/>
      <point x="69" y="67"/>
      <point x="87" y="86" type="curve" smooth="yes"/>
      <point x="292" y="302" type="line"/>
      <point x="84" y="521" type="line" smooth="yes"/>
      <point x="67" y="538"/>
      <point x="66" y="545"/>
      <point x="73" y="553" type="curve" smooth="yes"/>
      <point x="81" y="562"/>
      <point x="88" y="561"/>
      <point x="101" y="550" type="curve" smooth="yes"/>
      <point x="387" y="320" type="line" smooth="yes"/>
      <point x="402" y="308"/>
      <point x="402" y="296"/>
    </contour>
  </outline>
</glyph>
<glyph name="question" format="1">
  <advance width="388"/>
  <unicode hex="003F"/>
  <outline>
    <contour>
      <point x="357" y="453" type="curve" smooth="yes"/>
      <point x="357" y="348"/>
      <point x="297" y="325"/>
      <point x="183" y="294" type="curve" smooth="yes"/>
      <point x="169" y="290"/>
      <point x="163" y="281"/>
      <point x="161" y="269" type="curve" smooth="yes"/>
      <point x="159" y="259"/>
      <point x="155" y="237"/>
      <point x="150" y="216" type="curve" smooth="yes"/>
      <point x="147" y="205"/>
      <point x="142" y="199"/>
      <point x="127" y="193" type="curve" smooth="yes"/>
      <point x="112" y="188"/>
      <point x="108" y="193"/>
      <point x="108" y="205" type="curve" smooth="yes"/>
      <point x="108" y="241"/>
      <point x="107" y="302"/>
      <point x="103" y="336" type="curve" smooth="yes"/>
      <point x="100" y="360"/>
      <point x="104" y="369"/>
      <point x="127" y="369" type="curve" smooth="yes"/>
      <point x="280" y="369"/>
      <point x="305" y="398"/>
      <point x="305" y="453" type="curve" smooth="yes"/>
      <point x="305" y="537"/>
      <point x="250" y="591"/>
      <point x="182" y="591" type="curve" smooth="yes"/>
      <point x="159" y="591"/>
      <point x="148" y="583"/>
      <point x="128" y="555" type="curve" smooth="yes"/>
      <point x="119" y="543"/>
      <point x="106" y="535"/>
      <point x="93" y="535" type="curve" smooth="yes"/>
      <point x="69" y="535"/>
      <point x="50" y="562"/>
      <point x="50" y="605" type="curve" smooth="yes"/>
      <point x="50" y="630"/>
      <point x="86" y="654"/>
      <point x="148" y="654" type="curve" smooth="yes"/>
      <point x="268" y="654"/>
      <point x="357" y="558"/>
    </contour>
    <contour>
      <point x="186" y="53" type="curve" smooth="yes"/>
      <point x="186" y="16"/>
      <point x="160" y="-13"/>
      <point x="129" y="-13" type="curve" smooth="yes"/>
      <point x="93" y="-13"/>
      <point x="78" y="6"/>
      <point x="78" y="44" type="curve" smooth="yes"/>
      <point x="78" y="80"/>
      <point x="106" y="107"/>
      <point x="137" y="107" type="curve" smooth="yes"/>
      <point x="172" y="107"/>
      <point x="186" y="91"/>
    </contour>
  </outline>
</glyph>
<glyph name="at" format="1">
  <advance width="980"/>
  <unicode hex="0040"/>
  <outline>
    <contour>
      <point x="916" y="298" type="curve" smooth="yes"/>
      <point x="916" y="115"/>
      <point x="816" y="28"/>
      <point x="712" y="28" type="curve" smooth="yes"/>
      <point x="632" y="28"/>
      <point x="580" y="71"/>
      <point x="578" y="150" type="curve" smooth="yes"/>
      <point x="578" y="160"/>
      <point x="566" y="164"/>
      <point x="559" y="153" type="curve" smooth="yes"/>
      <point x="526" y="100"/>
      <point x="468" y="28"/>
      <point x="405" y="28" type="curve" smooth="yes"/>
      <point x="342" y="28"/>
      <point x="303" y="76"/>
      <point x="303" y="160" type="curve" smooth="yes"/>
      <point x="303" y="246"/>
      <point x="336" y="317"/>
      <point x="377" y="365" type="curve" smooth="yes"/>
      <point x="435" y="432"/>
      <point x="483" y="454"/>
      <point x="527" y="454" type="curve" smooth="yes"/>
      <point x="560" y="454"/>
      <point x="591" y="447"/>
      <point x="609" y="441" type="curve" smooth="yes"/>
      <point x="636" y="431"/>
      <point x="643" y="433"/>
      <point x="650" y="441" type="curve"/>
      <point x="673" y="463"/>
      <point x="676" y="466"/>
      <point x="686" y="459" type="curve"/>
      <point x="695" y="455"/>
      <point x="694" y="449"/>
      <point x="683" y="417" type="curve" smooth="yes"/>
      <point x="658" y="341"/>
      <point x="641" y="228"/>
      <point x="641" y="185" type="curve" smooth="yes"/>
      <point x="641" y="112"/>
      <point x="674" y="70"/>
      <point x="734" y="70" type="curve" smooth="yes"/>
      <point x="800" y="70"/>
      <point x="875" y="138"/>
      <point x="875" y="287" type="curve" smooth="yes"/>
      <point x="875" y="518"/>
      <point x="740" y="625"/>
      <point x="515" y="625" type="curve" smooth="yes"/>
      <point x="298" y="625"/>
      <point x="139" y="454"/>
      <point x="139" y="223" type="curve" smooth="yes"/>
      <point x="139" y="-13"/>
      <point x="286" y="-166"/>
      <point x="525" y="-166" type="curve" smooth="yes"/>
      <point x="617" y="-166"/>
      <point x="721" y="-131"/>
      <point x="808" y="-84" type="curve" smooth="yes"/>
      <point x="819" y="-78"/>
      <point x="841" y="-126"/>
      <point x="833" y="-129" type="curve" smooth="yes"/>
      <point x="720" y="-175"/>
      <point x="620" y="-196"/>
      <point x="516" y="-196" type="curve" smooth="yes"/>
      <point x="242" y="-196"/>
      <point x="62" y="-50"/>
      <point x="62" y="215" type="curve" smooth="yes"/>
      <point x="62" y="468"/>
      <point x="264" y="656"/>
      <point x="523" y="656" type="curve" smooth="yes"/>
      <point x="755" y="656"/>
      <point x="916" y="535"/>
    </contour>
    <contour>
      <point x="594" y="346" type="curve" smooth="yes"/>
      <point x="594" y="391"/>
      <point x="549" y="406"/>
      <point x="504" y="406" type="curve" smooth="yes"/>
      <point x="438" y="406"/>
      <point x="379" y="324"/>
      <point x="379" y="180" type="curve" smooth="yes"/>
      <point x="379" y="118"/>
      <point x="401" y="89"/>
      <point x="441" y="89" type="curve" smooth="yes"/>
      <point x="513" y="89"/>
      <point x="594" y="261"/>
    </contour>
  </outline>
</glyph>
<glyph name="B" format="1">
  <advance width="641"/>
  <unicode hex="0042"/>
  <outline>
    <contour>
      <point x="574" y="181" type="curve" smooth="yes"/>
      <point x="574" y="50"/>
      <point x="466" y="-4"/>
      <point x="316" y="-4" type="curve" smooth="yes"/>
      <point x="284" y="-4"/>
      <point x="228" y="2"/>
      <point x="173" y="2" type="curve" smooth="yes"/>
      <point x="145" y="2"/>
      <point x="118" y="1"/>
      <point x="94" y="-4" type="curve" smooth="yes"/>
      <point x="79" y="-7"/>
      <point x="76" y="-6"/>
      <point x="73" y="6" type="curve" smooth="yes"/>
      <point x="71" y="16"/>
      <point x="73" y="19"/>
      <point x="94" y="28" type="curve" smooth="yes"/>
      <point x="126" y="41"/>
      <point x="142" y="49"/>
      <point x="142" y="90" type="curve" smooth="yes"/>
      <point x="142" y="548" type="line" smooth="yes"/>
      <point x="142" y="584"/>
      <point x="119" y="599"/>
      <point x="88" y="605" type="curve" smooth="yes"/>
      <point x="65" y="610"/>
      <point x="61" y="611"/>
      <point x="61" y="622" type="curve" smooth="yes"/>
      <point x="61" y="640"/>
      <point x="65" y="643"/>
      <point x="91" y="639" type="curve" smooth="yes"/>
      <point x="108" y="637"/>
      <point x="133" y="636"/>
      <point x="161" y="636" type="curve" smooth="yes"/>
      <point x="211" y="636"/>
      <point x="290" y="639"/>
      <point x="323" y="639" type="curve" smooth="yes"/>
      <point x="436" y="639"/>
      <point x="525" y="597"/>
      <point x="525" y="492" type="curve" smooth="yes"/>
      <point x="525" y="418"/>
      <point x="469" y="375"/>
      <point x="404" y="354" type="curve" smooth="yes"/>
      <point x="397" y="352"/>
      <point x="398" y="348"/>
      <point x="405" y="347" type="curve" smooth="yes"/>
      <point x="485" y="333"/>
      <point x="574" y="292"/>
    </contour>
    <contour>
      <point x="426" y="484" type="curve" smooth="yes"/>
      <point x="426" y="569"/>
      <point x="385" y="605"/>
      <point x="290" y="605" type="curve" smooth="yes"/>
      <point x="235" y="605"/>
      <point x="228" y="599"/>
      <point x="228" y="578" type="curve" smooth="yes"/>
      <point x="228" y="366" type="line"/>
      <point x="245" y="366"/>
      <point x="252" y="366"/>
      <point x="271" y="366" type="curve" smooth="yes"/>
      <point x="378" y="366"/>
      <point x="426" y="399"/>
    </contour>
    <contour>
      <point x="474" y="170" type="curve" smooth="yes"/>
      <point x="474" y="286"/>
      <point x="388" y="327"/>
      <point x="299" y="327" type="curve" smooth="yes"/>
      <point x="275" y="327"/>
      <point x="250" y="326"/>
      <point x="228" y="322" type="curve"/>
      <point x="228" y="80" type="line" smooth="yes"/>
      <point x="228" y="49"/>
      <point x="262" y="33"/>
      <point x="325" y="33" type="curve" smooth="yes"/>
      <point x="429" y="33"/>
      <point x="474" y="80"/>
    </contour>
  </outline>
</glyph>
<glyph name="C" format="1">
  <advance width="747"/>
  <unicode hex="0043"/>
  <outline>
    <contour>
      <point x="680" y="159" type="curve" smooth="yes"/>
      <point x="677" y="131"/>
      <point x="670" y="84"/>
      <point x="659" y="54" type="curve" smooth="yes"/>
      <point x="647" y="22"/>
      <point x="550" y="-14"/>
      <point x="420" y="-14" type="curve" smooth="yes"/>
      <point x="218" y="-14"/>
      <point x="61" y="119"/>
      <point x="61" y="315" type="curve" smooth="yes"/>
      <point x="61" y="517"/>
      <point x="227" y="656"/>
      <point x="417" y="656" type="curve" smooth="yes"/>
      <point x="503" y="656"/>
      <point x="552" y="645"/>
      <point x="591" y="631" type="curve" smooth="yes"/>
      <point x="634" y="616"/>
      <point x="654" y="606"/>
      <point x="656" y="590" type="curve" smooth="yes"/>
      <point x="660" y="561"/>
      <point x="661" y="505"/>
      <point x="661" y="469" type="curve" smooth="yes"/>
      <point x="661" y="458"/>
      <point x="649" y="454"/>
      <point x="636" y="453" type="curve" smooth="yes"/>
      <point x="621" y="451"/>
      <point x="615" y="458"/>
      <point x="613" y="465" type="curve" smooth="yes"/>
      <point x="578" y="575"/>
      <point x="530" y="613"/>
      <point x="414" y="613" type="curve" smooth="yes"/>
      <point x="277" y="613"/>
      <point x="163" y="516"/>
      <point x="163" y="327" type="curve" smooth="yes"/>
      <point x="163" y="145"/>
      <point x="280" y="28"/>
      <point x="436" y="28" type="curve" smooth="yes"/>
      <point x="541" y="28"/>
      <point x="592" y="71"/>
      <point x="627" y="165" type="curve" smooth="yes"/>
      <point x="632" y="179"/>
      <point x="639" y="185"/>
      <point x="662" y="180" type="curve" smooth="yes"/>
      <point x="679" y="176"/>
      <point x="681" y="174"/>
    </contour>
  </outline>
</glyph>
<glyph name="D" format="1">
  <advance width="804"/>
  <unicode hex="0044"/>
  <outline>
    <contour>
      <point x="743" y="333" type="curve" smooth="yes"/>
      <point x="743" y="98"/>
      <point x="578" y="-6"/>
      <point x="339" y="-6" type="curve" smooth="yes"/>
      <point x="303" y="-6"/>
      <point x="238" y="0"/>
      <point x="183" y="0" type="curve" smooth="yes"/>
      <point x="155" y="0"/>
      <point x="126" y="-1"/>
      <point x="94" y="-4" type="curve" smooth="yes"/>
      <point x="77" y="-5"/>
      <point x="73" y="-2"/>
      <point x="73" y="13" type="curve" smooth="yes"/>
      <point x="73" y="23"/>
      <point x="77" y="26"/>
      <point x="94" y="28" type="curve" smooth="yes"/>
      <point x="116" y="30"/>
      <point x="142" y="36"/>
      <point x="142" y="80" type="curve" smooth="yes"/>
      <point x="142" y="548" type="line" smooth="yes"/>
      <point x="142" y="581"/>
      <point x="135" y="589"/>
      <point x="93" y="597" type="curve" smooth="yes"/>
      <point x="60" y="604"/>
      <point x="58" y="605"/>
      <point x="56" y="620" type="curve" smooth="yes"/>
      <point x="55" y="634"/>
      <point x="60" y="635"/>
      <point x="88" y="637" type="curve" smooth="yes"/>
      <point x="135" y="640"/>
      <point x="254" y="644"/>
      <point x="366" y="644" type="curve" smooth="yes"/>
      <point x="586" y="644"/>
      <point x="743" y="532"/>
    </contour>
    <contour>
      <point x="641" y="320" type="curve" smooth="yes"/>
      <point x="641" y="508"/>
      <point x="540" y="603"/>
      <point x="350" y="603" type="curve" smooth="yes"/>
      <point x="240" y="603"/>
      <point x="228" y="596"/>
      <point x="228" y="573" type="curve" smooth="yes"/>
      <point x="228" y="120" type="line" smooth="yes"/>
      <point x="228" y="57"/>
      <point x="253" y="40"/>
      <point x="355" y="40" type="curve" smooth="yes"/>
      <point x="534" y="40"/>
      <point x="641" y="126"/>
    </contour>
  </outline>
</glyph>
<glyph name="E" format="1">
  <advance width="618"/>
  <unicode hex="0045"/>
  <outline>
    <contour>
      <point x="560" y="122" type="curve" smooth="yes"/>
      <point x="552" y="89"/>
      <point x="545" y="40"/>
      <point x="542" y="5" type="curve" smooth="yes"/>
      <point x="542" y="-2"/>
      <point x="536" y="-4"/>
      <point x="512" y="-3" type="curve" smooth="yes"/>
      <point x="460" y="0"/>
      <point x="389" y="1"/>
      <point x="318" y="1" type="curve" smooth="yes"/>
      <point x="236" y="1"/>
      <point x="152" y="-1"/>
      <point x="94" y="-4" type="curve" smooth="yes"/>
      <point x="77" y="-5"/>
      <point x="73" y="-2"/>
      <point x="73" y="13" type="curve" smooth="yes"/>
      <point x="73" y="23"/>
      <point x="77" y="26"/>
      <point x="94" y="28" type="curve" smooth="yes"/>
      <point x="131" y="32"/>
      <point x="142" y="36"/>
      <point x="142" y="80" type="curve" smooth="yes"/>
      <point x="142" y="530" type="line" smooth="yes"/>
      <point x="142" y="591"/>
      <point x="137" y="595"/>
      <point x="88" y="611" type="curve" smooth="yes"/>
      <point x="71" y="616"/>
      <point x="69" y="623"/>
      <point x="73" y="635" type="curve" smooth="yes"/>
      <point x="76" y="647"/>
      <point x="79" y="647"/>
      <point x="107" y="643" type="curve" smooth="yes"/>
      <point x="129" y="639"/>
      <point x="195" y="638"/>
      <point x="270" y="638" type="curve" smooth="yes"/>
      <point x="351" y="638"/>
      <point x="441" y="641"/>
      <point x="496" y="644" type="curve" smooth="yes"/>
      <point x="520" y="646"/>
      <point x="531" y="648"/>
      <point x="527" y="635" type="curve"/>
      <point x="521" y="607"/>
      <point x="517" y="562"/>
      <point x="518" y="525" type="curve" smooth="yes"/>
      <point x="518" y="514"/>
      <point x="514" y="510"/>
      <point x="504" y="510" type="curve" smooth="yes"/>
      <point x="497" y="510"/>
      <point x="490" y="512"/>
      <point x="485" y="523" type="curve" smooth="yes"/>
      <point x="470" y="561"/>
      <point x="459" y="586"/>
      <point x="416" y="593" type="curve" smooth="yes"/>
      <point x="389" y="598"/>
      <point x="293" y="597"/>
      <point x="251" y="597" type="curve" smooth="yes"/>
      <point x="227" y="597"/>
      <point x="228" y="590"/>
      <point x="228" y="577" type="curve" smooth="yes"/>
      <point x="228" y="577"/>
      <point x="228" y="430"/>
      <point x="228" y="373" type="curve" smooth="yes"/>
      <point x="228" y="362"/>
      <point x="229" y="361"/>
      <point x="242" y="361" type="curve" smooth="yes"/>
      <point x="281" y="362"/>
      <point x="332" y="362"/>
      <point x="371" y="367" type="curve" smooth="yes"/>
      <point x="392" y="369"/>
      <point x="397" y="384"/>
      <point x="404" y="422" type="curve" smooth="yes"/>
      <point x="407" y="436"/>
      <point x="414" y="441"/>
      <point x="427" y="437" type="curve"/>
      <point x="438" y="435"/>
      <point x="443" y="432"/>
      <point x="441" y="422" type="curve" smooth="yes"/>
      <point x="433" y="384"/>
      <point x="430" y="285"/>
      <point x="432" y="249" type="curve" smooth="yes"/>
      <point x="432" y="241"/>
      <point x="429" y="237"/>
      <point x="416" y="235" type="curve" smooth="yes"/>
      <point x="406" y="234"/>
      <point x="400" y="240"/>
      <point x="399" y="251" type="curve" smooth="yes"/>
      <point x="392" y="301"/>
      <point x="386" y="312"/>
      <point x="358" y="315" type="curve" smooth="yes"/>
      <point x="338" y="318"/>
      <point x="262" y="320"/>
      <point x="237" y="320" type="curve" smooth="yes"/>
      <point x="230" y="320"/>
      <point x="228" y="318"/>
      <point x="228" y="313" type="curve" smooth="yes"/>
      <point x="228" y="270"/>
      <point x="228" y="100"/>
      <point x="228" y="100" type="curve" smooth="yes"/>
      <point x="228" y="48"/>
      <point x="256" y="42"/>
      <point x="372" y="42" type="curve" smooth="yes"/>
      <point x="464" y="42"/>
      <point x="504" y="71"/>
      <point x="524" y="127" type="curve" smooth="yes"/>
      <point x="528" y="138"/>
      <point x="536" y="145"/>
      <point x="548" y="140" type="curve"/>
      <point x="561" y="137"/>
      <point x="562" y="131"/>
    </contour>
  </outline>
</glyph>
<glyph name="F" format="1">
  <advance width="564"/>
  <unicode hex="0046"/>
  <outline>
    <contour>
      <point x="517" y="635" type="curve" smooth="yes"/>
      <point x="510" y="607"/>
      <point x="508" y="553"/>
      <point x="507" y="525" type="curve" smooth="yes"/>
      <point x="507" y="514"/>
      <point x="504" y="510"/>
      <point x="493" y="510" type="curve" smooth="yes"/>
      <point x="486" y="510"/>
      <point x="479" y="512"/>
      <point x="474" y="523" type="curve" smooth="yes"/>
      <point x="456" y="568"/>
      <point x="441" y="588"/>
      <point x="405" y="593" type="curve" smooth="yes"/>
      <point x="378" y="597"/>
      <point x="308" y="597"/>
      <point x="266" y="597" type="curve" smooth="yes"/>
      <point x="229" y="597"/>
      <point x="228" y="590"/>
      <point x="228" y="577" type="curve" smooth="yes"/>
      <point x="228" y="577"/>
      <point x="228" y="414"/>
      <point x="228" y="356" type="curve" smooth="yes"/>
      <point x="228" y="346"/>
      <point x="229" y="345"/>
      <point x="242" y="345" type="curve" smooth="yes"/>
      <point x="281" y="346"/>
      <point x="329" y="346"/>
      <point x="368" y="351" type="curve" smooth="yes"/>
      <point x="389" y="353"/>
      <point x="393" y="357"/>
      <point x="401" y="406" type="curve" smooth="yes"/>
      <point x="403" y="420"/>
      <point x="411" y="424"/>
      <point x="424" y="421" type="curve" smooth="yes"/>
      <point x="434" y="419"/>
      <point x="440" y="416"/>
      <point x="438" y="406" type="curve" smooth="yes"/>
      <point x="430" y="368"/>
      <point x="427" y="269"/>
      <point x="429" y="233" type="curve" smooth="yes"/>
      <point x="429" y="225"/>
      <point x="426" y="220"/>
      <point x="413" y="219" type="curve" smooth="yes"/>
      <point x="403" y="218"/>
      <point x="398" y="224"/>
      <point x="396" y="234" type="curve" smooth="yes"/>
      <point x="386" y="282"/>
      <point x="373" y="296"/>
      <point x="349" y="299" type="curve" smooth="yes"/>
      <point x="330" y="301"/>
      <point x="262" y="303"/>
      <point x="237" y="303" type="curve" smooth="yes"/>
      <point x="230" y="303"/>
      <point x="228" y="301"/>
      <point x="228" y="297" type="curve" smooth="yes"/>
      <point x="228" y="254"/>
      <point x="228" y="152"/>
      <point x="228" y="77" type="curve" smooth="yes"/>
      <point x="228" y="43"/>
      <point x="250" y="38"/>
      <point x="307" y="31" type="curve" smooth="yes"/>
      <point x="326" y="29"/>
      <point x="331" y="25"/>
      <point x="328" y="10" type="curve" smooth="yes"/>
      <point x="326" y="-4"/>
      <point x="310" y="-5"/>
      <point x="285" y="-3" type="curve" smooth="yes"/>
      <point x="184" y="5"/>
      <point x="144" y="3"/>
      <point x="94" y="-4" type="curve" smooth="yes"/>
      <point x="77" y="-6"/>
      <point x="73" y="-2"/>
      <point x="73" y="13" type="curve" smooth="yes"/>
      <point x="73" y="23"/>
      <point x="77" y="26"/>
      <point x="94" y="28" type="curve" smooth="yes"/>
      <point x="123" y="31"/>
      <point x="142" y="55"/>
      <point x="142" y="112" type="curve" smooth="yes"/>
      <point x="142" y="530" type="line" smooth="yes"/>
      <point x="142" y="572"/>
      <point x="130" y="592"/>
      <point x="88" y="611" type="curve" smooth="yes"/>
      <point x="73" y="618"/>
      <point x="69" y="623"/>
      <point x="73" y="635" type="curve" smooth="yes"/>
      <point x="76" y="647"/>
      <point x="79" y="648"/>
      <point x="107" y="643" type="curve" smooth="yes"/>
      <point x="128" y="640"/>
      <point x="185" y="638"/>
      <point x="252" y="638" type="curve" smooth="yes"/>
      <point x="333" y="638"/>
      <point x="427" y="640"/>
      <point x="485" y="644" type="curve" smooth="yes"/>
      <point x="509" y="645"/>
      <point x="520" y="648"/>
    </contour>
  </outline>
</glyph>
<glyph name="G" format="1">
  <advance width="801"/>
  <unicode hex="0047"/>
  <outline>
    <contour>
      <point x="763" y="291" type="curve" smooth="yes"/>
      <point x="763" y="279"/>
      <point x="761" y="275"/>
      <point x="740" y="272" type="curve" smooth="yes"/>
      <point x="693" y="265"/>
      <point x="685" y="261"/>
      <point x="685" y="237" type="curve" smooth="yes"/>
      <point x="685" y="190"/>
      <point x="685" y="114"/>
      <point x="685" y="84" type="curve" smooth="yes"/>
      <point x="685" y="51"/>
      <point x="573" y="-14"/>
      <point x="420" y="-14" type="curve" smooth="yes"/>
      <point x="218" y="-14"/>
      <point x="61" y="119"/>
      <point x="61" y="315" type="curve" smooth="yes"/>
      <point x="61" y="517"/>
      <point x="228" y="656"/>
      <point x="417" y="656" type="curve" smooth="yes"/>
      <point x="503" y="656"/>
      <point x="563" y="644"/>
      <point x="607" y="629" type="curve" smooth="yes"/>
      <point x="644" y="616"/>
      <point x="665" y="606"/>
      <point x="667" y="590" type="curve" smooth="yes"/>
      <point x="671" y="561"/>
      <point x="672" y="516"/>
      <point x="672" y="480" type="curve" smooth="yes"/>
      <point x="672" y="467"/>
      <point x="669" y="464"/>
      <point x="652" y="463" type="curve" smooth="yes"/>
      <point x="631" y="462"/>
      <point x="627" y="464"/>
      <point x="623" y="476" type="curve" smooth="yes"/>
      <point x="587" y="573"/>
      <point x="528" y="613"/>
      <point x="414" y="613" type="curve" smooth="yes"/>
      <point x="261" y="613"/>
      <point x="163" y="516"/>
      <point x="163" y="327" type="curve" smooth="yes"/>
      <point x="163" y="145"/>
      <point x="280" y="31"/>
      <point x="436" y="31" type="curve" smooth="yes"/>
      <point x="521" y="31"/>
      <point x="600" y="68"/>
      <point x="600" y="95" type="curve" smooth="yes"/>
      <point x="600" y="133"/>
      <point x="600" y="159"/>
      <point x="600" y="197" type="curve" smooth="yes"/>
      <point x="600" y="240"/>
      <point x="590" y="259"/>
      <point x="535" y="275" type="curve" smooth="yes"/>
      <point x="510" y="283"/>
      <point x="508" y="287"/>
      <point x="509" y="295" type="curve" smooth="yes"/>
      <point x="511" y="311"/>
      <point x="513" y="314"/>
      <point x="539" y="311" type="curve" smooth="yes"/>
      <point x="628" y="300"/>
      <point x="703" y="305"/>
      <point x="741" y="309" type="curve" smooth="yes"/>
      <point x="758" y="311"/>
      <point x="763" y="309"/>
    </contour>
  </outline>
</glyph>
<glyph name="H" format="1">
  <advance width="861"/>
  <unicode hex="0048"/>
  <outline>
    <contour>
      <point x="809" y="13" type="curve" smooth="yes"/>
      <point x="809" y="-3"/>
      <point x="808" y="-6"/>
      <point x="788" y="-4" type="curve" smooth="yes"/>
      <point x="738" y="0"/>
      <point x="685" y="4"/>
      <point x="595" y="0" type="curve" smooth="yes"/>
      <point x="569" y="-1"/>
      <point x="566" y="2"/>
      <point x="566" y="17" type="curve" smooth="yes"/>
      <point x="566" y="28"/>
      <point x="567" y="33"/>
      <point x="592" y="36" type="curve" smooth="yes"/>
      <point x="612" y="39"/>
      <point x="633" y="49"/>
      <point x="633" y="80" type="curve" smooth="yes"/>
      <point x="633" y="272" type="line" smooth="yes"/>
      <point x="633" y="299"/>
      <point x="630" y="307"/>
      <point x="605" y="307" type="curve" smooth="yes"/>
      <point x="260" y="307" type="line" smooth="yes"/>
      <point x="229" y="307"/>
      <point x="228" y="302"/>
      <point x="228" y="274" type="curve" smooth="yes"/>
      <point x="228" y="80" type="line" smooth="yes"/>
      <point x="228" y="49"/>
      <point x="271" y="41"/>
      <point x="289" y="36" type="curve" smooth="yes"/>
      <point x="312" y="30"/>
      <point x="316" y="27"/>
      <point x="316" y="17" type="curve" smooth="yes"/>
      <point x="316" y="0"/>
      <point x="312" y="-1"/>
      <point x="287" y="0" type="curve" smooth="yes"/>
      <point x="197" y="4"/>
      <point x="144" y="0"/>
      <point x="94" y="-4" type="curve" smooth="yes"/>
      <point x="74" y="-6"/>
      <point x="73" y="-3"/>
      <point x="73" y="13" type="curve" smooth="yes"/>
      <point x="73" y="24"/>
      <point x="77" y="26"/>
      <point x="94" y="28" type="curve" smooth="yes"/>
      <point x="116" y="30"/>
      <point x="142" y="36"/>
      <point x="142" y="80" type="curve" smooth="yes"/>
      <point x="142" y="549" type="line" smooth="yes"/>
      <point x="142" y="585"/>
      <point x="118" y="600"/>
      <point x="88" y="606" type="curve" smooth="yes"/>
      <point x="62" y="612"/>
      <point x="61" y="612"/>
      <point x="61" y="623" type="curve" smooth="yes"/>
      <point x="61" y="639"/>
      <point x="65" y="641"/>
      <point x="91" y="640" type="curve" smooth="yes"/>
      <point x="140" y="637"/>
      <point x="240" y="636"/>
      <point x="290" y="640" type="curve" smooth="yes"/>
      <point x="309" y="642"/>
      <point x="312" y="639"/>
      <point x="312" y="623" type="curve" smooth="yes"/>
      <point x="312" y="616"/>
      <point x="311" y="613"/>
      <point x="290" y="609" type="curve" smooth="yes"/>
      <point x="236" y="597"/>
      <point x="228" y="594"/>
      <point x="228" y="556" type="curve" smooth="yes"/>
      <point x="228" y="391" type="line" smooth="yes"/>
      <point x="228" y="364"/>
      <point x="236" y="357"/>
      <point x="261" y="357" type="curve" smooth="yes"/>
      <point x="601" y="357" type="line" smooth="yes"/>
      <point x="625" y="357"/>
      <point x="633" y="357"/>
      <point x="633" y="393" type="curve" smooth="yes"/>
      <point x="633" y="561" type="line" smooth="yes"/>
      <point x="633" y="592"/>
      <point x="627" y="598"/>
      <point x="578" y="608" type="curve" smooth="yes"/>
      <point x="551" y="613"/>
      <point x="551" y="617"/>
      <point x="551" y="625" type="curve" smooth="yes"/>
      <point x="551" y="642"/>
      <point x="553" y="646"/>
      <point x="581" y="643" type="curve" smooth="yes"/>
      <point x="670" y="635"/>
      <point x="724" y="644"/>
      <point x="774" y="645" type="curve" smooth="yes"/>
      <point x="794" y="645"/>
      <point x="795" y="643"/>
      <point x="795" y="627" type="curve" smooth="yes"/>
      <point x="795" y="616"/>
      <point x="794" y="614"/>
      <point x="774" y="612" type="curve" smooth="yes"/>
      <point x="751" y="609"/>
      <point x="720" y="606"/>
      <point x="720" y="561" type="curve" smooth="yes"/>
      <point x="720" y="80" type="line" smooth="yes"/>
      <point x="720" y="46"/>
      <point x="744" y="38"/>
      <point x="788" y="28" type="curve" smooth="yes"/>
      <point x="808" y="24"/>
      <point x="809" y="19"/>
    </contour>
  </outline>
</glyph>
<glyph name="I" format="1">
  <advance width="391"/>
  <unicode hex="0049"/>
  <outline>
    <contour>
      <point x="323" y="632" type="curve" smooth="yes"/>
      <point x="323" y="623"/>
      <point x="323" y="620"/>
      <point x="297" y="612" type="curve" smooth="yes"/>
      <point x="280" y="607"/>
      <point x="238" y="597"/>
      <point x="238" y="566" type="curve" smooth="yes"/>
      <point x="238" y="91" type="line" smooth="yes"/>
      <point x="238" y="54"/>
      <point x="262" y="40"/>
      <point x="292" y="35" type="curve" smooth="yes"/>
      <point x="317" y="30"/>
      <point x="319" y="28"/>
      <point x="319" y="16" type="curve" smooth="yes"/>
      <point x="319" y="-1"/>
      <point x="315" y="-2"/>
      <point x="289" y="-1" type="curve" smooth="yes"/>
      <point x="240" y="1"/>
      <point x="140" y="3"/>
      <point x="90" y="-1" type="curve" smooth="yes"/>
      <point x="72" y="-2"/>
      <point x="68" y="0"/>
      <point x="68" y="16" type="curve" smooth="yes"/>
      <point x="68" y="24"/>
      <point x="73" y="27"/>
      <point x="90" y="31" type="curve" smooth="yes"/>
      <point x="145" y="43"/>
      <point x="153" y="45"/>
      <point x="153" y="84" type="curve" smooth="yes"/>
      <point x="153" y="563" type="line" smooth="yes"/>
      <point x="153" y="598"/>
      <point x="126" y="608"/>
      <point x="98" y="613" type="curve" smooth="yes"/>
      <point x="79" y="616"/>
      <point x="75" y="618"/>
      <point x="75" y="627" type="curve" smooth="yes"/>
      <point x="75" y="647"/>
      <point x="79" y="648"/>
      <point x="96" y="646" type="curve" smooth="yes"/>
      <point x="134" y="642"/>
      <point x="204" y="637"/>
      <point x="293" y="648" type="curve" smooth="yes"/>
      <point x="319" y="651"/>
      <point x="323" y="651"/>
    </contour>
  </outline>
</glyph>
<glyph name="J" format="1">
  <advance width="380"/>
  <unicode hex="004A"/>
  <outline>
    <contour>
      <point x="314" y="632" type="curve" smooth="yes"/>
      <point x="315" y="622"/>
      <point x="315" y="619"/>
      <point x="291" y="612" type="curve" smooth="yes"/>
      <point x="254" y="602"/>
      <point x="236" y="595"/>
      <point x="236" y="563" type="curve" smooth="yes"/>
      <point x="236" y="48" type="line" smooth="yes"/>
      <point x="236" y="-108"/>
      <point x="140" y="-178"/>
      <point x="27" y="-178" type="curve" smooth="yes"/>
      <point x="-20" y="-178"/>
      <point x="-47" y="-169"/>
      <point x="-67" y="-157" type="curve" smooth="yes"/>
      <point x="-78" y="-150"/>
      <point x="-82" y="-139"/>
      <point x="-68" y="-109" type="curve" smooth="yes"/>
      <point x="-59" y="-90"/>
      <point x="-48" y="-80"/>
      <point x="-38" y="-80" type="curve" smooth="yes"/>
      <point x="-31" y="-80"/>
      <point x="-22" y="-84"/>
      <point x="1" y="-99" type="curve" smooth="yes"/>
      <point x="29" y="-117"/>
      <point x="52" y="-124"/>
      <point x="71" y="-124" type="curve" smooth="yes"/>
      <point x="127" y="-124"/>
      <point x="150" y="-99"/>
      <point x="150" y="19" type="curve" smooth="yes"/>
      <point x="150" y="568" type="line" smooth="yes"/>
      <point x="150" y="598"/>
      <point x="137" y="601"/>
      <point x="92" y="613" type="curve" smooth="yes"/>
      <point x="73" y="618"/>
      <point x="71" y="622"/>
      <point x="72" y="632" type="curve" smooth="yes"/>
      <point x="73" y="644"/>
      <point x="74" y="647"/>
      <point x="94" y="645" type="curve" smooth="yes"/>
      <point x="184" y="637"/>
      <point x="254" y="644"/>
      <point x="291" y="649" type="curve" smooth="yes"/>
      <point x="308" y="652"/>
      <point x="311" y="651"/>
    </contour>
  </outline>
</glyph>
<glyph name="K" format="1">
  <advance width="717"/>
  <unicode hex="004B"/>
  <outline>
    <contour>
      <point x="688" y="17" type="curve" smooth="yes"/>
      <point x="688" y="2"/>
      <point x="686" y="-1"/>
      <point x="669" y="0" type="curve" smooth="yes"/>
      <point x="563" y="4"/>
      <point x="519" y="2"/>
      <point x="468" y="-5" type="curve" smooth="yes"/>
      <point x="453" y="-7"/>
      <point x="449" y="-5"/>
      <point x="447" y="3" type="curve" smooth="yes"/>
      <point x="444" y="14"/>
      <point x="447" y="16"/>
      <point x="467" y="25" type="curve" smooth="yes"/>
      <point x="483" y="32"/>
      <point x="488" y="58"/>
      <point x="465" y="81" type="curve" smooth="yes"/>
      <point x="420" y="128"/>
      <point x="334" y="211"/>
      <point x="230" y="310" type="curve"/>
      <point x="230" y="80" type="line" smooth="yes"/>
      <point x="230" y="49"/>
      <point x="271" y="41"/>
      <point x="288" y="36" type="curve" smooth="yes"/>
      <point x="310" y="30"/>
      <point x="314" y="27"/>
      <point x="314" y="17" type="curve" smooth="yes"/>
      <point x="314" y="0"/>
      <point x="310" y="-1"/>
      <point x="287" y="0" type="curve" smooth="yes"/>
      <point x="201" y="4"/>
      <point x="144" y="0"/>
      <point x="96" y="-4" type="curve" smooth="yes"/>
      <point x="78" y="-5"/>
      <point x="76" y="-2"/>
      <point x="76" y="13" type="curve" smooth="yes"/>
      <point x="76" y="23"/>
      <point x="80" y="26"/>
      <point x="96" y="28" type="curve" smooth="yes"/>
      <point x="117" y="30"/>
      <point x="142" y="36"/>
      <point x="142" y="80" type="curve" smooth="yes"/>
      <point x="142" y="549" type="line" smooth="yes"/>
      <point x="142" y="585"/>
      <point x="119" y="600"/>
      <point x="91" y="606" type="curve" smooth="yes"/>
      <point x="67" y="612"/>
      <point x="65" y="612"/>
      <point x="65" y="623" type="curve" smooth="yes"/>
      <point x="65" y="638"/>
      <point x="66" y="642"/>
      <point x="94" y="640" type="curve" smooth="yes"/>
      <point x="140" y="638"/>
      <point x="242" y="636"/>
      <point x="289" y="640" type="curve" smooth="yes"/>
      <point x="307" y="642"/>
      <point x="310" y="637"/>
      <point x="310" y="623" type="curve" smooth="yes"/>
      <point x="310" y="616"/>
      <point x="309" y="613"/>
      <point x="289" y="609" type="curve" smooth="yes"/>
      <point x="238" y="597"/>
      <point x="230" y="594"/>
      <point x="230" y="556" type="curve" smooth="yes"/>
      <point x="230" y="343" type="line"/>
      <point x="309" y="409"/>
      <point x="385" y="473"/>
      <point x="452" y="534" type="curve" smooth="yes"/>
      <point x="486" y="564"/>
      <point x="485" y="592"/>
      <point x="450" y="605" type="curve" smooth="yes"/>
      <point x="429" y="612"/>
      <point x="426" y="613"/>
      <point x="428" y="626" type="curve" smooth="yes"/>
      <point x="430" y="640"/>
      <point x="432" y="643"/>
      <point x="457" y="638" type="curve"/>
      <point x="544" y="629"/>
      <point x="594" y="632"/>
      <point x="631" y="636" type="curve" smooth="yes"/>
      <point x="645" y="637"/>
      <point x="649" y="638"/>
      <point x="652" y="621" type="curve" smooth="yes"/>
      <point x="654" y="607"/>
      <point x="649" y="605"/>
      <point x="628" y="599" type="curve" smooth="yes"/>
      <point x="590" y="587"/>
      <point x="551" y="559"/>
      <point x="512" y="528" type="curve" smooth="yes"/>
      <point x="432" y="462"/>
      <point x="370" y="410"/>
      <point x="295" y="347" type="curve"/>
      <point x="378" y="268"/>
      <point x="482" y="170"/>
      <point x="575" y="86" type="curve" smooth="yes"/>
      <point x="599" y="65"/>
      <point x="638" y="41"/>
      <point x="666" y="33" type="curve" smooth="yes"/>
      <point x="685" y="28"/>
      <point x="688" y="27"/>
    </contour>
  </outline>
</glyph>
<glyph name="L" format="1">
  <advance width="582"/>
  <unicode hex="004C"/>
  <outline>
    <contour>
      <point x="549" y="122" type="curve" smooth="yes"/>
      <point x="541" y="91"/>
      <point x="532" y="36"/>
      <point x="532" y="5" type="curve" smooth="yes"/>
      <point x="532" y="-2"/>
      <point x="525" y="-4"/>
      <point x="501" y="-3" type="curve" smooth="yes"/>
      <point x="448" y="0"/>
      <point x="379" y="1"/>
      <point x="310" y="1" type="curve" smooth="yes"/>
      <point x="231" y="1"/>
      <point x="151" y="-1"/>
      <point x="94" y="-4" type="curve" smooth="yes"/>
      <point x="75" y="-5"/>
      <point x="73" y="-2"/>
      <point x="73" y="13" type="curve" smooth="yes"/>
      <point x="73" y="23"/>
      <point x="75" y="26"/>
      <point x="94" y="28" type="curve" smooth="yes"/>
      <point x="116" y="30"/>
      <point x="142" y="35"/>
      <point x="142" y="79" type="curve" smooth="yes"/>
      <point x="142" y="530" type="line" smooth="yes"/>
      <point x="142" y="572"/>
      <point x="135" y="595"/>
      <point x="90" y="611" type="curve" smooth="yes"/>
      <point x="72" y="617"/>
      <point x="71" y="621"/>
      <point x="73" y="633" type="curve" smooth="yes"/>
      <point x="75" y="647"/>
      <point x="78" y="648"/>
      <point x="105" y="645" type="curve" smooth="yes"/>
      <point x="142" y="641"/>
      <point x="198" y="639"/>
      <point x="275" y="646" type="curve" smooth="yes"/>
      <point x="299" y="648"/>
      <point x="304" y="648"/>
      <point x="306" y="634" type="curve" smooth="yes"/>
      <point x="308" y="618"/>
      <point x="305" y="616"/>
      <point x="280" y="610" type="curve" smooth="yes"/>
      <point x="234" y="600"/>
      <point x="228" y="593"/>
      <point x="228" y="550" type="curve" smooth="yes"/>
      <point x="228" y="474"/>
      <point x="228" y="113"/>
      <point x="228" y="113" type="curve" smooth="yes"/>
      <point x="228" y="57"/>
      <point x="260" y="42"/>
      <point x="356" y="42" type="curve" smooth="yes"/>
      <point x="447" y="42"/>
      <point x="485" y="60"/>
      <point x="513" y="127" type="curve" smooth="yes"/>
      <point x="521" y="146"/>
      <point x="525" y="145"/>
      <point x="537" y="140" type="curve"/>
      <point x="550" y="137"/>
      <point x="553" y="135"/>
    </contour>
  </outline>
</glyph>
<glyph name="M" format="1">
  <advance width="966"/>
  <unicode hex="004D"/>
  <outline>
    <contour>
      <point x="908" y="16" type="curve" smooth="yes"/>
      <point x="908" y="-1"/>
      <point x="903" y="-2"/>
      <point x="877" y="-1" type="curve" smooth="yes"/>
      <point x="829" y="1"/>
      <point x="728" y="3"/>
      <point x="679" y="-1" type="curve" smooth="yes"/>
      <point x="660" y="-2"/>
      <point x="657" y="2"/>
      <point x="657" y="16" type="curve" smooth="yes"/>
      <point x="657" y="24"/>
      <point x="661" y="27"/>
      <point x="679" y="31" type="curve" smooth="yes"/>
      <point x="734" y="43"/>
      <point x="743" y="44"/>
      <point x="741" y="84" type="curve" smooth="yes"/>
      <point x="741" y="84"/>
      <point x="730" y="327"/>
      <point x="724" y="501" type="curve" smooth="yes"/>
      <point x="723" y="517"/>
      <point x="714" y="518"/>
      <point x="708" y="505" type="curve" smooth="yes"/>
      <point x="633" y="355"/>
      <point x="531" y="150"/>
      <point x="486" y="33" type="curve" smooth="yes"/>
      <point x="472" y="-4"/>
      <point x="472" y="-11"/>
      <point x="458" y="-15" type="curve" smooth="yes"/>
      <point x="444" y="-19"/>
      <point x="440" y="-16"/>
      <point x="432" y="12" type="curve" smooth="yes"/>
      <point x="411" y="89"/>
      <point x="311" y="311"/>
      <point x="220" y="502" type="curve" smooth="yes"/>
      <point x="212" y="518"/>
      <point x="201" y="517"/>
      <point x="200" y="498" type="curve" smooth="yes"/>
      <point x="193" y="342"/>
      <point x="184" y="112"/>
      <point x="184" y="112" type="curve" smooth="yes"/>
      <point x="182" y="66"/>
      <point x="208" y="42"/>
      <point x="249" y="35" type="curve" smooth="yes"/>
      <point x="275" y="30"/>
      <point x="276" y="27"/>
      <point x="276" y="16" type="curve" smooth="yes"/>
      <point x="276" y="-1"/>
      <point x="271" y="-2"/>
      <point x="245" y="-1" type="curve" smooth="yes"/>
      <point x="197" y="1"/>
      <point x="120" y="3"/>
      <point x="71" y="-1" type="curve" smooth="yes"/>
      <point x="52" y="-2"/>
      <point x="49" y="1"/>
      <point x="49" y="16" type="curve" smooth="yes"/>
      <point x="49" y="25"/>
      <point x="51" y="27"/>
      <point x="71" y="31" type="curve" smooth="yes"/>
      <point x="126" y="43"/>
      <point x="131" y="63"/>
      <point x="133" y="106" type="curve" smooth="yes"/>
      <point x="150" y="538" type="line" smooth="yes"/>
      <point x="152" y="577"/>
      <point x="137" y="591"/>
      <point x="95" y="610" type="curve" smooth="yes"/>
      <point x="72" y="621"/>
      <point x="72" y="623"/>
      <point x="73" y="633" type="curve" smooth="yes"/>
      <point x="74" y="644"/>
      <point x="77" y="645"/>
      <point x="94" y="643" type="curve" smooth="yes"/>
      <point x="127" y="638"/>
      <point x="193" y="635"/>
      <point x="225" y="639" type="curve" smooth="yes"/>
      <point x="254" y="642"/>
      <point x="260" y="639"/>
      <point x="268" y="621" type="curve" smooth="yes"/>
      <point x="359" y="413"/>
      <point x="428" y="259"/>
      <point x="472" y="154" type="curve" smooth="yes"/>
      <point x="478" y="141"/>
      <point x="480" y="139"/>
      <point x="488" y="157" type="curve" smooth="yes"/>
      <point x="546" y="283"/>
      <point x="616" y="424"/>
      <point x="706" y="610" type="curve" smooth="yes"/>
      <point x="717" y="633"/>
      <point x="723" y="635"/>
      <point x="737" y="635" type="curve" smooth="yes"/>
      <point x="774" y="635"/>
      <point x="808" y="639"/>
      <point x="864" y="648" type="curve" smooth="yes"/>
      <point x="890" y="652"/>
      <point x="895" y="651"/>
      <point x="895" y="632" type="curve" smooth="yes"/>
      <point x="895" y="623"/>
      <point x="892" y="619"/>
      <point x="869" y="612" type="curve" smooth="yes"/>
      <point x="851" y="606"/>
      <point x="808" y="597"/>
      <point x="809" y="566" type="curve" smooth="yes"/>
      <point x="827" y="91" type="line" smooth="yes"/>
      <point x="829" y="51"/>
      <point x="845" y="42"/>
      <point x="881" y="35" type="curve" smooth="yes"/>
      <point x="903" y="31"/>
      <point x="908" y="29"/>
    </contour>
  </outline>
</glyph>
<glyph name="N" format="1">
  <advance width="851"/>
  <unicode hex="004E"/>
  <outline>
    <contour>
      <point x="805" y="633" type="curve" smooth="yes"/>
      <point x="805" y="626"/>
      <point x="802" y="620"/>
      <point x="779" y="613" type="curve" smooth="yes"/>
      <point x="753" y="606"/>
      <point x="720" y="589"/>
      <point x="720" y="545" type="curve" smooth="yes"/>
      <point x="720" y="545"/>
      <point x="720" y="373"/>
      <point x="720" y="194" type="curve" smooth="yes"/>
      <point x="720" y="135"/>
      <point x="721" y="62"/>
      <point x="723" y="15" type="curve" smooth="yes"/>
      <point x="724" y="-6"/>
      <point x="723" y="-11"/>
      <point x="711" y="-14" type="curve" smooth="yes"/>
      <point x="695" y="-18"/>
      <point x="687" y="-15"/>
      <point x="674" y="9" type="curve" smooth="yes"/>
      <point x="638" y="77"/>
      <point x="353" y="379"/>
      <point x="212" y="521" type="curve" smooth="yes"/>
      <point x="207" y="526"/>
      <point x="198" y="525"/>
      <point x="198" y="512" type="curve" smooth="yes"/>
      <point x="198" y="355"/>
      <point x="198" y="112"/>
      <point x="198" y="112" type="curve" smooth="yes"/>
      <point x="198" y="66"/>
      <point x="221" y="43"/>
      <point x="263" y="35" type="curve" smooth="yes"/>
      <point x="285" y="31"/>
      <point x="290" y="27"/>
      <point x="290" y="16" type="curve" smooth="yes"/>
      <point x="290" y="3"/>
      <point x="285" y="-2"/>
      <point x="260" y="-1" type="curve" smooth="yes"/>
      <point x="211" y="1"/>
      <point x="129" y="3"/>
      <point x="79" y="-1" type="curve" smooth="yes"/>
      <point x="61" y="-2"/>
      <point x="58" y="2"/>
      <point x="58" y="16" type="curve" smooth="yes"/>
      <point x="58" y="24"/>
      <point x="62" y="27"/>
      <point x="79" y="31" type="curve" smooth="yes"/>
      <point x="134" y="43"/>
      <point x="142" y="63"/>
      <point x="142" y="106" type="curve" smooth="yes"/>
      <point x="142" y="538" type="line" smooth="yes"/>
      <point x="142" y="577"/>
      <point x="129" y="591"/>
      <point x="87" y="610" type="curve" smooth="yes"/>
      <point x="67" y="619"/>
      <point x="63" y="623"/>
      <point x="64" y="633" type="curve" smooth="yes"/>
      <point x="65" y="644"/>
      <point x="68" y="646"/>
      <point x="86" y="643" type="curve" smooth="yes"/>
      <point x="118" y="639"/>
      <point x="163" y="636"/>
      <point x="196" y="639" type="curve" smooth="yes"/>
      <point x="220" y="642"/>
      <point x="226" y="635"/>
      <point x="239" y="621" type="curve" smooth="yes"/>
      <point x="377" y="474"/>
      <point x="581" y="261"/>
      <point x="648" y="185" type="curve" smooth="yes"/>
      <point x="658" y="173"/>
      <point x="663" y="171"/>
      <point x="663" y="189" type="curve" smooth="yes"/>
      <point x="663" y="340"/>
      <point x="663" y="542"/>
      <point x="663" y="542" type="curve" smooth="yes"/>
      <point x="663" y="583"/>
      <point x="638" y="608"/>
      <point x="598" y="615" type="curve" smooth="yes"/>
      <point x="579" y="618"/>
      <point x="575" y="619"/>
      <point x="575" y="629" type="curve" smooth="yes"/>
      <point x="575" y="645"/>
      <point x="579" y="649"/>
      <point x="596" y="647" type="curve" smooth="yes"/>
      <point x="634" y="643"/>
      <point x="709" y="642"/>
      <point x="775" y="649" type="curve" smooth="yes"/>
      <point x="801" y="652"/>
      <point x="805" y="649"/>
    </contour>
  </outline>
</glyph>
<glyph name="O" format="1">
  <advance width="827"/>
  <unicode hex="004F"/>
  <outline>
    <contour>
      <point x="766" y="322" type="curve" smooth="yes"/>
      <point x="766" y="132"/>
      <point x="605" y="-14"/>
      <point x="415" y="-14" type="curve" smooth="yes"/>
      <point x="217" y="-14"/>
      <point x="61" y="117"/>
      <point x="61" y="319" type="curve" smooth="yes"/>
      <point x="61" y="512"/>
      <point x="220" y="656"/>
      <point x="415" y="656" type="curve" smooth="yes"/>
      <point x="614" y="656"/>
      <point x="766" y="518"/>
    </contour>
    <contour>
      <point x="667" y="305" type="curve" smooth="yes"/>
      <point x="667" y="499"/>
      <point x="552" y="609"/>
      <point x="392" y="609" type="curve" smooth="yes"/>
      <point x="258" y="609"/>
      <point x="160" y="500"/>
      <point x="160" y="339" type="curve" smooth="yes"/>
      <point x="160" y="144"/>
      <point x="270" y="32"/>
      <point x="436" y="32" type="curve" smooth="yes"/>
      <point x="571" y="32"/>
      <point x="667" y="141"/>
    </contour>
  </outline>
</glyph>
<glyph name="P" format="1">
  <advance width="597"/>
  <unicode hex="0050"/>
  <outline>
    <contour>
      <point x="552" y="464" type="curve" smooth="yes"/>
      <point x="552" y="336"/>
      <point x="437" y="267"/>
      <point x="288" y="267" type="curve" smooth="yes"/>
      <point x="272" y="267"/>
      <point x="240" y="270"/>
      <point x="233" y="270" type="curve" smooth="yes"/>
      <point x="228" y="270"/>
      <point x="228" y="264"/>
      <point x="228" y="255" type="curve" smooth="yes"/>
      <point x="228" y="212"/>
      <point x="228" y="80"/>
      <point x="228" y="80" type="curve" smooth="yes"/>
      <point x="228" y="49"/>
      <point x="233" y="46"/>
      <point x="289" y="36" type="curve" smooth="yes"/>
      <point x="312" y="32"/>
      <point x="316" y="29"/>
      <point x="316" y="17" type="curve" smooth="yes"/>
      <point x="316" y="0"/>
      <point x="312" y="-1"/>
      <point x="287" y="0" type="curve" smooth="yes"/>
      <point x="197" y="4"/>
      <point x="144" y="0"/>
      <point x="94" y="-4" type="curve" smooth="yes"/>
      <point x="77" y="-5"/>
      <point x="73" y="-2"/>
      <point x="73" y="13" type="curve" smooth="yes"/>
      <point x="73" y="23"/>
      <point x="77" y="26"/>
      <point x="94" y="28" type="curve" smooth="yes"/>
      <point x="116" y="30"/>
      <point x="142" y="36"/>
      <point x="142" y="80" type="curve" smooth="yes"/>
      <point x="142" y="548" type="line" smooth="yes"/>
      <point x="142" y="584"/>
      <point x="119" y="599"/>
      <point x="88" y="605" type="curve" smooth="yes"/>
      <point x="65" y="610"/>
      <point x="61" y="611"/>
      <point x="61" y="622" type="curve" smooth="yes"/>
      <point x="61" y="640"/>
      <point x="65" y="644"/>
      <point x="91" y="639" type="curve" smooth="yes"/>
      <point x="110" y="636"/>
      <point x="132" y="635"/>
      <point x="156" y="635" type="curve" smooth="yes"/>
      <point x="203" y="635"/>
      <point x="259" y="639"/>
      <point x="323" y="639" type="curve" smooth="yes"/>
      <point x="458" y="639"/>
      <point x="552" y="581"/>
    </contour>
    <contour>
      <point x="457" y="453" type="curve" smooth="yes"/>
      <point x="457" y="570"/>
      <point x="406" y="605"/>
      <point x="290" y="605" type="curve" smooth="yes"/>
      <point x="235" y="605"/>
      <point x="228" y="590"/>
      <point x="228" y="552" type="curve" smooth="yes"/>
      <point x="228" y="552"/>
      <point x="228" y="361"/>
      <point x="228" y="318" type="curve" smooth="yes"/>
      <point x="228" y="309"/>
      <point x="257" y="304"/>
      <point x="293" y="304" type="curve" smooth="yes"/>
      <point x="392" y="304"/>
      <point x="457" y="356"/>
    </contour>
  </outline>
</glyph>
<glyph name="Q" format="1">
  <advance width="827"/>
  <unicode hex="0051"/>
  <outline>
    <contour>
      <point x="1084" y="-126" type="curve"/>
      <point x="1086" y="-139"/>
      <point x="1081" y="-147"/>
      <point x="1077" y="-148" type="curve" smooth="yes"/>
      <point x="1000" y="-170"/>
      <point x="954" y="-178"/>
      <point x="854" y="-178" type="curve" smooth="yes"/>
      <point x="705" y="-178"/>
      <point x="541" y="-126"/>
      <point x="447" y="-13" type="curve"/>
      <point x="437" y="-13"/>
      <point x="426" y="-14"/>
      <point x="415" y="-14" type="curve" smooth="yes"/>
      <point x="217" y="-14"/>
      <point x="61" y="117"/>
      <point x="61" y="319" type="curve" smooth="yes"/>
      <point x="61" y="512"/>
      <point x="220" y="656"/>
      <point x="415" y="656" type="curve" smooth="yes"/>
      <point x="614" y="656"/>
      <point x="766" y="518"/>
      <point x="766" y="322" type="curve" smooth="yes"/>
      <point x="766" y="181"/>
      <point x="677" y="63"/>
      <point x="553" y="13" type="curve"/>
      <point x="632" y="-83"/>
      <point x="760" y="-134"/>
      <point x="879" y="-134" type="curve" smooth="yes"/>
      <point x="959" y="-134"/>
      <point x="988" y="-131"/>
      <point x="1069" y="-115" type="curve" smooth="yes"/>
      <point x="1074" y="-114"/>
      <point x="1080" y="-114"/>
    </contour>
    <contour>
      <point x="667" y="305" type="curve" smooth="yes"/>
      <point x="667" y="499"/>
      <point x="552" y="609"/>
      <point x="392" y="609" type="curve" smooth="yes"/>
      <point x="258" y="609"/>
      <point x="160" y="500"/>
      <point x="160" y="339" type="curve" smooth="yes"/>
      <point x="160" y="144"/>
      <point x="270" y="32"/>
      <point x="436" y="32" type="curve" smooth="yes"/>
      <point x="571" y="32"/>
      <point x="667" y="141"/>
    </contour>
  </outline>
</glyph>
<glyph name="R" format="1">
  <advance width="656"/>
  <unicode hex="0052"/>
  <outline>
    <contour>
      <point x="642" y="-1" type="curve" smooth="yes"/>
      <point x="642" y="-11"/>
      <point x="639" y="-12"/>
      <point x="623" y="-12" type="curve" smooth="yes"/>
      <point x="509" y="-12"/>
      <point x="398" y="84"/>
      <point x="292" y="288" type="curve"/>
      <point x="272" y="287"/>
      <point x="251" y="285"/>
      <point x="228" y="285" type="curve"/>
      <point x="228" y="80" type="line" smooth="yes"/>
      <point x="228" y="49"/>
      <point x="239" y="44"/>
      <point x="289" y="36" type="curve" smooth="yes"/>
      <point x="312" y="33"/>
      <point x="316" y="30"/>
      <point x="316" y="17" type="curve" smooth="yes"/>
      <point x="316" y="0"/>
      <point x="312" y="-1"/>
      <point x="287" y="0" type="curve" smooth="yes"/>
      <point x="197" y="4"/>
      <point x="144" y="0"/>
      <point x="94" y="-4" type="curve" smooth="yes"/>
      <point x="77" y="-5"/>
      <point x="73" y="-2"/>
      <point x="73" y="13" type="curve" smooth="yes"/>
      <point x="73" y="23"/>
      <point x="77" y="26"/>
      <point x="94" y="28" type="curve" smooth="yes"/>
      <point x="116" y="30"/>
      <point x="142" y="36"/>
      <point x="142" y="80" type="curve" smooth="yes"/>
      <point x="142" y="548" type="line" smooth="yes"/>
      <point x="142" y="584"/>
      <point x="119" y="599"/>
      <point x="88" y="605" type="curve" smooth="yes"/>
      <point x="65" y="610"/>
      <point x="61" y="611"/>
      <point x="61" y="622" type="curve" smooth="yes"/>
      <point x="61" y="635"/>
      <point x="65" y="643"/>
      <point x="91" y="639" type="curve" smooth="yes"/>
      <point x="111" y="636"/>
      <point x="129" y="636"/>
      <point x="152" y="636" type="curve" smooth="yes"/>
      <point x="190" y="636"/>
      <point x="240" y="639"/>
      <point x="323" y="639" type="curve" smooth="yes"/>
      <point x="445" y="639"/>
      <point x="541" y="594"/>
      <point x="541" y="483" type="curve" smooth="yes"/>
      <point x="541" y="391"/>
      <point x="489" y="333"/>
      <point x="385" y="304" type="curve"/>
      <point x="450" y="156"/>
      <point x="551" y="30"/>
      <point x="626" y="18" type="curve" smooth="yes"/>
      <point x="638" y="16"/>
      <point x="641" y="14"/>
    </contour>
    <contour>
      <point x="446" y="471" type="curve" smooth="yes"/>
      <point x="446" y="569"/>
      <point x="397" y="605"/>
      <point x="290" y="605" type="curve" smooth="yes"/>
      <point x="235" y="605"/>
      <point x="228" y="590"/>
      <point x="228" y="552" type="curve" smooth="yes"/>
      <point x="228" y="322" type="line"/>
      <point x="390" y="327"/>
      <point x="446" y="377"/>
    </contour>
  </outline>
</glyph>
<glyph name="S" format="1">
  <advance width="581"/>
  <unicode hex="0053"/>
  <outline>
    <contour>
      <point x="503" y="170" type="curve" smooth="yes"/>
      <point x="503" y="62"/>
      <point x="419" y="-14"/>
      <point x="270" y="-14" type="curve" smooth="yes"/>
      <point x="170" y="-14"/>
      <point x="117" y="5"/>
      <point x="101" y="39" type="curve" smooth="yes"/>
      <point x="88" y="66"/>
      <point x="79" y="95"/>
      <point x="71" y="121" type="curve" smooth="yes"/>
      <point x="66" y="139"/>
      <point x="67" y="145"/>
      <point x="80" y="151" type="curve" smooth="yes"/>
      <point x="96" y="158"/>
      <point x="101" y="158"/>
      <point x="111" y="143" type="curve" smooth="yes"/>
      <point x="167" y="60"/>
      <point x="218" y="31"/>
      <point x="289" y="31" type="curve" smooth="yes"/>
      <point x="383" y="31"/>
      <point x="425" y="72"/>
      <point x="425" y="139" type="curve" smooth="yes"/>
      <point x="425" y="197"/>
      <point x="394" y="224"/>
      <point x="276" y="288" type="curve" smooth="yes"/>
      <point x="135" y="364"/>
      <point x="81" y="402"/>
      <point x="81" y="492" type="curve" smooth="yes"/>
      <point x="81" y="581"/>
      <point x="163" y="656"/>
      <point x="283" y="656" type="curve" smooth="yes"/>
      <point x="337" y="656"/>
      <point x="369" y="650"/>
      <point x="405" y="640" type="curve" smooth="yes"/>
      <point x="432" y="633"/>
      <point x="452" y="622"/>
      <point x="456" y="609" type="curve" smooth="yes"/>
      <point x="465" y="580"/>
      <point x="470" y="542"/>
      <point x="472" y="511" type="curve" smooth="yes"/>
      <point x="473" y="495"/>
      <point x="471" y="490"/>
      <point x="458" y="488" type="curve" smooth="yes"/>
      <point x="446" y="486"/>
      <point x="438" y="487"/>
      <point x="431" y="501" type="curve" smooth="yes"/>
      <point x="390" y="585"/>
      <point x="343" y="610"/>
      <point x="269" y="610" type="curve" smooth="yes"/>
      <point x="202" y="610"/>
      <point x="158" y="578"/>
      <point x="158" y="518" type="curve" smooth="yes"/>
      <point x="158" y="462"/>
      <point x="193" y="431"/>
      <point x="290" y="382" type="curve" smooth="yes"/>
      <point x="430" y="312"/>
      <point x="503" y="262"/>
    </contour>
  </outline>
</glyph>
<glyph name="T" format="1">
  <advance width="723"/>
  <unicode hex="0054"/>
  <outline>
    <contour>
      <point x="682" y="487" type="curve" smooth="yes"/>
      <point x="682" y="478"/>
      <point x="683" y="473"/>
      <point x="670" y="470" type="curve" smooth="yes"/>
      <point x="655" y="467"/>
      <point x="650" y="472"/>
      <point x="646" y="484" type="curve" smooth="yes"/>
      <point x="622" y="559"/>
      <point x="601" y="600"/>
      <point x="456" y="600" type="curve" smooth="yes"/>
      <point x="416" y="600"/>
      <point x="410" y="597"/>
      <point x="410" y="583" type="curve" smooth="yes"/>
      <point x="410" y="583"/>
      <point x="410" y="172"/>
      <point x="410" y="96" type="curve" smooth="yes"/>
      <point x="410" y="53"/>
      <point x="427" y="43"/>
      <point x="483" y="30" type="curve" smooth="yes"/>
      <point x="509" y="24"/>
      <point x="511" y="23"/>
      <point x="509" y="6" type="curve" smooth="yes"/>
      <point x="507" y="-8"/>
      <point x="503" y="-7"/>
      <point x="478" y="-5" type="curve" smooth="yes"/>
      <point x="401" y="2"/>
      <point x="302" y="1"/>
      <point x="265" y="-4" type="curve" smooth="yes"/>
      <point x="237" y="-7"/>
      <point x="235" y="-4"/>
      <point x="233" y="8" type="curve"/>
      <point x="230" y="19"/>
      <point x="233" y="25"/>
      <point x="250" y="29" type="curve" smooth="yes"/>
      <point x="303" y="43"/>
      <point x="323" y="57"/>
      <point x="323" y="110" type="curve" smooth="yes"/>
      <point x="323" y="110"/>
      <point x="323" y="401"/>
      <point x="323" y="583" type="curve" smooth="yes"/>
      <point x="323" y="597"/>
      <point x="320" y="600"/>
      <point x="277" y="600" type="curve" smooth="yes"/>
      <point x="143" y="600"/>
      <point x="111" y="554"/>
      <point x="81" y="480" type="curve" smooth="yes"/>
      <point x="74" y="463"/>
      <point x="69" y="462"/>
      <point x="58" y="467" type="curve"/>
      <point x="45" y="470"/>
      <point x="42" y="474"/>
      <point x="46" y="485" type="curve" smooth="yes"/>
      <point x="54" y="511"/>
      <point x="63" y="593"/>
      <point x="63" y="634" type="curve" smooth="yes"/>
      <point x="63" y="642"/>
      <point x="69" y="645"/>
      <point x="93" y="643" type="curve" smooth="yes"/>
      <point x="189" y="637"/>
      <point x="238" y="636"/>
      <point x="326" y="636" type="curve" smooth="yes"/>
      <point x="424" y="636"/>
      <point x="584" y="638"/>
      <point x="640" y="646" type="curve" smooth="yes"/>
      <point x="663" y="649"/>
      <point x="668" y="645"/>
      <point x="670" y="637" type="curve" smooth="yes"/>
      <point x="677" y="603"/>
      <point x="683" y="525"/>
    </contour>
  </outline>
</glyph>
<glyph name="U" format="1">
  <advance width="817"/>
  <unicode hex="0055"/>
  <outline>
    <contour>
      <point x="776" y="626" type="curve" smooth="yes"/>
      <point x="776" y="617"/>
      <point x="771" y="615"/>
      <point x="754" y="611" type="curve" smooth="yes"/>
      <point x="699" y="598"/>
      <point x="692" y="589"/>
      <point x="692" y="548" type="curve" smooth="yes"/>
      <point x="692" y="495"/>
      <point x="692" y="315"/>
      <point x="692" y="268" type="curve" smooth="yes"/>
      <point x="692" y="92"/>
      <point x="598" y="-14"/>
      <point x="414" y="-14" type="curve" smooth="yes"/>
      <point x="231" y="-14"/>
      <point x="126" y="64"/>
      <point x="126" y="257" type="curve" smooth="yes"/>
      <point x="126" y="396"/>
      <point x="126" y="550"/>
      <point x="126" y="550" type="curve" smooth="yes"/>
      <point x="126" y="586"/>
      <point x="102" y="601"/>
      <point x="72" y="606" type="curve" smooth="yes"/>
      <point x="46" y="611"/>
      <point x="45" y="613"/>
      <point x="45" y="624" type="curve" smooth="yes"/>
      <point x="45" y="642"/>
      <point x="47" y="643"/>
      <point x="75" y="642" type="curve" smooth="yes"/>
      <point x="123" y="639"/>
      <point x="226" y="637"/>
      <point x="276" y="642" type="curve" smooth="yes"/>
      <point x="296" y="644"/>
      <point x="297" y="642"/>
      <point x="297" y="624" type="curve" smooth="yes"/>
      <point x="297" y="617"/>
      <point x="293" y="613"/>
      <point x="276" y="609" type="curve" smooth="yes"/>
      <point x="221" y="597"/>
      <point x="213" y="595"/>
      <point x="213" y="556" type="curve" smooth="yes"/>
      <point x="213" y="556"/>
      <point x="213" y="435"/>
      <point x="213" y="274" type="curve" smooth="yes"/>
      <point x="213" y="109"/>
      <point x="277" y="33"/>
      <point x="431" y="33" type="curve" smooth="yes"/>
      <point x="562" y="33"/>
      <point x="628" y="115"/>
      <point x="628" y="260" type="curve" smooth="yes"/>
      <point x="628" y="343"/>
      <point x="628" y="541"/>
      <point x="628" y="541" type="curve" smooth="yes"/>
      <point x="628" y="588"/>
      <point x="604" y="601"/>
      <point x="563" y="608" type="curve" smooth="yes"/>
      <point x="538" y="613"/>
      <point x="536" y="616"/>
      <point x="536" y="626" type="curve" smooth="yes"/>
      <point x="536" y="643"/>
      <point x="537" y="645"/>
      <point x="567" y="644" type="curve" smooth="yes"/>
      <point x="615" y="642"/>
      <point x="704" y="639"/>
      <point x="754" y="644" type="curve" smooth="yes"/>
      <point x="773" y="646"/>
      <point x="776" y="644"/>
    </contour>
  </outline>
</glyph>
<glyph name="V" format="1">
  <advance width="812"/>
  <unicode hex="0056"/>
  <outline>
    <contour>
      <point x="773" y="630" type="curve" smooth="yes"/>
      <point x="773" y="616"/>
      <point x="770" y="613"/>
      <point x="741" y="604" type="curve" smooth="yes"/>
      <point x="724" y="599"/>
      <point x="710" y="585"/>
      <point x="684" y="537" type="curve" smooth="yes"/>
      <point x="607" y="392"/>
      <point x="513" y="185"/>
      <point x="442" y="11" type="curve" smooth="yes"/>
      <point x="437" y="-2"/>
      <point x="425" y="-12"/>
      <point x="406" y="-17" type="curve"/>
      <point x="399" y="-21"/>
      <point x="390" y="-11"/>
      <point x="384" y="11" type="curve" smooth="yes"/>
      <point x="363" y="92"/>
      <point x="231" y="378"/>
      <point x="132" y="554" type="curve" smooth="yes"/>
      <point x="115" y="585"/>
      <point x="94" y="603"/>
      <point x="63" y="609" type="curve" smooth="yes"/>
      <point x="46" y="613"/>
      <point x="39" y="613"/>
      <point x="39" y="623" type="curve" smooth="yes"/>
      <point x="39" y="640"/>
      <point x="45" y="645"/>
      <point x="60" y="643" type="curve" smooth="yes"/>
      <point x="100" y="639"/>
      <point x="180" y="638"/>
      <point x="269" y="652" type="curve" smooth="yes"/>
      <point x="295" y="656"/>
      <point x="299" y="654"/>
      <point x="299" y="637" type="curve" smooth="yes"/>
      <point x="299" y="629"/>
      <point x="299" y="626"/>
      <point x="274" y="617" type="curve" smooth="yes"/>
      <point x="224" y="599"/>
      <point x="218" y="585"/>
      <point x="231" y="559" type="curve" smooth="yes"/>
      <point x="301" y="422"/>
      <point x="357" y="285"/>
      <point x="422" y="135" type="curve" smooth="yes"/>
      <point x="428" y="121"/>
      <point x="433" y="119"/>
      <point x="440" y="135" type="curve" smooth="yes"/>
      <point x="491" y="253"/>
      <point x="580" y="449"/>
      <point x="620" y="538" type="curve" smooth="yes"/>
      <point x="635" y="571"/>
      <point x="618" y="593"/>
      <point x="566" y="611" type="curve" smooth="yes"/>
      <point x="546" y="618"/>
      <point x="544" y="622"/>
      <point x="545" y="634" type="curve" smooth="yes"/>
      <point x="546" y="648"/>
      <point x="551" y="650"/>
      <point x="577" y="647" type="curve" smooth="yes"/>
      <point x="667" y="636"/>
      <point x="712" y="640"/>
      <point x="751" y="645" type="curve" smooth="yes"/>
      <point x="767" y="647"/>
      <point x="773" y="646"/>
    </contour>
  </outline>
</glyph>
<glyph name="W" format="1">
  <advance width="1120"/>
  <unicode hex="0057"/>
  <outline>
    <contour>
      <point x="1080" y="622" type="curve" smooth="yes"/>
      <point x="1080" y="608"/>
      <point x="1075" y="604"/>
      <point x="1049" y="596" type="curve" smooth="yes"/>
      <point x="1032" y="591"/>
      <point x="1013" y="580"/>
      <point x="992" y="529" type="curve" smooth="yes"/>
      <point x="929" y="373"/>
      <point x="858" y="195"/>
      <point x="788" y="11" type="curve" smooth="yes"/>
      <point x="783" y="-2"/>
      <point x="770" y="-12"/>
      <point x="752" y="-17" type="curve"/>
      <point x="744" y="-21"/>
      <point x="734" y="-11"/>
      <point x="729" y="11" type="curve" smooth="yes"/>
      <point x="717" y="70"/>
      <point x="640" y="268"/>
      <point x="566" y="435" type="curve"/>
      <point x="514" y="305"/>
      <point x="460" y="162"/>
      <point x="404" y="11" type="curve" smooth="yes"/>
      <point x="399" y="-2"/>
      <point x="387" y="-12"/>
      <point x="369" y="-17" type="curve"/>
      <point x="361" y="-21"/>
      <point x="350" y="-11"/>
      <point x="346" y="11" type="curve" smooth="yes"/>
      <point x="333" y="81"/>
      <point x="218" y="354"/>
      <point x="132" y="546" type="curve" smooth="yes"/>
      <point x="118" y="577"/>
      <point x="94" y="595"/>
      <point x="63" y="602" type="curve" smooth="yes"/>
      <point x="46" y="606"/>
      <point x="39" y="606"/>
      <point x="39" y="616" type="curve" smooth="yes"/>
      <point x="39" y="633"/>
      <point x="45" y="636"/>
      <point x="60" y="635" type="curve" smooth="yes"/>
      <point x="100" y="631"/>
      <point x="161" y="632"/>
      <point x="249" y="645" type="curve" smooth="yes"/>
      <point x="275" y="649"/>
      <point x="277" y="647"/>
      <point x="279" y="631" type="curve"/>
      <point x="281" y="623"/>
      <point x="276" y="619"/>
      <point x="255" y="608" type="curve" smooth="yes"/>
      <point x="224" y="593"/>
      <point x="218" y="578"/>
      <point x="228" y="552" type="curve" smooth="yes"/>
      <point x="286" y="406"/>
      <point x="326" y="293"/>
      <point x="384" y="140" type="curve" smooth="yes"/>
      <point x="388" y="130"/>
      <point x="397" y="126"/>
      <point x="402" y="140" type="curve" smooth="yes"/>
      <point x="437" y="233"/>
      <point x="496" y="390"/>
      <point x="537" y="500" type="curve"/>
      <point x="530" y="516"/>
      <point x="522" y="532"/>
      <point x="515" y="546" type="curve" smooth="yes"/>
      <point x="501" y="576"/>
      <point x="483" y="589"/>
      <point x="453" y="603" type="curve" smooth="yes"/>
      <point x="437" y="610"/>
      <point x="431" y="613"/>
      <point x="432" y="623" type="curve" smooth="yes"/>
      <point x="434" y="639"/>
      <point x="439" y="644"/>
      <point x="454" y="642" type="curve" smooth="yes"/>
      <point x="494" y="635"/>
      <point x="558" y="630"/>
      <point x="648" y="639" type="curve" smooth="yes"/>
      <point x="674" y="642"/>
      <point x="677" y="640"/>
      <point x="677" y="623" type="curve" smooth="yes"/>
      <point x="677" y="615"/>
      <point x="677" y="611"/>
      <point x="652" y="603" type="curve" smooth="yes"/>
      <point x="600" y="587"/>
      <point x="599" y="578"/>
      <point x="609" y="552" type="curve" smooth="yes"/>
      <point x="666" y="404"/>
      <point x="707" y="294"/>
      <point x="766" y="140" type="curve" smooth="yes"/>
      <point x="771" y="128"/>
      <point x="780" y="126"/>
      <point x="785" y="140" type="curve" smooth="yes"/>
      <point x="831" y="261"/>
      <point x="895" y="428"/>
      <point x="931" y="530" type="curve" smooth="yes"/>
      <point x="943" y="564"/>
      <point x="929" y="586"/>
      <point x="877" y="604" type="curve" smooth="yes"/>
      <point x="858" y="610"/>
      <point x="855" y="613"/>
      <point x="856" y="626" type="curve" smooth="yes"/>
      <point x="857" y="640"/>
      <point x="859" y="642"/>
      <point x="888" y="639" type="curve" smooth="yes"/>
      <point x="978" y="628"/>
      <point x="1020" y="633"/>
      <point x="1059" y="637" type="curve" smooth="yes"/>
      <point x="1075" y="639"/>
      <point x="1080" y="638"/>
    </contour>
  </outline>
</glyph>
<glyph name="X" format="1">
  <advance width="776"/>
  <unicode hex="0058"/>
  <outline>
    <contour>
      <point x="723" y="16" type="curve" smooth="yes"/>
      <point x="722" y="-1"/>
      <point x="717" y="-4"/>
      <point x="702" y="-2" type="curve" smooth="yes"/>
      <point x="665" y="4"/>
      <point x="586" y="8"/>
      <point x="501" y="-1" type="curve" smooth="yes"/>
      <point x="477" y="-4"/>
      <point x="473" y="-1"/>
      <point x="474" y="15" type="curve" smooth="yes"/>
      <point x="474" y="21"/>
      <point x="477" y="28"/>
      <point x="498" y="35" type="curve" smooth="yes"/>
      <point x="525" y="44"/>
      <point x="529" y="66"/>
      <point x="514" y="86" type="curve" smooth="yes"/>
      <point x="474" y="139"/>
      <point x="424" y="207"/>
      <point x="374" y="277" type="curve"/>
      <point x="313" y="205"/>
      <point x="262" y="139"/>
      <point x="244" y="108" type="curve" smooth="yes"/>
      <point x="225" y="75"/>
      <point x="225" y="49"/>
      <point x="261" y="35" type="curve" smooth="yes"/>
      <point x="272" y="31"/>
      <point x="282" y="24"/>
      <point x="281" y="12" type="curve" smooth="yes"/>
      <point x="280" y="-2"/>
      <point x="275" y="-4"/>
      <point x="250" y="-1" type="curve" smooth="yes"/>
      <point x="164" y="10"/>
      <point x="115" y="5"/>
      <point x="78" y="1" type="curve" smooth="yes"/>
      <point x="62" y="-1"/>
      <point x="58" y="0"/>
      <point x="58" y="16" type="curve" smooth="yes"/>
      <point x="58" y="30"/>
      <point x="62" y="34"/>
      <point x="87" y="42" type="curve" smooth="yes"/>
      <point x="103" y="47"/>
      <point x="144" y="69"/>
      <point x="176" y="109" type="curve" smooth="yes"/>
      <point x="207" y="147"/>
      <point x="279" y="231"/>
      <point x="349" y="313" type="curve"/>
      <point x="295" y="391"/>
      <point x="235" y="480"/>
      <point x="176" y="549" type="curve" smooth="yes"/>
      <point x="154" y="576"/>
      <point x="115" y="597"/>
      <point x="85" y="604" type="curve" smooth="yes"/>
      <point x="68" y="608"/>
      <point x="62" y="608"/>
      <point x="62" y="618" type="curve" smooth="yes"/>
      <point x="62" y="635"/>
      <point x="67" y="638"/>
      <point x="82" y="637" type="curve" smooth="yes"/>
      <point x="120" y="633"/>
      <point x="199" y="634"/>
      <point x="283" y="647" type="curve" smooth="yes"/>
      <point x="307" y="651"/>
      <point x="312" y="649"/>
      <point x="312" y="632" type="curve" smooth="yes"/>
      <point x="312" y="626"/>
      <point x="309" y="619"/>
      <point x="288" y="611" type="curve" smooth="yes"/>
      <point x="251" y="597"/>
      <point x="259" y="577"/>
      <point x="275" y="554" type="curve" smooth="yes"/>
      <point x="318" y="495"/>
      <point x="358" y="438"/>
      <point x="399" y="376" type="curve"/>
      <point x="454" y="442"/>
      <point x="505" y="505"/>
      <point x="521" y="538" type="curve" smooth="yes"/>
      <point x="536" y="567"/>
      <point x="540" y="598"/>
      <point x="505" y="611" type="curve" smooth="yes"/>
      <point x="493" y="616"/>
      <point x="483" y="622"/>
      <point x="484" y="634" type="curve" smooth="yes"/>
      <point x="485" y="648"/>
      <point x="491" y="650"/>
      <point x="514" y="647" type="curve" smooth="yes"/>
      <point x="600" y="636"/>
      <point x="650" y="640"/>
      <point x="687" y="645" type="curve" smooth="yes"/>
      <point x="702" y="647"/>
      <point x="708" y="646"/>
      <point x="708" y="630" type="curve" smooth="yes"/>
      <point x="708" y="616"/>
      <point x="700" y="611"/>
      <point x="676" y="602" type="curve" smooth="yes"/>
      <point x="645" y="590"/>
      <point x="608" y="561"/>
      <point x="589" y="537" type="curve" smooth="yes"/>
      <point x="542" y="480"/>
      <point x="482" y="406"/>
      <point x="426" y="339" type="curve"/>
      <point x="477" y="264"/>
      <point x="539" y="177"/>
      <point x="613" y="92" type="curve" smooth="yes"/>
      <point x="635" y="67"/>
      <point x="672" y="39"/>
      <point x="701" y="31" type="curve" smooth="yes"/>
      <point x="719" y="26"/>
      <point x="724" y="26"/>
    </contour>
  </outline>
</glyph>
<glyph name="Y" format="1">
  <advance width="769"/>
  <unicode hex="0059"/>
  <outline>
    <contour>
      <point x="740" y="630" type="curve" smooth="yes"/>
      <point x="740" y="616"/>
      <point x="735" y="612"/>
      <point x="709" y="604" type="curve" smooth="yes"/>
      <point x="692" y="599"/>
      <point x="664" y="581"/>
      <point x="630" y="537" type="curve" smooth="yes"/>
      <point x="548" y="430"/>
      <point x="493" y="361"/>
      <point x="437" y="269" type="curve"/>
      <point x="437" y="224"/>
      <point x="437" y="146"/>
      <point x="437" y="96" type="curve" smooth="yes"/>
      <point x="437" y="53"/>
      <point x="444" y="43"/>
      <point x="500" y="30" type="curve" smooth="yes"/>
      <point x="522" y="25"/>
      <point x="528" y="19"/>
      <point x="526" y="6" type="curve" smooth="yes"/>
      <point x="523" y="-8"/>
      <point x="519" y="-7"/>
      <point x="494" y="-5" type="curve" smooth="yes"/>
      <point x="418" y="2"/>
      <point x="340" y="-1"/>
      <point x="303" y="-4" type="curve"/>
      <point x="276" y="-9"/>
      <point x="273" y="-4"/>
      <point x="271" y="8" type="curve" smooth="yes"/>
      <point x="269" y="19"/>
      <point x="273" y="25"/>
      <point x="288" y="29" type="curve" smooth="yes"/>
      <point x="342" y="43"/>
      <point x="352" y="57"/>
      <point x="352" y="110" type="curve" smooth="yes"/>
      <point x="352" y="159"/>
      <point x="352" y="243"/>
      <point x="352" y="243" type="curve"/>
      <point x="309" y="327"/>
      <point x="255" y="409"/>
      <point x="132" y="554" type="curve" smooth="yes"/>
      <point x="110" y="580"/>
      <point x="82" y="603"/>
      <point x="52" y="609" type="curve" smooth="yes"/>
      <point x="33" y="613"/>
      <point x="28" y="613"/>
      <point x="28" y="623" type="curve" smooth="yes"/>
      <point x="28" y="640"/>
      <point x="32" y="645"/>
      <point x="49" y="643" type="curve" smooth="yes"/>
      <point x="89" y="638"/>
      <point x="175" y="638"/>
      <point x="264" y="652" type="curve" smooth="yes"/>
      <point x="290" y="656"/>
      <point x="294" y="654"/>
      <point x="294" y="637" type="curve" smooth="yes"/>
      <point x="294" y="632"/>
      <point x="291" y="625"/>
      <point x="269" y="617" type="curve" smooth="yes"/>
      <point x="218" y="598"/>
      <point x="221" y="581"/>
      <point x="237" y="559" type="curve" smooth="yes"/>
      <point x="298" y="478"/>
      <point x="338" y="416"/>
      <point x="399" y="321" type="curve" smooth="yes"/>
      <point x="407" y="309"/>
      <point x="410" y="309"/>
      <point x="418" y="321" type="curve" smooth="yes"/>
      <point x="462" y="387"/>
      <point x="519" y="463"/>
      <point x="569" y="538" type="curve" smooth="yes"/>
      <point x="589" y="568"/>
      <point x="589" y="593"/>
      <point x="537" y="611" type="curve" smooth="yes"/>
      <point x="515" y="618"/>
      <point x="514" y="622"/>
      <point x="515" y="634" type="curve" smooth="yes"/>
      <point x="517" y="648"/>
      <point x="522" y="650"/>
      <point x="548" y="647" type="curve" smooth="yes"/>
      <point x="638" y="636"/>
      <point x="680" y="640"/>
      <point x="719" y="645" type="curve" smooth="yes"/>
      <point x="735" y="647"/>
      <point x="740" y="646"/>
    </contour>
  </outline>
</glyph>
<glyph name="Z" format="1">
  <advance width="683"/>
  <unicode hex="005A"/>
  <outline>
    <contour>
      <point x="620" y="151" type="curve" smooth="yes"/>
      <point x="621" y="113"/>
      <point x="614" y="32"/>
      <point x="606" y="1" type="curve" smooth="yes"/>
      <point x="604" y="-6"/>
      <point x="600" y="-10"/>
      <point x="576" y="-8" type="curve" smooth="yes"/>
      <point x="520" y="-3"/>
      <point x="432" y="1"/>
      <point x="341" y="1" type="curve" smooth="yes"/>
      <point x="244" y="1"/>
      <point x="163" y="2"/>
      <point x="87" y="-4" type="curve" smooth="yes"/>
      <point x="62" y="-6"/>
      <point x="58" y="-3"/>
      <point x="54" y="3" type="curve"/>
      <point x="49" y="14"/>
      <point x="50" y="17"/>
      <point x="63" y="33" type="curve" smooth="yes"/>
      <point x="191" y="198"/>
      <point x="347" y="405"/>
      <point x="465" y="577" type="curve" smooth="yes"/>
      <point x="477" y="594"/>
      <point x="476" y="597"/>
      <point x="428" y="597" type="curve" smooth="yes"/>
      <point x="386" y="597"/>
      <point x="352" y="597"/>
      <point x="309" y="597" type="curve" smooth="yes"/>
      <point x="175" y="597"/>
      <point x="147" y="562"/>
      <point x="114" y="482" type="curve" smooth="yes"/>
      <point x="109" y="469"/>
      <point x="102" y="464"/>
      <point x="90" y="469" type="curve"/>
      <point x="77" y="472"/>
      <point x="76" y="478"/>
      <point x="78" y="487" type="curve" smooth="yes"/>
      <point x="86" y="518"/>
      <point x="95" y="597"/>
      <point x="95" y="636" type="curve" smooth="yes"/>
      <point x="95" y="644"/>
      <point x="102" y="647"/>
      <point x="126" y="645" type="curve" smooth="yes"/>
      <point x="222" y="639"/>
      <point x="275" y="638"/>
      <point x="370" y="638" type="curve" smooth="yes"/>
      <point x="449" y="638"/>
      <point x="510" y="638"/>
      <point x="580" y="643" type="curve" smooth="yes"/>
      <point x="600" y="644"/>
      <point x="605" y="647"/>
      <point x="609" y="637" type="curve" smooth="yes"/>
      <point x="614" y="627"/>
      <point x="610" y="623"/>
      <point x="600" y="611" type="curve" smooth="yes"/>
      <point x="434" y="400"/>
      <point x="308" y="229"/>
      <point x="206" y="81" type="curve" smooth="yes"/>
      <point x="191" y="60"/>
      <point x="194" y="50"/>
      <point x="224" y="48" type="curve" smooth="yes"/>
      <point x="272" y="44"/>
      <point x="320" y="43"/>
      <point x="392" y="43" type="curve" smooth="yes"/>
      <point x="537" y="43"/>
      <point x="558" y="69"/>
      <point x="585" y="154" type="curve" smooth="yes"/>
      <point x="589" y="168"/>
      <point x="593" y="172"/>
      <point x="608" y="168" type="curve" smooth="yes"/>
      <point x="621" y="165"/>
      <point x="620" y="160"/>
    </contour>
  </outline>
</glyph>
<glyph name="bracketleft" format="1">
  <advance width="410"/>
  <unicode hex="005B"/>
  <outline>
    <contour>
      <point x="382" y="-151" type="curve" smooth="yes"/>
      <point x="381" y="-165"/>
      <point x="376" y="-166"/>
      <point x="359" y="-164" type="curve" smooth="yes"/>
      <point x="313" y="-159"/>
      <point x="153" y="-155"/>
      <point x="123" y="-156" type="curve" smooth="yes"/>
      <point x="92" y="-157"/>
      <point x="85" y="-152"/>
      <point x="87" y="-127" type="curve" smooth="yes"/>
      <point x="93" y="-33"/>
      <point x="95" y="126"/>
      <point x="95" y="284" type="curve" smooth="yes"/>
      <point x="95" y="434"/>
      <point x="93" y="602"/>
      <point x="87" y="696" type="curve" smooth="yes"/>
      <point x="85" y="721"/>
      <point x="92" y="726"/>
      <point x="123" y="725" type="curve" smooth="yes"/>
      <point x="153" y="724"/>
      <point x="313" y="728"/>
      <point x="359" y="733" type="curve" smooth="yes"/>
      <point x="376" y="735"/>
      <point x="381" y="734"/>
      <point x="382" y="720" type="curve" smooth="yes"/>
      <point x="383" y="704"/>
      <point x="378" y="703"/>
      <point x="368" y="702" type="curve" smooth="yes"/>
      <point x="292" y="695"/>
      <point x="244" y="688"/>
      <point x="203" y="681" type="curve" smooth="yes"/>
      <point x="176" y="676"/>
      <point x="169" y="664"/>
      <point x="168" y="638" type="curve" smooth="yes"/>
      <point x="166" y="565"/>
      <point x="166" y="423"/>
      <point x="166" y="285" type="curve" smooth="yes"/>
      <point x="166" y="147"/>
      <point x="166" y="4"/>
      <point x="168" y="-69" type="curve" smooth="yes"/>
      <point x="169" y="-95"/>
      <point x="176" y="-107"/>
      <point x="203" y="-112" type="curve" smooth="yes"/>
      <point x="244" y="-119"/>
      <point x="292" y="-126"/>
      <point x="368" y="-133" type="curve" smooth="yes"/>
      <point x="378" y="-134"/>
      <point x="383" y="-135"/>
    </contour>
  </outline>
</glyph>
<glyph name="backslash" format="1">
  <advance width="492"/>
  <unicode hex="005C"/>
  <outline>
    <contour>
      <point x="517" y="-143" type="curve" smooth="yes"/>
      <point x="522" y="-153"/>
      <point x="515" y="-157"/>
      <point x="502" y="-165" type="curve" smooth="yes"/>
      <point x="486" y="-174"/>
      <point x="480" y="-175"/>
      <point x="475" y="-166" type="curve" smooth="yes"/>
      <point x="354" y="66"/>
      <point x="137" y="477"/>
      <point x="17" y="702" type="curve"/>
      <point x="13" y="712"/>
      <point x="17" y="717"/>
      <point x="32" y="725" type="curve" smooth="yes"/>
      <point x="48" y="733"/>
      <point x="55" y="734"/>
      <point x="59" y="726" type="curve" smooth="yes"/>
      <point x="214" y="433"/>
      <point x="397" y="82"/>
    </contour>
  </outline>
</glyph>
<glyph name="bracketright" format="1">
  <advance width="410"/>
  <unicode hex="005D"/>
  <outline>
    <contour>
      <point x="323" y="-127" type="curve" smooth="yes"/>
      <point x="325" y="-152"/>
      <point x="318" y="-157"/>
      <point x="287" y="-156" type="curve" smooth="yes"/>
      <point x="257" y="-155"/>
      <point x="97" y="-159"/>
      <point x="51" y="-164" type="curve" smooth="yes"/>
      <point x="34" y="-166"/>
      <point x="29" y="-165"/>
      <point x="28" y="-151" type="curve" smooth="yes"/>
      <point x="27" y="-135"/>
      <point x="32" y="-134"/>
      <point x="42" y="-133" type="curve" smooth="yes"/>
      <point x="118" y="-126"/>
      <point x="166" y="-119"/>
      <point x="207" y="-112" type="curve" smooth="yes"/>
      <point x="234" y="-107"/>
      <point x="241" y="-95"/>
      <point x="242" y="-69" type="curve" smooth="yes"/>
      <point x="244" y="4"/>
      <point x="244" y="147"/>
      <point x="244" y="285" type="curve" smooth="yes"/>
      <point x="244" y="423"/>
      <point x="244" y="565"/>
      <point x="242" y="638" type="curve" smooth="yes"/>
      <point x="241" y="664"/>
      <point x="234" y="676"/>
      <point x="207" y="681" type="curve" smooth="yes"/>
      <point x="166" y="688"/>
      <point x="118" y="695"/>
      <point x="42" y="702" type="curve" smooth="yes"/>
      <point x="32" y="703"/>
      <point x="27" y="704"/>
      <point x="28" y="720" type="curve" smooth="yes"/>
      <point x="29" y="734"/>
      <point x="34" y="735"/>
      <point x="51" y="733" type="curve" smooth="yes"/>
      <point x="97" y="728"/>
      <point x="257" y="724"/>
      <point x="287" y="725" type="curve" smooth="yes"/>
      <point x="318" y="726"/>
      <point x="325" y="721"/>
      <point x="323" y="696" type="curve" smooth="yes"/>
      <point x="317" y="602"/>
      <point x="315" y="434"/>
      <point x="315" y="284" type="curve" smooth="yes"/>
      <point x="315" y="126"/>
      <point x="317" y="-33"/>
    </contour>
  </outline>
</glyph>
<glyph name="grave" format="1">
  <advance width="478"/>
  <unicode hex="0060"/>
  <outline>
    <contour>
      <point x="330" y="465" type="curve" smooth="yes"/>
      <point x="334" y="460"/>
      <point x="333" y="456"/>
      <point x="324" y="451" type="curve" smooth="yes"/>
      <point x="310" y="442"/>
      <point x="305" y="444"/>
      <point x="298" y="450" type="curve" smooth="yes"/>
      <point x="249" y="493"/>
      <point x="220" y="522"/>
      <point x="173" y="579" type="curve"/>
      <point x="167" y="588"/>
      <point x="162" y="598"/>
      <point x="162" y="605" type="curve" smooth="yes"/>
      <point x="162" y="615"/>
      <point x="196" y="638"/>
      <point x="224" y="638" type="curve" smooth="yes"/>
      <point x="231" y="638"/>
      <point x="238" y="634"/>
      <point x="248" y="624" type="curve" smooth="yes"/>
      <point x="265" y="605"/>
      <point x="280" y="532"/>
    </contour>
  </outline>
</glyph>
<glyph name="a" format="1">
  <advance width="448"/>
  <unicode hex="0061"/>
  <outline>
    <contour>
      <point x="430" y="47" type="curve" smooth="yes"/>
      <point x="430" y="34"/>
      <point x="364" y="-5"/>
      <point x="333" y="-5" type="curve" smooth="yes"/>
      <point x="299" y="-5"/>
      <point x="295" y="32"/>
      <point x="279" y="32" type="curve" smooth="yes"/>
      <point x="257" y="32"/>
      <point x="220" y="-8"/>
      <point x="148" y="-8" type="curve" smooth="yes"/>
      <point x="98" y="-8"/>
      <point x="52" y="24"/>
      <point x="52" y="86" type="curve" smooth="yes"/>
      <point x="52" y="145"/>
      <point x="126" y="185"/>
      <point x="245" y="207" type="curve" smooth="yes"/>
      <point x="269" y="212"/>
      <point x="278" y="217"/>
      <point x="279" y="234" type="curve" smooth="yes"/>
      <point x="280" y="265" type="line" smooth="yes"/>
      <point x="282" y="316"/>
      <point x="264" y="345"/>
      <point x="209" y="345" type="curve" smooth="yes"/>
      <point x="189" y="345"/>
      <point x="177" y="324"/>
      <point x="169" y="307" type="curve" smooth="yes"/>
      <point x="161" y="292"/>
      <point x="148" y="270"/>
      <point x="115" y="267" type="curve" smooth="yes"/>
      <point x="93" y="265"/>
      <point x="75" y="278"/>
      <point x="75" y="301" type="curve" smooth="yes"/>
      <point x="75" y="330"/>
      <point x="174" y="388"/>
      <point x="255" y="388" type="curve" smooth="yes"/>
      <point x="326" y="388"/>
      <point x="354" y="350"/>
      <point x="353" y="294" type="curve" smooth="yes"/>
      <point x="351" y="93" type="line" smooth="yes"/>
      <point x="351" y="73"/>
      <point x="362" y="61"/>
      <point x="378" y="61" type="curve" smooth="yes"/>
      <point x="388" y="61"/>
      <point x="410" y="66"/>
      <point x="416" y="66" type="curve" smooth="yes"/>
      <point x="424" y="66"/>
      <point x="430" y="55"/>
    </contour>
    <contour>
      <point x="280" y="158" type="line" smooth="yes"/>
      <point x="280" y="175"/>
      <point x="272" y="179"/>
      <point x="255" y="176" type="curve" smooth="yes"/>
      <point x="162" y="159"/>
      <point x="137" y="134"/>
      <point x="137" y="99" type="curve" smooth="yes"/>
      <point x="137" y="58"/>
      <point x="162" y="43"/>
      <point x="198" y="43" type="curve" smooth="yes"/>
      <point x="225" y="43"/>
      <point x="279" y="56"/>
      <point x="279" y="78" type="curve" smooth="yes"/>
    </contour>
  </outline>
</glyph>
<glyph name="b" format="1">
  <advance width="501"/>
  <unicode hex="0062"/>
  <outline>
    <contour>
      <point x="462" y="219" type="curve" smooth="yes"/>
      <point x="462" y="87"/>
      <point x="356" y="-6"/>
      <point x="241" y="-6" type="curve" smooth="yes"/>
      <point x="172" y="-6"/>
      <point x="84" y="23"/>
      <point x="83" y="40" type="curve" smooth="yes"/>
      <point x="82" y="62"/>
      <point x="85" y="161"/>
      <point x="85" y="239" type="curve" smooth="yes"/>
      <point x="85" y="345"/>
      <point x="83" y="468"/>
      <point x="83" y="546" type="curve" smooth="yes"/>
      <point x="83" y="594"/>
      <point x="72" y="604"/>
      <point x="30" y="613" type="curve"/>
      <point x="18" y="617"/>
      <point x="17" y="618"/>
      <point x="17" y="629" type="curve" smooth="yes"/>
      <point x="17" y="638"/>
      <point x="18" y="639"/>
      <point x="36" y="646" type="curve" smooth="yes"/>
      <point x="89" y="665"/>
      <point x="128" y="697"/>
      <point x="144" y="697" type="curve" smooth="yes"/>
      <point x="157" y="697"/>
      <point x="159" y="689"/>
      <point x="159" y="672" type="curve" smooth="yes"/>
      <point x="159" y="649"/>
      <point x="157" y="607"/>
      <point x="157" y="528" type="curve" smooth="yes"/>
      <point x="158" y="359" type="line" smooth="yes"/>
      <point x="158" y="342"/>
      <point x="166" y="340"/>
      <point x="175" y="345" type="curve" smooth="yes"/>
      <point x="202" y="361"/>
      <point x="252" y="379"/>
      <point x="297" y="379" type="curve" smooth="yes"/>
      <point x="394" y="379"/>
      <point x="462" y="315"/>
    </contour>
    <contour>
      <point x="384" y="176" type="curve" smooth="yes"/>
      <point x="384" y="268"/>
      <point x="326" y="326"/>
      <point x="261" y="326" type="curve" smooth="yes"/>
      <point x="216" y="326"/>
      <point x="159" y="297"/>
      <point x="159" y="270" type="curve" smooth="yes"/>
      <point x="159" y="139" type="line" smooth="yes"/>
      <point x="159" y="77"/>
      <point x="190" y="45"/>
      <point x="263" y="45" type="curve" smooth="yes"/>
      <point x="334" y="45"/>
      <point x="384" y="93"/>
    </contour>
  </outline>
</glyph>
<glyph name="c" format="1">
  <advance width="427"/>
  <unicode hex="0063"/>
  <outline>
    <contour>
      <point x="388" y="63" type="curve" smooth="yes"/>
      <point x="388" y="42"/>
      <point x="307" y="-9"/>
      <point x="230" y="-9" type="curve" smooth="yes"/>
      <point x="123" y="-9"/>
      <point x="39" y="56"/>
      <point x="39" y="173" type="curve" smooth="yes"/>
      <point x="39" y="296"/>
      <point x="136" y="384"/>
      <point x="255" y="384" type="curve" smooth="yes"/>
      <point x="332" y="384"/>
      <point x="387" y="357"/>
      <point x="387" y="337" type="curve" smooth="yes"/>
      <point x="387" y="323"/>
      <point x="355" y="280"/>
      <point x="339" y="280" type="curve" smooth="yes"/>
      <point x="331" y="280"/>
      <point x="317" y="291"/>
      <point x="305" y="301" type="curve" smooth="yes"/>
      <point x="278" y="322"/>
      <point x="254" y="340"/>
      <point x="228" y="340" type="curve" smooth="yes"/>
      <point x="172" y="340"/>
      <point x="126" y="295"/>
      <point x="126" y="207" type="curve" smooth="yes"/>
      <point x="126" y="99"/>
      <point x="195" y="43"/>
      <point x="263" y="43" type="curve" smooth="yes"/>
      <point x="298" y="43"/>
      <point x="334" y="53"/>
      <point x="366" y="73" type="curve" smooth="yes"/>
      <point x="371" y="76"/>
      <point x="375" y="76"/>
      <point x="378" y="76" type="curve" smooth="yes"/>
      <point x="383" y="76"/>
      <point x="388" y="73"/>
    </contour>
  </outline>
</glyph>
<glyph name="d" format="1">
  <advance width="522"/>
  <unicode hex="0064"/>
  <outline>
    <contour>
      <point x="502" y="48" type="curve" smooth="yes"/>
      <point x="507" y="37"/>
      <point x="506" y="32"/>
      <point x="454" y="8" type="curve" smooth="yes"/>
      <point x="429" y="-4"/>
      <point x="399" y="-19"/>
      <point x="386" y="-19" type="curve" smooth="yes"/>
      <point x="370" y="-19"/>
      <point x="360" y="40"/>
      <point x="350" y="40" type="curve" smooth="yes"/>
      <point x="341" y="40"/>
      <point x="258" y="-11"/>
      <point x="210" y="-11" type="curve" smooth="yes"/>
      <point x="137" y="-11"/>
      <point x="41" y="45"/>
      <point x="41" y="190" type="curve" smooth="yes"/>
      <point x="41" y="311"/>
      <point x="158" y="387"/>
      <point x="230" y="387" type="curve" smooth="yes"/>
      <point x="278" y="387"/>
      <point x="307" y="381"/>
      <point x="335" y="376" type="curve" smooth="yes"/>
      <point x="346" y="374"/>
      <point x="354" y="373"/>
      <point x="354" y="387" type="curve" smooth="yes"/>
      <point x="354" y="554" type="line" smooth="yes"/>
      <point x="354" y="590"/>
      <point x="344" y="598"/>
      <point x="299" y="613" type="curve" smooth="yes"/>
      <point x="285" y="618"/>
      <point x="283" y="620"/>
      <point x="283" y="632" type="curve" smooth="yes"/>
      <point x="283" y="644"/>
      <point x="286" y="645"/>
      <point x="304" y="650" type="curve" smooth="yes"/>
      <point x="358" y="666"/>
      <point x="397" y="697"/>
      <point x="414" y="697" type="curve" smooth="yes"/>
      <point x="430" y="697"/>
      <point x="432" y="689"/>
      <point x="432" y="672" type="curve" smooth="yes"/>
      <point x="432" y="657"/>
      <point x="429" y="605"/>
      <point x="429" y="528" type="curve" smooth="yes"/>
      <point x="429" y="84" type="line" smooth="yes"/>
      <point x="429" y="58"/>
      <point x="439" y="52"/>
      <point x="479" y="59" type="curve" smooth="yes"/>
      <point x="496" y="62"/>
      <point x="498" y="59"/>
    </contour>
    <contour>
      <point x="351" y="96" type="curve" smooth="yes"/>
      <point x="351" y="271" type="line" smooth="yes"/>
      <point x="351" y="297"/>
      <point x="292" y="340"/>
      <point x="225" y="340" type="curve" smooth="yes"/>
      <point x="163" y="340"/>
      <point x="123" y="297"/>
      <point x="123" y="214" type="curve" smooth="yes"/>
      <point x="123" y="123"/>
      <point x="187" y="51"/>
      <point x="259" y="51" type="curve" smooth="yes"/>
      <point x="292" y="51"/>
      <point x="351" y="80"/>
    </contour>
  </outline>
</glyph>
<glyph name="e" format="1">
  <advance width="435"/>
  <unicode hex="0065"/>
  <outline>
    <contour>
      <point x="404" y="82" type="curve" smooth="yes"/>
      <point x="404" y="59"/>
      <point x="315" y="-5"/>
      <point x="215" y="-5" type="curve" smooth="yes"/>
      <point x="121" y="-5"/>
      <point x="37" y="62"/>
      <point x="37" y="180" type="curve" smooth="yes"/>
      <point x="37" y="315"/>
      <point x="132" y="390"/>
      <point x="235" y="390" type="curve" smooth="yes"/>
      <point x="304" y="390"/>
      <point x="360" y="339"/>
      <point x="375" y="297" type="curve" smooth="yes"/>
      <point x="378" y="288"/>
      <point x="382" y="284"/>
      <point x="388" y="283" type="curve" smooth="yes"/>
      <point x="399" y="281"/>
      <point x="401" y="276"/>
      <point x="401" y="266" type="curve" smooth="yes"/>
      <point x="401" y="252"/>
      <point x="395" y="244"/>
      <point x="353" y="232" type="curve" smooth="yes"/>
      <point x="128" y="165" type="line"/>
      <point x="141" y="96"/>
      <point x="181" y="49"/>
      <point x="247" y="49" type="curve" smooth="yes"/>
      <point x="303" y="49"/>
      <point x="357" y="80"/>
      <point x="375" y="90" type="curve" smooth="yes"/>
      <point x="385" y="96"/>
      <point x="389" y="96"/>
      <point x="396" y="96" type="curve" smooth="yes"/>
      <point x="401" y="96"/>
      <point x="404" y="91"/>
    </contour>
    <contour>
      <point x="288" y="278" type="curve" smooth="yes"/>
      <point x="288" y="313"/>
      <point x="256" y="345"/>
      <point x="213" y="345" type="curve" smooth="yes"/>
      <point x="161" y="345"/>
      <point x="123" y="307"/>
      <point x="123" y="216" type="curve" smooth="yes"/>
      <point x="123" y="213"/>
      <point x="123" y="207"/>
      <point x="123" y="204" type="curve"/>
      <point x="256" y="244" type="line" smooth="yes"/>
      <point x="282" y="252"/>
      <point x="288" y="260"/>
    </contour>
  </outline>
</glyph>
<glyph name="f" format="1">
  <advance width="354"/>
  <unicode hex="0066"/>
  <outline>
    <contour>
      <point x="406" y="666" type="curve" smooth="yes"/>
      <point x="406" y="637"/>
      <point x="371" y="591"/>
      <point x="358" y="591" type="curve" smooth="yes"/>
      <point x="348" y="591"/>
      <point x="339" y="596"/>
      <point x="330" y="604" type="curve"/>
      <point x="312" y="617"/>
      <point x="290" y="626"/>
      <point x="276" y="626" type="curve" smooth="yes"/>
      <point x="215" y="626"/>
      <point x="183" y="586"/>
      <point x="183" y="496" type="curve" smooth="yes"/>
      <point x="183" y="391" type="line" smooth="yes"/>
      <point x="183" y="376"/>
      <point x="195" y="368"/>
      <point x="225" y="370" type="curve" smooth="yes"/>
      <point x="287" y="375" type="line" smooth="yes"/>
      <point x="323" y="378"/>
      <point x="328" y="376"/>
      <point x="328" y="349" type="curve" smooth="yes"/>
      <point x="328" y="324"/>
      <point x="322" y="321"/>
      <point x="288" y="321" type="curve" smooth="yes"/>
      <point x="226" y="321" type="line" smooth="yes"/>
      <point x="200" y="321"/>
      <point x="184" y="314"/>
      <point x="183" y="303" type="curve" smooth="yes"/>
      <point x="182" y="292"/>
      <point x="183" y="91"/>
      <point x="183" y="91" type="curve" smooth="yes"/>
      <point x="183" y="51"/>
      <point x="221" y="43"/>
      <point x="272" y="39" type="curve" smooth="yes"/>
      <point x="295" y="37"/>
      <point x="297" y="37"/>
      <point x="297" y="19" type="curve" smooth="yes"/>
      <point x="297" y="0"/>
      <point x="295" y="-2"/>
      <point x="272" y="-1" type="curve" smooth="yes"/>
      <point x="220" y="2"/>
      <point x="156" y="4"/>
      <point x="78" y="-4" type="curve" smooth="yes"/>
      <point x="48" y="-7"/>
      <point x="46" y="-6"/>
      <point x="46" y="13" type="curve" smooth="yes"/>
      <point x="46" y="25"/>
      <point x="50" y="26"/>
      <point x="74" y="33" type="curve" smooth="yes"/>
      <point x="94" y="38"/>
      <point x="108" y="50"/>
      <point x="108" y="82" type="curve" smooth="yes"/>
      <point x="108" y="272" type="line" smooth="yes"/>
      <point x="108" y="316"/>
      <point x="94" y="321"/>
      <point x="74" y="327" type="curve" smooth="yes"/>
      <point x="47" y="336"/>
      <point x="46" y="341"/>
      <point x="46" y="355" type="curve" smooth="yes"/>
      <point x="46" y="368"/>
      <point x="48" y="372"/>
      <point x="82" y="373" type="curve" smooth="yes"/>
      <point x="102" y="373"/>
      <point x="107" y="375"/>
      <point x="107" y="407" type="curve" smooth="yes"/>
      <point x="107" y="485" type="line" smooth="yes"/>
      <point x="107" y="612"/>
      <point x="225" y="693"/>
      <point x="362" y="693" type="curve" smooth="yes"/>
      <point x="386" y="693"/>
      <point x="406" y="686"/>
    </contour>
  </outline>
</glyph>
<glyph name="g" format="1">
  <advance width="488"/>
  <unicode hex="0067"/>
  <outline>
    <contour>
      <point x="463" y="324" type="curve" smooth="yes"/>
      <point x="458" y="285"/>
      <point x="452" y="285"/>
      <point x="410" y="291" type="curve" smooth="yes"/>
      <point x="395" y="293"/>
      <point x="391" y="293"/>
      <point x="391" y="283" type="curve" smooth="yes"/>
      <point x="391" y="275"/>
      <point x="393" y="265"/>
      <point x="393" y="242" type="curve" smooth="yes"/>
      <point x="393" y="174"/>
      <point x="341" y="122"/>
      <point x="256" y="98" type="curve" smooth="yes"/>
      <point x="186" y="79"/>
      <point x="175" y="72"/>
      <point x="175" y="62" type="curve" smooth="yes"/>
      <point x="175" y="50"/>
      <point x="188" y="46"/>
      <point x="235" y="40" type="curve" smooth="yes"/>
      <point x="311" y="30" type="line" smooth="yes"/>
      <point x="415" y="16"/>
      <point x="452" y="-13"/>
      <point x="452" y="-71" type="curve" smooth="yes"/>
      <point x="452" y="-170"/>
      <point x="320" y="-244"/>
      <point x="180" y="-244" type="curve" smooth="yes"/>
      <point x="91" y="-244"/>
      <point x="35" y="-205"/>
      <point x="35" y="-146" type="curve" smooth="yes"/>
      <point x="35" y="-99"/>
      <point x="71" y="-55"/>
      <point x="129" y="-17" type="curve"/>
      <point x="97" y="-4"/>
      <point x="86" y="13"/>
      <point x="86" y="38" type="curve" smooth="yes"/>
      <point x="86" y="63"/>
      <point x="108" y="81"/>
      <point x="166" y="102" type="curve"/>
      <point x="103" y="119"/>
      <point x="51" y="162"/>
      <point x="51" y="237" type="curve" smooth="yes"/>
      <point x="51" y="323"/>
      <point x="121" y="387"/>
      <point x="217" y="387" type="curve" smooth="yes"/>
      <point x="257" y="387"/>
      <point x="283" y="380"/>
      <point x="317" y="364" type="curve" smooth="yes"/>
      <point x="345" y="351"/>
      <point x="370" y="349"/>
      <point x="398" y="350" type="curve" smooth="yes"/>
      <point x="441" y="351" type="line" smooth="yes"/>
      <point x="462" y="351"/>
      <point x="467" y="349"/>
    </contour>
    <contour>
      <point x="317" y="233" type="curve" smooth="yes"/>
      <point x="317" y="308"/>
      <point x="286" y="346"/>
      <point x="219" y="346" type="curve" smooth="yes"/>
      <point x="166" y="346"/>
      <point x="136" y="307"/>
      <point x="136" y="241" type="curve" smooth="yes"/>
      <point x="136" y="178"/>
      <point x="165" y="137"/>
      <point x="228" y="137" type="curve" smooth="yes"/>
      <point x="278" y="137"/>
      <point x="317" y="176"/>
    </contour>
    <contour>
      <point x="394" y="-100" type="curve" smooth="yes"/>
      <point x="394" y="-77"/>
      <point x="378" y="-61"/>
      <point x="304" y="-50" type="curve" smooth="yes"/>
      <point x="207" y="-36" type="line" smooth="yes"/>
      <point x="193" y="-34"/>
      <point x="180" y="-31"/>
      <point x="169" y="-29" type="curve"/>
      <point x="130" y="-60"/>
      <point x="117" y="-92"/>
      <point x="117" y="-132" type="curve" smooth="yes"/>
      <point x="117" y="-179"/>
      <point x="149" y="-201"/>
      <point x="211" y="-201" type="curve" smooth="yes"/>
      <point x="313" y="-201"/>
      <point x="394" y="-143"/>
    </contour>
  </outline>
</glyph>
<glyph name="h" format="1">
  <advance width="549"/>
  <unicode hex="0068"/>
  <outline>
    <contour>
      <point x="540" y="11" type="curve" smooth="yes"/>
      <point x="540" y="-4"/>
      <point x="535" y="-5"/>
      <point x="518" y="-4" type="curve" smooth="yes"/>
      <point x="456" y="-2"/>
      <point x="414" y="2"/>
      <point x="359" y="-2" type="curve" smooth="yes"/>
      <point x="332" y="-4"/>
      <point x="328" y="-2"/>
      <point x="328" y="13" type="curve" smooth="yes"/>
      <point x="328" y="22"/>
      <point x="330" y="23"/>
      <point x="356" y="31" type="curve" smooth="yes"/>
      <point x="377" y="37"/>
      <point x="382" y="42"/>
      <point x="382" y="80" type="curve" smooth="yes"/>
      <point x="382" y="212" type="line" smooth="yes"/>
      <point x="382" y="293"/>
      <point x="342" y="326"/>
      <point x="285" y="326" type="curve" smooth="yes"/>
      <point x="225" y="326"/>
      <point x="169" y="291"/>
      <point x="169" y="267" type="curve" smooth="yes"/>
      <point x="169" y="81" type="line" smooth="yes"/>
      <point x="169" y="36"/>
      <point x="201" y="31"/>
      <point x="229" y="28" type="curve" smooth="yes"/>
      <point x="251" y="26"/>
      <point x="252" y="22"/>
      <point x="252" y="13" type="curve" smooth="yes"/>
      <point x="252" y="-1"/>
      <point x="249" y="-3"/>
      <point x="229" y="-2" type="curve" smooth="yes"/>
      <point x="168" y="0"/>
      <point x="126" y="-1"/>
      <point x="71" y="-6" type="curve" smooth="yes"/>
      <point x="44" y="-8"/>
      <point x="39" y="-6"/>
      <point x="39" y="9" type="curve" smooth="yes"/>
      <point x="39" y="18"/>
      <point x="41" y="20"/>
      <point x="67" y="27" type="curve" smooth="yes"/>
      <point x="85" y="32"/>
      <point x="93" y="41"/>
      <point x="93" y="80" type="curve" smooth="yes"/>
      <point x="93" y="522" type="line" smooth="yes"/>
      <point x="93" y="570"/>
      <point x="87" y="597"/>
      <point x="40" y="613" type="curve" smooth="yes"/>
      <point x="28" y="617"/>
      <point x="27" y="620"/>
      <point x="27" y="629" type="curve" smooth="yes"/>
      <point x="27" y="636"/>
      <point x="29" y="638"/>
      <point x="47" y="646" type="curve" smooth="yes"/>
      <point x="107" y="673"/>
      <point x="134" y="697"/>
      <point x="152" y="697" type="curve" smooth="yes"/>
      <point x="168" y="697"/>
      <point x="170" y="689"/>
      <point x="170" y="672" type="curve" smooth="yes"/>
      <point x="170" y="657"/>
      <point x="167" y="605"/>
      <point x="167" y="528" type="curve" smooth="yes"/>
      <point x="167" y="361" type="line" smooth="yes"/>
      <point x="167" y="340"/>
      <point x="169" y="334"/>
      <point x="175" y="334" type="curve" smooth="yes"/>
      <point x="183" y="334"/>
      <point x="247" y="390"/>
      <point x="325" y="390" type="curve" smooth="yes"/>
      <point x="404" y="390"/>
      <point x="455" y="345"/>
      <point x="456" y="246" type="curve" smooth="yes"/>
      <point x="457" y="81" type="line" smooth="yes"/>
      <point x="457" y="35"/>
      <point x="495" y="28"/>
      <point x="518" y="26" type="curve" smooth="yes"/>
      <point x="539" y="24"/>
      <point x="540" y="22"/>
    </contour>
  </outline>
</glyph>
<glyph name="i" format="1">
  <advance width="292"/>
  <unicode hex="0069"/>
  <outline>
    <contour>
      <point x="216" y="565" type="curve" smooth="yes"/>
      <point x="216" y="535"/>
      <point x="189" y="504"/>
      <point x="162" y="504" type="curve" smooth="yes"/>
      <point x="132" y="504"/>
      <point x="110" y="524"/>
      <point x="110" y="553" type="curve" smooth="yes"/>
      <point x="110" y="582"/>
      <point x="139" y="612"/>
      <point x="166" y="612" type="curve" smooth="yes"/>
      <point x="198" y="612"/>
      <point x="216" y="595"/>
    </contour>
    <contour>
      <point x="270" y="12" type="curve" smooth="yes"/>
      <point x="267" y="-4"/>
      <point x="265" y="-5"/>
      <point x="235" y="-3" type="curve" smooth="yes"/>
      <point x="191" y="0"/>
      <point x="136" y="-1"/>
      <point x="92" y="-5" type="curve" smooth="yes"/>
      <point x="65" y="-8"/>
      <point x="63" y="-3"/>
      <point x="63" y="12" type="curve" smooth="yes"/>
      <point x="63" y="21"/>
      <point x="66" y="24"/>
      <point x="89" y="31" type="curve" smooth="yes"/>
      <point x="107" y="36"/>
      <point x="117" y="44"/>
      <point x="117" y="85" type="curve" smooth="yes"/>
      <point x="117" y="213" type="line" smooth="yes"/>
      <point x="117" y="261"/>
      <point x="112" y="284"/>
      <point x="65" y="300" type="curve" smooth="yes"/>
      <point x="52" y="304"/>
      <point x="50" y="307"/>
      <point x="50" y="316" type="curve" smooth="yes"/>
      <point x="50" y="327"/>
      <point x="53" y="331"/>
      <point x="72" y="337" type="curve" smooth="yes"/>
      <point x="143" y="359"/>
      <point x="159" y="388"/>
      <point x="176" y="388" type="curve" smooth="yes"/>
      <point x="193" y="388"/>
      <point x="195" y="380"/>
      <point x="195" y="363" type="curve" smooth="yes"/>
      <point x="194" y="316"/>
      <point x="193" y="217"/>
      <point x="193" y="102" type="curve" smooth="yes"/>
      <point x="193" y="59"/>
      <point x="203" y="44"/>
      <point x="241" y="35" type="curve" smooth="yes"/>
      <point x="269" y="29"/>
      <point x="272" y="25"/>
    </contour>
  </outline>
</glyph>
<glyph name="j" format="1">
  <advance width="259"/>
  <unicode hex="006A"/>
  <outline>
    <contour>
      <point x="198" y="578" type="curve" smooth="yes"/>
      <point x="198" y="550"/>
      <point x="169" y="518"/>
      <point x="142" y="518" type="curve" smooth="yes"/>
      <point x="110" y="518"/>
      <point x="92" y="537"/>
      <point x="92" y="566" type="curve" smooth="yes"/>
      <point x="92" y="596"/>
      <point x="119" y="627"/>
      <point x="146" y="627" type="curve" smooth="yes"/>
      <point x="176" y="627"/>
      <point x="198" y="608"/>
    </contour>
    <contour>
      <point x="182" y="363" type="curve" smooth="yes"/>
      <point x="182" y="348"/>
      <point x="179" y="296"/>
      <point x="179" y="219" type="curve" smooth="yes"/>
      <point x="179" y="-25" type="line" smooth="yes"/>
      <point x="179" y="-164"/>
      <point x="114" y="-222"/>
      <point x="34" y="-254" type="curve" smooth="yes"/>
      <point x="23" y="-258"/>
      <point x="11" y="-254"/>
      <point x="11" y="-244" type="curve" smooth="yes"/>
      <point x="11" y="-233"/>
      <point x="18" y="-225"/>
      <point x="39" y="-211" type="curve" smooth="yes"/>
      <point x="82" y="-181"/>
      <point x="103" y="-145"/>
      <point x="103" y="-35" type="curve" smooth="yes"/>
      <point x="103" y="213" type="line" smooth="yes"/>
      <point x="103" y="261"/>
      <point x="99" y="284"/>
      <point x="53" y="300" type="curve" smooth="yes"/>
      <point x="41" y="304"/>
      <point x="40" y="307"/>
      <point x="40" y="315" type="curve" smooth="yes"/>
      <point x="40" y="327"/>
      <point x="41" y="331"/>
      <point x="59" y="337" type="curve" smooth="yes"/>
      <point x="131" y="359"/>
      <point x="147" y="388"/>
      <point x="164" y="388" type="curve" smooth="yes"/>
      <point x="180" y="388"/>
      <point x="182" y="380"/>
    </contour>
  </outline>
</glyph>
<glyph name="k" format="1">
  <advance width="524"/>
  <unicode hex="006B"/>
  <outline>
    <contour>
      <point x="515" y="17" type="curve" smooth="yes"/>
      <point x="515" y="6"/>
      <point x="514" y="0"/>
      <point x="492" y="-1" type="curve" smooth="yes"/>
      <point x="461" y="-2"/>
      <point x="424" y="-2"/>
      <point x="403" y="-6" type="curve" smooth="yes"/>
      <point x="380" y="-10"/>
      <point x="373" y="-8"/>
      <point x="364" y="1" type="curve" smooth="yes"/>
      <point x="316" y="53"/>
      <point x="262" y="125"/>
      <point x="233" y="175" type="curve" smooth="yes"/>
      <point x="225" y="188"/>
      <point x="215" y="184"/>
      <point x="193" y="168" type="curve"/>
      <point x="177" y="159"/>
      <point x="170" y="149"/>
      <point x="170" y="132" type="curve" smooth="yes"/>
      <point x="170" y="114"/>
      <point x="171" y="84"/>
      <point x="171" y="84" type="curve" smooth="yes"/>
      <point x="172" y="39"/>
      <point x="190" y="37"/>
      <point x="234" y="32" type="curve" smooth="yes"/>
      <point x="254" y="30"/>
      <point x="257" y="28"/>
      <point x="257" y="15" type="curve" smooth="yes"/>
      <point x="257" y="1"/>
      <point x="255" y="-2"/>
      <point x="234" y="0" type="curve" smooth="yes"/>
      <point x="187" y="4"/>
      <point x="128" y="0"/>
      <point x="69" y="-5" type="curve" smooth="yes"/>
      <point x="41" y="-7"/>
      <point x="36" y="-6"/>
      <point x="36" y="12" type="curve" smooth="yes"/>
      <point x="36" y="24"/>
      <point x="40" y="28"/>
      <point x="66" y="35" type="curve" smooth="yes"/>
      <point x="86" y="40"/>
      <point x="93" y="66"/>
      <point x="93" y="98" type="curve" smooth="yes"/>
      <point x="93" y="525" type="line" smooth="yes"/>
      <point x="93" y="573"/>
      <point x="89" y="596"/>
      <point x="40" y="612" type="curve" smooth="yes"/>
      <point x="26" y="617"/>
      <point x="24" y="619"/>
      <point x="24" y="627" type="curve" smooth="yes"/>
      <point x="24" y="639"/>
      <point x="28" y="643"/>
      <point x="47" y="649" type="curve" smooth="yes"/>
      <point x="112" y="671"/>
      <point x="133" y="700"/>
      <point x="150" y="700" type="curve" smooth="yes"/>
      <point x="168" y="700"/>
      <point x="170" y="692"/>
      <point x="170" y="675" type="curve" smooth="yes"/>
      <point x="170" y="660"/>
      <point x="169" y="608"/>
      <point x="169" y="531" type="curve" smooth="yes"/>
      <point x="169" y="531"/>
      <point x="170" y="337"/>
      <point x="170" y="225" type="curve" smooth="yes"/>
      <point x="170" y="211"/>
      <point x="176" y="205"/>
      <point x="199" y="225" type="curve" smooth="yes"/>
      <point x="220" y="242"/>
      <point x="281" y="289"/>
      <point x="299" y="308" type="curve" smooth="yes"/>
      <point x="322" y="332"/>
      <point x="310" y="341"/>
      <point x="271" y="346" type="curve" smooth="yes"/>
      <point x="255" y="348"/>
      <point x="254" y="352"/>
      <point x="255" y="365" type="curve" smooth="yes"/>
      <point x="256" y="378"/>
      <point x="260" y="382"/>
      <point x="272" y="380" type="curve" smooth="yes"/>
      <point x="330" y="372"/>
      <point x="422" y="376"/>
      <point x="468" y="374" type="curve" smooth="yes"/>
      <point x="480" y="374"/>
      <point x="483" y="369"/>
      <point x="483" y="356" type="curve" smooth="yes"/>
      <point x="483" y="343"/>
      <point x="481" y="339"/>
      <point x="459" y="338" type="curve" smooth="yes"/>
      <point x="439" y="337"/>
      <point x="417" y="334"/>
      <point x="388" y="321" type="curve" smooth="yes"/>
      <point x="358" y="307"/>
      <point x="325" y="283"/>
      <point x="289" y="247" type="curve"/>
      <point x="281" y="241"/>
      <point x="285" y="232"/>
      <point x="302" y="207" type="curve" smooth="yes"/>
      <point x="321" y="177"/>
      <point x="380" y="99"/>
      <point x="417" y="67" type="curve" smooth="yes"/>
      <point x="441" y="46"/>
      <point x="451" y="37"/>
      <point x="482" y="37" type="curve" smooth="yes"/>
      <point x="512" y="37"/>
      <point x="515" y="35"/>
    </contour>
  </outline>
</glyph>
<glyph name="l" format="1">
  <advance width="285"/>
  <unicode hex="006C"/>
  <outline>
    <contour>
      <point x="270" y="14" type="curve" smooth="yes"/>
      <point x="270" y="-3"/>
      <point x="265" y="-5"/>
      <point x="248" y="-3" type="curve" smooth="yes"/>
      <point x="203" y="1"/>
      <point x="136" y="0"/>
      <point x="81" y="-5" type="curve" smooth="yes"/>
      <point x="54" y="-7"/>
      <point x="52" y="-5"/>
      <point x="52" y="12" type="curve" smooth="yes"/>
      <point x="52" y="21"/>
      <point x="53" y="24"/>
      <point x="78" y="32" type="curve" smooth="yes"/>
      <point x="96" y="37"/>
      <point x="105" y="48"/>
      <point x="105" y="80" type="curve" smooth="yes"/>
      <point x="105" y="522" type="line" smooth="yes"/>
      <point x="105" y="576"/>
      <point x="91" y="595"/>
      <point x="53" y="609" type="curve" smooth="yes"/>
      <point x="41" y="613"/>
      <point x="38" y="616"/>
      <point x="38" y="624" type="curve" smooth="yes"/>
      <point x="38" y="635"/>
      <point x="39" y="639"/>
      <point x="60" y="646" type="curve" smooth="yes"/>
      <point x="121" y="666"/>
      <point x="148" y="697"/>
      <point x="166" y="697" type="curve" smooth="yes"/>
      <point x="182" y="697"/>
      <point x="184" y="689"/>
      <point x="184" y="672" type="curve" smooth="yes"/>
      <point x="184" y="657"/>
      <point x="181" y="605"/>
      <point x="181" y="528" type="curve" smooth="yes"/>
      <point x="183" y="92" type="line" smooth="yes"/>
      <point x="183" y="52"/>
      <point x="201" y="37"/>
      <point x="248" y="31" type="curve" smooth="yes"/>
      <point x="269" y="29"/>
      <point x="270" y="26"/>
    </contour>
  </outline>
</glyph>
<glyph name="m" format="1">
  <advance width="845"/>
  <unicode hex="006D"/>
  <outline>
    <contour>
      <point x="837" y="13" type="curve" smooth="yes"/>
      <point x="837" y="-1"/>
      <point x="833" y="-3"/>
      <point x="822" y="-2" type="curve" smooth="yes"/>
      <point x="766" y="2"/>
      <point x="702" y="4"/>
      <point x="636" y="-2" type="curve" smooth="yes"/>
      <point x="621" y="-3"/>
      <point x="617" y="-2"/>
      <point x="617" y="15" type="curve" smooth="yes"/>
      <point x="617" y="26"/>
      <point x="621" y="30"/>
      <point x="643" y="31" type="curve" smooth="yes"/>
      <point x="660" y="32"/>
      <point x="676" y="48"/>
      <point x="676" y="84" type="curve" smooth="yes"/>
      <point x="676" y="214" type="line" smooth="yes"/>
      <point x="676" y="300"/>
      <point x="636" y="323"/>
      <point x="587" y="323" type="curve" smooth="yes"/>
      <point x="520" y="323"/>
      <point x="465" y="294"/>
      <point x="465" y="276" type="curve" smooth="yes"/>
      <point x="463" y="82" type="line" smooth="yes"/>
      <point x="463" y="38"/>
      <point x="473" y="36"/>
      <point x="494" y="32" type="curve" smooth="yes"/>
      <point x="532" y="26"/>
      <point x="537" y="23"/>
      <point x="537" y="14" type="curve" smooth="yes"/>
      <point x="537" y="-1"/>
      <point x="534" y="-4"/>
      <point x="517" y="-3" type="curve" smooth="yes"/>
      <point x="456" y="-1"/>
      <point x="413" y="-3"/>
      <point x="355" y="-5" type="curve" smooth="yes"/>
      <point x="336" y="-6"/>
      <point x="331" y="-4"/>
      <point x="331" y="11" type="curve" smooth="yes"/>
      <point x="331" y="22"/>
      <point x="334" y="24"/>
      <point x="359" y="27" type="curve" smooth="yes"/>
      <point x="377" y="29"/>
      <point x="389" y="44"/>
      <point x="389" y="82" type="curve" smooth="yes"/>
      <point x="389" y="215" type="line" smooth="yes"/>
      <point x="389" y="291"/>
      <point x="351" y="324"/>
      <point x="310" y="324" type="curve" smooth="yes"/>
      <point x="244" y="324"/>
      <point x="183" y="292"/>
      <point x="183" y="262" type="curve" smooth="yes"/>
      <point x="183" y="84" type="line" smooth="yes"/>
      <point x="183" y="42"/>
      <point x="203" y="32"/>
      <point x="250" y="29" type="curve" smooth="yes"/>
      <point x="267" y="28"/>
      <point x="270" y="27"/>
      <point x="270" y="15" type="curve" smooth="yes"/>
      <point x="270" y="3"/>
      <point x="267" y="1"/>
      <point x="254" y="1" type="curve" smooth="yes"/>
      <point x="195" y="1"/>
      <point x="129" y="1"/>
      <point x="77" y="-6" type="curve" smooth="yes"/>
      <point x="51" y="-9"/>
      <point x="49" y="-6"/>
      <point x="49" y="6" type="curve" smooth="yes"/>
      <point x="49" y="14"/>
      <point x="50" y="18"/>
      <point x="85" y="27" type="curve" smooth="yes"/>
      <point x="101" y="31"/>
      <point x="107" y="54"/>
      <point x="107" y="84" type="curve" smooth="yes"/>
      <point x="107" y="234" type="line" smooth="yes"/>
      <point x="107" y="275"/>
      <point x="102" y="293"/>
      <point x="76" y="300" type="curve" smooth="yes"/>
      <point x="42" y="310"/>
      <point x="39" y="311"/>
      <point x="39" y="322" type="curve" smooth="yes"/>
      <point x="39" y="327"/>
      <point x="40" y="331"/>
      <point x="90" y="359" type="curve" smooth="yes"/>
      <point x="129" y="381"/>
      <point x="144" y="389"/>
      <point x="156" y="389" type="curve" smooth="yes"/>
      <point x="174" y="389"/>
      <point x="174" y="330"/>
      <point x="184" y="330" type="curve" smooth="yes"/>
      <point x="202" y="330"/>
      <point x="254" y="389"/>
      <point x="351" y="389" type="curve" smooth="yes"/>
      <point x="428" y="389"/>
      <point x="449" y="333"/>
      <point x="454" y="333" type="curve" smooth="yes"/>
      <point x="460" y="333"/>
      <point x="530" y="389"/>
      <point x="618" y="389" type="curve" smooth="yes"/>
      <point x="698" y="389"/>
      <point x="752" y="346"/>
      <point x="752" y="242" type="curve" smooth="yes"/>
      <point x="752" y="84" type="line" smooth="yes"/>
      <point x="752" y="45"/>
      <point x="768" y="36"/>
      <point x="811" y="28" type="curve" smooth="yes"/>
      <point x="834" y="23"/>
      <point x="837" y="22"/>
    </contour>
  </outline>
</glyph>
<glyph name="n" format="1">
  <advance width="559"/>
  <unicode hex="006E"/>
  <outline>
    <contour>
      <point x="554" y="9" type="curve" smooth="yes"/>
      <point x="554" y="-3"/>
      <point x="552" y="-6"/>
      <point x="532" y="-5" type="curve" smooth="yes"/>
      <point x="474" y="-2"/>
      <point x="427" y="0"/>
      <point x="373" y="-3" type="curve" smooth="yes"/>
      <point x="346" y="-5"/>
      <point x="342" y="-3"/>
      <point x="342" y="12" type="curve" smooth="yes"/>
      <point x="342" y="18"/>
      <point x="344" y="23"/>
      <point x="370" y="30" type="curve" smooth="yes"/>
      <point x="390" y="36"/>
      <point x="396" y="48"/>
      <point x="396" y="80" type="curve" smooth="yes"/>
      <point x="396" y="210" type="line" smooth="yes"/>
      <point x="396" y="291"/>
      <point x="361" y="322"/>
      <point x="299" y="322" type="curve" smooth="yes"/>
      <point x="239" y="322"/>
      <point x="183" y="287"/>
      <point x="183" y="260" type="curve" smooth="yes"/>
      <point x="183" y="81" type="line" smooth="yes"/>
      <point x="183" y="36"/>
      <point x="221" y="32"/>
      <point x="243" y="30" type="curve" smooth="yes"/>
      <point x="266" y="28"/>
      <point x="266" y="25"/>
      <point x="266" y="15" type="curve" smooth="yes"/>
      <point x="266" y="-1"/>
      <point x="261" y="-1"/>
      <point x="243" y="0" type="curve" smooth="yes"/>
      <point x="182" y="2"/>
      <point x="133" y="-2"/>
      <point x="85" y="-8" type="curve" smooth="yes"/>
      <point x="58" y="-12"/>
      <point x="53" y="-9"/>
      <point x="53" y="6" type="curve" smooth="yes"/>
      <point x="53" y="16"/>
      <point x="60" y="20"/>
      <point x="81" y="26" type="curve" smooth="yes"/>
      <point x="100" y="32"/>
      <point x="107" y="48"/>
      <point x="107" y="91" type="curve" smooth="yes"/>
      <point x="107" y="239" type="line" smooth="yes"/>
      <point x="107" y="287"/>
      <point x="102" y="291"/>
      <point x="55" y="306" type="curve" smooth="yes"/>
      <point x="45" y="309"/>
      <point x="42" y="312"/>
      <point x="42" y="321" type="curve" smooth="yes"/>
      <point x="42" y="328"/>
      <point x="46" y="332"/>
      <point x="62" y="338" type="curve" smooth="yes"/>
      <point x="113" y="357"/>
      <point x="140" y="389"/>
      <point x="157" y="389" type="curve" smooth="yes"/>
      <point x="171" y="389"/>
      <point x="172" y="381"/>
      <point x="175" y="359" type="curve" smooth="yes"/>
      <point x="179" y="333"/>
      <point x="181" y="329"/>
      <point x="187" y="329" type="curve" smooth="yes"/>
      <point x="198" y="329"/>
      <point x="257" y="386"/>
      <point x="343" y="386" type="curve" smooth="yes"/>
      <point x="426" y="386"/>
      <point x="469" y="339"/>
      <point x="470" y="242" type="curve" smooth="yes"/>
      <point x="471" y="85" type="line" smooth="yes"/>
      <point x="471" y="41"/>
      <point x="493" y="33"/>
      <point x="532" y="25" type="curve" smooth="yes"/>
      <point x="551" y="21"/>
      <point x="554" y="17"/>
    </contour>
  </outline>
</glyph>
<glyph name="o" format="1">
  <advance width="497"/>
  <unicode hex="006F"/>
  <outline>
    <contour>
      <point x="458" y="197" type="curve" smooth="yes"/>
      <point x="458" y="84"/>
      <point x="364" y="-6"/>
      <point x="239" y="-6" type="curve" smooth="yes"/>
      <point x="112" y="-6"/>
      <point x="39" y="71"/>
      <point x="39" y="180" type="curve" smooth="yes"/>
      <point x="39" y="298"/>
      <point x="142" y="383"/>
      <point x="258" y="383" type="curve" smooth="yes"/>
      <point x="387" y="383"/>
      <point x="458" y="308"/>
    </contour>
    <contour>
      <point x="372" y="167" type="curve" smooth="yes"/>
      <point x="372" y="271"/>
      <point x="316" y="338"/>
      <point x="243" y="338" type="curve" smooth="yes"/>
      <point x="173" y="338"/>
      <point x="126" y="281"/>
      <point x="126" y="213" type="curve" smooth="yes"/>
      <point x="126" y="96"/>
      <point x="184" y="39"/>
      <point x="256" y="39" type="curve" smooth="yes"/>
      <point x="329" y="39"/>
      <point x="372" y="93"/>
    </contour>
  </outline>
</glyph>
<glyph name="p" format="1">
  <advance width="515"/>
  <unicode hex="0070"/>
  <outline>
    <contour>
      <point x="470" y="210" type="curve" smooth="yes"/>
      <point x="470" y="86"/>
      <point x="373" y="-9"/>
      <point x="266" y="-9" type="curve" smooth="yes"/>
      <point x="233" y="-9"/>
      <point x="189" y="2"/>
      <point x="171" y="9" type="curve" smooth="yes"/>
      <point x="166" y="11"/>
      <point x="166" y="-5"/>
      <point x="166" y="-15" type="curve" smooth="yes"/>
      <point x="166" y="-162" type="line" smooth="yes"/>
      <point x="166" y="-188"/>
      <point x="182" y="-201"/>
      <point x="224" y="-208" type="curve" smooth="yes"/>
      <point x="261" y="-215"/>
      <point x="265" y="-218"/>
      <point x="265" y="-231" type="curve" smooth="yes"/>
      <point x="265" y="-243"/>
      <point x="263" y="-247"/>
      <point x="243" y="-246" type="curve" smooth="yes"/>
      <point x="201" y="-243"/>
      <point x="100" y="-245"/>
      <point x="63" y="-251" type="curve" smooth="yes"/>
      <point x="40" y="-254"/>
      <point x="39" y="-251"/>
      <point x="39" y="-238" type="curve" smooth="yes"/>
      <point x="39" y="-231"/>
      <point x="42" y="-228"/>
      <point x="67" y="-218" type="curve" smooth="yes"/>
      <point x="88" y="-209"/>
      <point x="91" y="-200"/>
      <point x="91" y="-171" type="curve" smooth="yes"/>
      <point x="91" y="260" type="line" smooth="yes"/>
      <point x="91" y="296"/>
      <point x="82" y="316"/>
      <point x="62" y="325" type="curve" smooth="yes"/>
      <point x="29" y="340"/>
      <point x="28" y="342"/>
      <point x="28" y="350" type="curve" smooth="yes"/>
      <point x="28" y="361"/>
      <point x="32" y="362"/>
      <point x="48" y="366" type="curve" smooth="yes"/>
      <point x="94" y="378"/>
      <point x="116" y="402"/>
      <point x="129" y="402" type="curve" smooth="yes"/>
      <point x="143" y="402"/>
      <point x="146" y="396"/>
      <point x="153" y="375" type="curve" smooth="yes"/>
      <point x="161" y="353"/>
      <point x="167" y="336"/>
      <point x="171" y="336" type="curve" smooth="yes"/>
      <point x="177" y="336"/>
      <point x="200" y="352"/>
      <point x="213" y="359" type="curve" smooth="yes"/>
      <point x="243" y="376"/>
      <point x="271" y="384"/>
      <point x="301" y="384" type="curve" smooth="yes"/>
      <point x="383" y="384"/>
      <point x="470" y="336"/>
    </contour>
    <contour>
      <point x="387" y="171" type="curve" smooth="yes"/>
      <point x="387" y="287"/>
      <point x="321" y="332"/>
      <point x="272" y="332" type="curve" smooth="yes"/>
      <point x="240" y="332"/>
      <point x="167" y="306"/>
      <point x="167" y="224" type="curve" smooth="yes"/>
      <point x="167" y="86" type="line" smooth="yes"/>
      <point x="167" y="70"/>
      <point x="224" y="42"/>
      <point x="291" y="42" type="curve" smooth="yes"/>
      <point x="356" y="42"/>
      <point x="387" y="90"/>
    </contour>
  </outline>
</glyph>
<glyph name="q" format="1">
  <advance width="512"/>
  <unicode hex="0071"/>
  <outline>
    <contour>
      <point x="493" y="-231" type="curve" smooth="yes"/>
      <point x="493" y="-245"/>
      <point x="489" y="-246"/>
      <point x="460" y="-244" type="curve" smooth="yes"/>
      <point x="400" y="-240"/>
      <point x="360" y="-244"/>
      <point x="292" y="-246" type="curve" smooth="yes"/>
      <point x="272" y="-247"/>
      <point x="267" y="-245"/>
      <point x="267" y="-231" type="curve" smooth="yes"/>
      <point x="267" y="-219"/>
      <point x="271" y="-218"/>
      <point x="292" y="-216" type="curve" smooth="yes"/>
      <point x="317" y="-214"/>
      <point x="359" y="-207"/>
      <point x="359" y="-161" type="curve" smooth="yes"/>
      <point x="359" y="-4" type="line" smooth="yes"/>
      <point x="359" y="28"/>
      <point x="358" y="37"/>
      <point x="351" y="37" type="curve" smooth="yes"/>
      <point x="331" y="37"/>
      <point x="298" y="-5"/>
      <point x="231" y="-5" type="curve" smooth="yes"/>
      <point x="124" y="-5"/>
      <point x="41" y="67"/>
      <point x="41" y="176" type="curve" smooth="yes"/>
      <point x="41" y="316"/>
      <point x="148" y="391"/>
      <point x="256" y="391" type="curve" smooth="yes"/>
      <point x="335" y="391"/>
      <point x="375" y="370"/>
      <point x="384" y="370" type="curve" smooth="yes"/>
      <point x="398" y="370"/>
      <point x="416" y="405"/>
      <point x="426" y="405" type="curve" smooth="yes"/>
      <point x="431" y="405"/>
      <point x="446" y="395"/>
      <point x="445" y="389" type="curve" smooth="yes"/>
      <point x="442" y="356"/>
      <point x="434" y="264"/>
      <point x="434" y="173" type="curve" smooth="yes"/>
      <point x="435" y="-144" type="line" smooth="yes"/>
      <point x="435" y="-176"/>
      <point x="444" y="-191"/>
      <point x="463" y="-203" type="curve" smooth="yes"/>
      <point x="489" y="-219"/>
      <point x="493" y="-222"/>
    </contour>
    <contour>
      <point x="359" y="106" type="curve" smooth="yes"/>
      <point x="359" y="273" type="line" smooth="yes"/>
      <point x="359" y="296"/>
      <point x="307" y="346"/>
      <point x="237" y="346" type="curve" smooth="yes"/>
      <point x="182" y="346"/>
      <point x="124" y="309"/>
      <point x="124" y="206" type="curve" smooth="yes"/>
      <point x="124" y="113"/>
      <point x="184" y="56"/>
      <point x="279" y="56" type="curve" smooth="yes"/>
      <point x="322" y="56"/>
      <point x="359" y="80"/>
    </contour>
  </outline>
</glyph>
<glyph name="r" format="1">
  <advance width="374"/>
  <unicode hex="0072"/>
  <outline>
    <contour>
      <point x="349" y="346" type="curve" smooth="yes"/>
      <point x="349" y="306"/>
      <point x="341" y="287"/>
      <point x="315" y="287" type="curve" smooth="yes"/>
      <point x="301" y="287"/>
      <point x="260" y="301"/>
      <point x="235" y="301" type="curve" smooth="yes"/>
      <point x="194" y="301"/>
      <point x="180" y="279"/>
      <point x="180" y="227" type="curve" smooth="yes"/>
      <point x="180" y="83" type="line" smooth="yes"/>
      <point x="180" y="46"/>
      <point x="204" y="42"/>
      <point x="249" y="30" type="curve" smooth="yes"/>
      <point x="270" y="25"/>
      <point x="271" y="22"/>
      <point x="271" y="13" type="curve" smooth="yes"/>
      <point x="271" y="-4"/>
      <point x="269" y="-6"/>
      <point x="249" y="-4" type="curve" smooth="yes"/>
      <point x="194" y="2"/>
      <point x="130" y="5"/>
      <point x="79" y="-3" type="curve" smooth="yes"/>
      <point x="52" y="-8"/>
      <point x="50" y="-4"/>
      <point x="50" y="14" type="curve" smooth="yes"/>
      <point x="50" y="25"/>
      <point x="53" y="28"/>
      <point x="76" y="35" type="curve" smooth="yes"/>
      <point x="94" y="40"/>
      <point x="104" y="50"/>
      <point x="104" y="82" type="curve" smooth="yes"/>
      <point x="104" y="239" type="line" smooth="yes"/>
      <point x="104" y="280"/>
      <point x="99" y="285"/>
      <point x="52" y="309" type="curve" smooth="yes"/>
      <point x="42" y="314"/>
      <point x="39" y="315"/>
      <point x="39" y="324" type="curve" smooth="yes"/>
      <point x="39" y="332"/>
      <point x="40" y="335"/>
      <point x="59" y="341" type="curve" smooth="yes"/>
      <point x="119" y="362"/>
      <point x="133" y="392"/>
      <point x="150" y="392" type="curve" smooth="yes"/>
      <point x="167" y="392"/>
      <point x="169" y="379"/>
      <point x="171" y="362" type="curve" smooth="yes"/>
      <point x="174" y="336"/>
      <point x="174" y="323"/>
      <point x="181" y="323" type="curve" smooth="yes"/>
      <point x="188" y="323"/>
      <point x="211" y="343"/>
      <point x="236" y="360" type="curve" smooth="yes"/>
      <point x="258" y="375"/>
      <point x="290" y="384"/>
      <point x="314" y="384" type="curve" smooth="yes"/>
      <point x="339" y="384"/>
      <point x="349" y="366"/>
    </contour>
  </outline>
</glyph>
<glyph name="s" format="1">
  <advance width="396"/>
  <unicode hex="0073"/>
  <outline>
    <contour>
      <point x="345" y="105" type="curve" smooth="yes"/>
      <point x="345" y="36"/>
      <point x="289" y="-8"/>
      <point x="197" y="-8" type="curve" smooth="yes"/>
      <point x="129" y="-8"/>
      <point x="66" y="10"/>
      <point x="59" y="18" type="curve"/>
      <point x="56" y="23"/>
      <point x="55" y="67"/>
      <point x="55" y="85" type="curve" smooth="yes"/>
      <point x="55" y="110"/>
      <point x="58" y="111"/>
      <point x="67" y="112" type="curve" smooth="yes"/>
      <point x="77" y="113"/>
      <point x="80" y="111"/>
      <point x="87" y="99" type="curve" smooth="yes"/>
      <point x="111" y="57"/>
      <point x="142" y="35"/>
      <point x="205" y="35" type="curve" smooth="yes"/>
      <point x="254" y="35"/>
      <point x="274" y="56"/>
      <point x="274" y="83" type="curve" smooth="yes"/>
      <point x="274" y="110"/>
      <point x="260" y="126"/>
      <point x="192" y="156" type="curve" smooth="yes"/>
      <point x="99" y="197"/>
      <point x="71" y="221"/>
      <point x="71" y="280" type="curve" smooth="yes"/>
      <point x="71" y="352"/>
      <point x="131" y="390"/>
      <point x="212" y="390" type="curve" smooth="yes"/>
      <point x="262" y="390"/>
      <point x="319" y="381"/>
      <point x="321" y="368" type="curve" smooth="yes"/>
      <point x="325" y="348"/>
      <point x="328" y="314"/>
      <point x="337" y="289" type="curve"/>
      <point x="338" y="285"/>
      <point x="337" y="282"/>
      <point x="323" y="279" type="curve" smooth="yes"/>
      <point x="311" y="276"/>
      <point x="306" y="278"/>
      <point x="302" y="284" type="curve" smooth="yes"/>
      <point x="275" y="328"/>
      <point x="248" y="347"/>
      <point x="204" y="347" type="curve" smooth="yes"/>
      <point x="157" y="347"/>
      <point x="137" y="328"/>
      <point x="137" y="304" type="curve" smooth="yes"/>
      <point x="137" y="271"/>
      <point x="155" y="261"/>
      <point x="231" y="228" type="curve" smooth="yes"/>
      <point x="306" y="196"/>
      <point x="345" y="172"/>
    </contour>
  </outline>
</glyph>
<glyph name="t" format="1">
  <advance width="337"/>
  <unicode hex="0074"/>
  <outline>
    <contour>
      <point x="309" y="46" type="curve" smooth="yes"/>
      <point x="309" y="12"/>
      <point x="234" y="-9"/>
      <point x="189" y="-9" type="curve" smooth="yes"/>
      <point x="121" y="-9"/>
      <point x="83" y="26"/>
      <point x="83" y="104" type="curve" smooth="yes"/>
      <point x="83" y="281" type="line" smooth="yes"/>
      <point x="83" y="325"/>
      <point x="83" y="327"/>
      <point x="42" y="337" type="curve" smooth="yes"/>
      <point x="35" y="339"/>
      <point x="34" y="343"/>
      <point x="34" y="352" type="curve" smooth="yes"/>
      <point x="34" y="364"/>
      <point x="34" y="366"/>
      <point x="40" y="369" type="curve" smooth="yes"/>
      <point x="77" y="387"/>
      <point x="108" y="421"/>
      <point x="132" y="462" type="curve" smooth="yes"/>
      <point x="136" y="469"/>
      <point x="143" y="470"/>
      <point x="153" y="468" type="curve"/>
      <point x="162" y="465"/>
      <point x="164" y="463"/>
      <point x="164" y="455" type="curve" smooth="yes"/>
      <point x="166" y="394" type="line" smooth="yes"/>
      <point x="166" y="383"/>
      <point x="170" y="380"/>
      <point x="184" y="380" type="curve" smooth="yes"/>
      <point x="293" y="380" type="line" smooth="yes"/>
      <point x="299" y="380"/>
      <point x="301" y="378"/>
      <point x="293" y="357" type="curve" smooth="yes"/>
      <point x="283" y="333"/>
      <point x="278" y="329"/>
      <point x="260" y="329" type="curve" smooth="yes"/>
      <point x="186" y="329" type="line" smooth="yes"/>
      <point x="163" y="329"/>
      <point x="159" y="327"/>
      <point x="159" y="299" type="curve" smooth="yes"/>
      <point x="159" y="139" type="line" smooth="yes"/>
      <point x="159" y="52"/>
      <point x="172" y="42"/>
      <point x="236" y="42" type="curve" smooth="yes"/>
      <point x="265" y="42"/>
      <point x="295" y="53"/>
      <point x="303" y="53" type="curve" smooth="yes"/>
      <point x="307" y="53"/>
      <point x="309" y="51"/>
    </contour>
  </outline>
</glyph>
<glyph name="u" format="1">
  <advance width="531"/>
  <unicode hex="0075"/>
  <outline>
    <contour>
      <point x="498" y="41" type="curve" smooth="yes"/>
      <point x="498" y="32"/>
      <point x="469" y="18"/>
      <point x="452" y="11" type="curve" smooth="yes"/>
      <point x="437" y="4"/>
      <point x="419" y="-6"/>
      <point x="413" y="-6" type="curve" smooth="yes"/>
      <point x="400" y="-6"/>
      <point x="373" y="38"/>
      <point x="357" y="38" type="curve" smooth="yes"/>
      <point x="348" y="38"/>
      <point x="328" y="27"/>
      <point x="303" y="15" type="curve" smooth="yes"/>
      <point x="281" y="5"/>
      <point x="254" y="-3"/>
      <point x="226" y="-3" type="curve" smooth="yes"/>
      <point x="131" y="-3"/>
      <point x="93" y="26"/>
      <point x="93" y="133" type="curve" smooth="yes"/>
      <point x="93" y="231" type="line" smooth="yes"/>
      <point x="93" y="281"/>
      <point x="88" y="305"/>
      <point x="39" y="320" type="curve" smooth="yes"/>
      <point x="31" y="323"/>
      <point x="28" y="326"/>
      <point x="28" y="332" type="curve" smooth="yes"/>
      <point x="28" y="341"/>
      <point x="29" y="342"/>
      <point x="47" y="349" type="curve" smooth="yes"/>
      <point x="113" y="374"/>
      <point x="136" y="388"/>
      <point x="155" y="388" type="curve" smooth="yes"/>
      <point x="170" y="388"/>
      <point x="172" y="381"/>
      <point x="172" y="365" type="curve" smooth="yes"/>
      <point x="172" y="350"/>
      <point x="169" y="293"/>
      <point x="169" y="216" type="curve" smooth="yes"/>
      <point x="169" y="157" type="line" smooth="yes"/>
      <point x="169" y="75"/>
      <point x="198" y="56"/>
      <point x="269" y="56" type="curve" smooth="yes"/>
      <point x="331" y="56"/>
      <point x="355" y="86"/>
      <point x="355" y="144" type="curve" smooth="yes"/>
      <point x="355" y="231" type="line" smooth="yes"/>
      <point x="355" y="294"/>
      <point x="350" y="302"/>
      <point x="301" y="315" type="curve"/>
      <point x="293" y="318"/>
      <point x="290" y="321"/>
      <point x="290" y="330" type="curve" smooth="yes"/>
      <point x="290" y="338"/>
      <point x="291" y="342"/>
      <point x="303" y="346" type="curve" smooth="yes"/>
      <point x="365" y="369"/>
      <point x="396" y="383"/>
      <point x="414" y="383" type="curve" smooth="yes"/>
      <point x="431" y="383"/>
      <point x="433" y="377"/>
      <point x="433" y="361" type="curve" smooth="yes"/>
      <point x="433" y="346"/>
      <point x="430" y="293"/>
      <point x="430" y="216" type="curve" smooth="yes"/>
      <point x="430" y="93" type="line" smooth="yes"/>
      <point x="430" y="62"/>
      <point x="456" y="56"/>
      <point x="481" y="54" type="curve" smooth="yes"/>
      <point x="493" y="53"/>
      <point x="498" y="49"/>
    </contour>
  </outline>
</glyph>
<glyph name="v" format="1">
  <advance width="532"/>
  <unicode hex="0076"/>
  <outline>
    <contour>
      <point x="504" y="360" type="curve" smooth="yes"/>
      <point x="504" y="350"/>
      <point x="499" y="349"/>
      <point x="473" y="341" type="curve" smooth="yes"/>
      <point x="456" y="336"/>
      <point x="448" y="322"/>
      <point x="439" y="301" type="curve" smooth="yes"/>
      <point x="404" y="215"/>
      <point x="306" y="39"/>
      <point x="278" y="-6" type="curve"/>
      <point x="276" y="-10"/>
      <point x="267" y="-10"/>
      <point x="264" y="-5" type="curve" smooth="yes"/>
      <point x="233" y="39"/>
      <point x="137" y="193"/>
      <point x="87" y="300" type="curve" smooth="yes"/>
      <point x="79" y="316"/>
      <point x="71" y="333"/>
      <point x="56" y="337" type="curve"/>
      <point x="33" y="346"/>
      <point x="28" y="349"/>
      <point x="28" y="357" type="curve" smooth="yes"/>
      <point x="28" y="372"/>
      <point x="31" y="376"/>
      <point x="47" y="374" type="curve" smooth="yes"/>
      <point x="88" y="369"/>
      <point x="185" y="372"/>
      <point x="215" y="378" type="curve" smooth="yes"/>
      <point x="226" y="380"/>
      <point x="229" y="377"/>
      <point x="229" y="367" type="curve" smooth="yes"/>
      <point x="229" y="351"/>
      <point x="225" y="349"/>
      <point x="209" y="345" type="curve" smooth="yes"/>
      <point x="172" y="335"/>
      <point x="164" y="329"/>
      <point x="176" y="298" type="curve" smooth="yes"/>
      <point x="199" y="241"/>
      <point x="277" y="102"/>
      <point x="284" y="102" type="curve" smooth="yes"/>
      <point x="289" y="102"/>
      <point x="357" y="233"/>
      <point x="382" y="303" type="curve" smooth="yes"/>
      <point x="389" y="322"/>
      <point x="378" y="336"/>
      <point x="361" y="345" type="curve"/>
      <point x="342" y="353"/>
      <point x="338" y="356"/>
      <point x="338" y="363" type="curve" smooth="yes"/>
      <point x="338" y="376"/>
      <point x="341" y="379"/>
      <point x="353" y="377" type="curve" smooth="yes"/>
      <point x="380" y="372"/>
      <point x="467" y="368"/>
      <point x="486" y="370" type="curve"/>
      <point x="501" y="373"/>
      <point x="504" y="370"/>
    </contour>
  </outline>
</glyph>
<glyph name="w" format="1">
  <advance width="765"/>
  <unicode hex="0077"/>
  <outline>
    <contour>
      <point x="737" y="359" type="curve" smooth="yes"/>
      <point x="737" y="352"/>
      <point x="735" y="350"/>
      <point x="703" y="341" type="curve" smooth="yes"/>
      <point x="684" y="336"/>
      <point x="675" y="322"/>
      <point x="666" y="301" type="curve" smooth="yes"/>
      <point x="627" y="214"/>
      <point x="536" y="32"/>
      <point x="509" y="-14" type="curve" smooth="yes"/>
      <point x="507" y="-18"/>
      <point x="497" y="-17"/>
      <point x="494" y="-13" type="curve" smooth="yes"/>
      <point x="471" y="22"/>
      <point x="393" y="206"/>
      <point x="386" y="206" type="curve" smooth="yes"/>
      <point x="377" y="206"/>
      <point x="294" y="28"/>
      <point x="271" y="-6" type="curve"/>
      <point x="269" y="-10"/>
      <point x="260" y="-10"/>
      <point x="256" y="-5" type="curve"/>
      <point x="226" y="42"/>
      <point x="147" y="193"/>
      <point x="92" y="300" type="curve" smooth="yes"/>
      <point x="79" y="325"/>
      <point x="74" y="330"/>
      <point x="59" y="337" type="curve" smooth="yes"/>
      <point x="33" y="348"/>
      <point x="28" y="349"/>
      <point x="28" y="357" type="curve" smooth="yes"/>
      <point x="28" y="372"/>
      <point x="34" y="376"/>
      <point x="49" y="374" type="curve" smooth="yes"/>
      <point x="93" y="370"/>
      <point x="181" y="372"/>
      <point x="214" y="378" type="curve" smooth="yes"/>
      <point x="228" y="381"/>
      <point x="230" y="376"/>
      <point x="230" y="367" type="curve" smooth="yes"/>
      <point x="230" y="351"/>
      <point x="226" y="347"/>
      <point x="208" y="343" type="curve" smooth="yes"/>
      <point x="181" y="336"/>
      <point x="171" y="333"/>
      <point x="186" y="294" type="curve" smooth="yes"/>
      <point x="209" y="235"/>
      <point x="272" y="109"/>
      <point x="280" y="109" type="curve" smooth="yes"/>
      <point x="285" y="109"/>
      <point x="359" y="252"/>
      <point x="359" y="262" type="curve" smooth="yes"/>
      <point x="359" y="273"/>
      <point x="352" y="293"/>
      <point x="346" y="303" type="curve"/>
      <point x="338" y="320"/>
      <point x="326" y="337"/>
      <point x="311" y="342" type="curve" smooth="yes"/>
      <point x="282" y="352"/>
      <point x="279" y="355"/>
      <point x="279" y="364" type="curve" smooth="yes"/>
      <point x="279" y="378"/>
      <point x="281" y="383"/>
      <point x="301" y="380" type="curve" smooth="yes"/>
      <point x="345" y="374"/>
      <point x="427" y="378"/>
      <point x="460" y="384" type="curve" smooth="yes"/>
      <point x="473" y="386"/>
      <point x="476" y="383"/>
      <point x="476" y="374" type="curve" smooth="yes"/>
      <point x="476" y="357"/>
      <point x="471" y="355"/>
      <point x="452" y="351" type="curve" smooth="yes"/>
      <point x="424" y="346"/>
      <point x="417" y="327"/>
      <point x="430" y="296" type="curve" smooth="yes"/>
      <point x="453" y="239"/>
      <point x="509" y="112"/>
      <point x="517" y="112" type="curve" smooth="yes"/>
      <point x="522" y="112"/>
      <point x="586" y="238"/>
      <point x="608" y="307" type="curve" smooth="yes"/>
      <point x="612" y="320"/>
      <point x="601" y="336"/>
      <point x="576" y="345" type="curve" smooth="yes"/>
      <point x="552" y="353"/>
      <point x="551" y="355"/>
      <point x="551" y="364" type="curve" smooth="yes"/>
      <point x="551" y="376"/>
      <point x="554" y="380"/>
      <point x="567" y="377" type="curve" smooth="yes"/>
      <point x="598" y="370"/>
      <point x="696" y="367"/>
      <point x="717" y="370" type="curve" smooth="yes"/>
      <point x="734" y="372"/>
      <point x="737" y="370"/>
    </contour>
  </outline>
</glyph>
